<?xml version="1.0" standalone="no"?><!DOCTYPE svg PUBLIC "-//W3C//DTD SVG 1.1//EN" "http://www.w3.org/Graphics/SVG/1.1/DTD/svg11.dtd"><svg t="1721421811925" class="icon" viewBox="0 0 1024 1024" version="1.1" xmlns="http://www.w3.org/2000/svg" p-id="2896" xmlns:xlink="http://www.w3.org/1999/xlink" width="200" height="200"><path d="M381.19513 594.765913c-74.59415 53.899636-30.541913 181.660838 27.170404 268.14634 71.841897 107.669755 257.841581 158.991178 257.841581 158.991178s98.170435-225.559273 12.320379-354.239241c-85.854103-128.663779-222.717976-126.81815-297.332364-72.898277z" fill="#85CC85" p-id="2897"></path><path d="M390.892775 628.072221c-61.520949 44.465075-19.33053 158.598577 32.974419 236.98517 65.098877 97.575462 225.332617 150.135399 225.332616 150.1354s75.286261-194.531668-2.525597-311.15434c-77.811858-116.622672-194.252395-120.431304-255.781438-75.96623z" fill="#79BA79" fill-opacity=".5" p-id="2898"></path><path d="M592.349597 767.878577c55.101723 82.583779 80.766482 173.274561 76.257644 248.245123-1.525881 3.764111-2.400126 5.783779-2.400126 5.783778s-185.999684-51.32547-257.841581-158.991178c-55.59551-83.312316-98.469945-204.901186-34.852427-261.905201 75.330783 15.752601 157.865992 75.472443 218.83649 166.867478z" fill="#69A169" p-id="2899"></path><path d="M590.378498 806.964617c47.411605 71.068838 73.723953 146.043447 76.464063 205.759241-0.809486 2.881771-1.299225 4.419794-1.299225 4.419794s-141.607462-57.477565-203.423874-150.115162c-47.82849-71.69619-89.367273-172.946719-46.974482-213.076996 56.939257 19.237439 122.770719 74.375589 175.233518 153.013123z" fill="#87CF87" fill-opacity=".48" p-id="2900"></path><path d="M484.364142 692.021628s25.276206 64.24487 6.621597 126.664348c0 0 23.207968-19.213154 31.274498-94.17562-0.004047 0-37.896095-64.977455-37.896095-32.488728zM591.791051 788.285723s39.996711 10.175241 74.760095 49.661977c0 0-14.906688-39.579826-90.342703-82.199273l15.582608 32.537296z" fill="#69A169" p-id="2901"></path><path d="M403.978119 603.763352c-26.895178 61.848791-123.952569 47.047336-193.863842 16.638988C123.078324 582.554814 58.687747 453.611763 58.687747 453.611763s144.817075-102.448569 248.836047-57.21853c104.010877 45.225992 123.357597 145.497043 96.454325 207.370119z" fill="#85CC85" p-id="2902"></path><path d="M378.944759 601.205375c-22.188016 51.009771-109.325154 35.710482-172.691731 8.163668-78.880379-34.306024-140.247526-144.24234-140.247526-144.242339s126.312221-81.503115 220.58498-40.510736c94.276806 40.992379 114.534198 125.571542 92.354277 176.589407z" fill="#79BA79" fill-opacity=".5" p-id="2903"></path><path d="M249.605059 473.007051c-66.758324-29.032221-134.807779-35.443352-187.189628-21.937075-2.432506 1.627067-3.727684 2.541787-3.727684 2.541787s64.390577 128.943051 151.42653 166.790577c67.345202 29.287209 159.861375 44.072474 190.60566-10.179289-22.515858-52.908016-77.233075-105.095589-151.114878-137.216z" fill="#69A169" p-id="2904"></path><path d="M222.240379 479.762213c-57.441138-24.968601-114.477534-33.994372-157.149596-27.870608-1.914435 0.987573-2.938435 1.554213-2.938435 1.554213s62.047115 95.665075 136.936727 128.234751c57.955162 25.195257 135.8763 41.769486 157.882182 5.330467-22.2123-39.001043-71.165976-79.60487-134.730878-107.248823z" fill="#87CF87" fill-opacity=".48" p-id="2905"></path><path d="M321.97717 539.971794s-61.869028-30.635004-125.644395-17.335146c0 0 21.111399-21.499953 96.486703-23.171541 0 0 61.524996 43.267036 29.157692 40.506687zM267.86302 481.899257s-30.906182-25.478577-39.013186-62.403289c0 0-6.370656 16.282814 10.644743 56.583083 0 0 37.515636 22.301344 28.368443 5.820206z" fill="#69A169" p-id="2906"></path><path d="M801.152506 106.532427c148.532617 73.424443 204.706909 240.534767 125.498688 373.245976-79.216316 132.719304-263.839874 180.794688-412.356301 107.36215-148.536664-73.416348 25.944032-119.585391 105.164396-252.292553 79.204174-132.723352 33.172743-301.735968 181.693217-228.315573z" fill="#E8C98B" p-id="2907"></path><path d="M699.343431 56.158103c134.216854 14.360285 241.668047 133.957818 239.992411 267.142577-1.695874 133.156427-111.846704 229.485281-246.0757 215.133091-134.212806-14.364332-30.396206-106.002213-28.720569-239.17483 1.675636-133.172617-99.404901-257.457075 34.803858-243.100838z" fill="#FFE69C" p-id="2908"></path><path d="M805.657296 127.320032c49.431273 5.953771 87.756395 86.635257 85.599115 180.19162-2.161328 93.532079-43.975336 164.56449-93.414703 158.598577-49.431273-5.96996-10.021439-73.501344-7.852016-167.057707 2.145138-93.548269-33.779858-177.698403 15.667604-171.73249z" fill="#E8C98B" opacity=".78" p-id="2909"></path><path d="M454.020553 91.067194C547.653818 1.303273 702.075447-3.63864 798.926419 80.033897c96.830735 83.66849 99.433233 224.256 5.808063 314.015874C711.09717 483.809644 708.00898 350.79083 611.149913 267.130435c-96.83883-83.66849-250.75453-86.307415-157.12936-176.063241z" fill="#FFE69C" p-id="2910"></path><path d="M542.521676 67.596142c59.392-56.927115 163.985708-54.308427 233.646039 5.852585 69.607715 60.165059 77.929233 155.097549 18.545328 212.020617-59.383905 56.951399-67.681138-32.89347-137.337422-93.066625-69.632-60.152917-174.258087-67.859225-114.853945-124.806577z" fill="#FFFFFF" opacity=".36" p-id="2911"></path><path d="M583.250972 65.054356c41.660206-40.417644 121.313644-34.09151 177.868396 14.117438 56.566893 48.217043 68.656569 120.079178 26.984221 160.50087-41.688538 40.417644-53.438229-27.603478-110.005123-75.828617-56.562846-48.212996-136.536032-58.355858-94.847494-98.789691z" fill="#FFFFFF" fill-opacity=".36" p-id="2912"></path><path d="M716.010751 578.442625c-85.081043 104.808221-243.881992 129.894198-354.712791 56.024537-110.814609-73.865613-131.703399-218.69483-46.63045-323.503051 85.068901-104.804174 105.476047 32.156838 216.306846 106.018403 110.822704 73.865613 270.105296 56.655937 185.036395 161.460111z" fill="#E8C98B" p-id="2913"></path><path d="M722.664727 538.9397c-85.076996 104.808221-243.877945 129.878008-354.716838 56.016442-110.810561-73.865613-131.699352-218.690783-46.63045-323.499004 85.068901-104.800126 105.480095 32.160885 216.302798 106.018404 110.826751 73.861565 270.109344 56.659984 185.04449 161.464158z" fill="#FFE69C" p-id="2914"></path><path d="M650.203573 538.186877c-61.225486 75.423874-184.166198 87.719968-274.626277 27.449676-90.403415-60.278387-114.084933-170.287557-52.863494-245.715478 61.221439-75.448158 84.133945 28.607241 174.573787 88.881581 90.435794 60.278387 214.161708 53.932016 152.915984 129.384221z" fill="#E8C98B" p-id="2915"></path><path d="M576.289391 544.990609c-32.630387 40.211225-110.13464 38.782482-173.116711-3.185328-62.949692-41.96781-87.566166-108.576379-54.927684-148.783558 32.634435-40.215273 56.230957 22.839652 119.196838 64.815558 62.969929 41.959715 141.477945 46.94615 108.847557 87.153328z" fill="#A13A3A" fill-opacity=".8" p-id="2916"></path><path d="M490.447431 575.115636c-11.664696 14.372427-46.25404 9.284806-77.253312-11.385423-30.983083-20.65404-46.66283-49.067004-34.998135-63.423241 11.656601-14.380522 26.644237 12.510609 57.631368 33.168696 31.00332 20.666182 66.296917 27.263494 54.620079 41.639968z" fill="#FFFFFF" fill-opacity=".8" p-id="2917"></path><path d="M897.882055 371.266783c46.197375 142.044585-40.579542 290.65815-193.839557 331.937897-153.243826 41.271652-314.93464-40.401455-361.136063-182.437945-46.197375-142.032443 107.163826-65.353866 260.407652-106.63766 153.255968-41.279747 248.358451-184.906877 294.567968-42.862292z" fill="#FFE69C" p-id="2918"></path><path d="M902.662071 387.92196c20.658087 116.930277-47.864917 229.481233-164.68996 260.71121-127.805723 34.144126-264.969107-14.000063-306.341945-170.064949-5.929486-22.358008-9.159336-38.126798-7.022292-49.900774-68.296348 0.943051-108.442814 9.863589-81.697392 92.099288 46.201423 142.03649 207.88819 223.709597 361.136063 182.437945 147.273866-39.672917 233.136063-178.455273 198.615526-315.28272z" fill="#E8C98B" p-id="2919"></path><path d="M879.296253 336.373881c39.891478 85.040569-12.87083 188.626466-117.816664 231.383526-104.953929 42.716585-222.390134 8.378182-262.28566-76.666435-39.903621-85.076996 71.453344-53.025391 176.41132-95.741976 104.953929-42.74087 163.787383-144.0683 203.691004-58.975115z" fill="#FFFFFF" fill-opacity=".25" p-id="2920"></path><path d="M335.479399 490.115542s123.118798 54.624126 160.549439 0c0 0-175.039241-74.003225-175.039241-37.005661 0 37.00566 14.489802 37.00566 14.489802 37.005661z" fill="#E8C98B" p-id="2921"></path><path d="M440.583083 514.003478c-129.610877-28.186308-208.641012-150.107067-176.528696-272.299004 32.112316-122.212174 163.208601-198.425296 292.811384-170.238988 129.602783 28.182261 5.868775 100.801265-26.247589 223.013439-32.108269 122.195984 39.563636 247.714909-90.035099 219.524553z" fill="#FFE69C" p-id="2922"></path><path d="M606.446798 93.216379c7.815589 40.190988-75.006988 89.917723-113.530434 174.496886-52.369708 114.983462-3.035573 250.843573-125.96819 201.072316a246.913518 246.913518 0 0 1-59.331289-34.164364c32.152791 38.559874 77.98185 67.430198 132.970245 79.386309 129.598735 28.190356 57.930877-97.328569 90.035099-219.528601 25.814514-98.251383 110.810561-164.434972 75.824569-201.262546z" fill="#E8C98B" fill-opacity=".34" p-id="2923"></path><path d="M368.644047 443.448664C275.982166 395.697075 246.464253 277.107352 302.703304 178.572648c56.251194-98.506372 176.965818-139.664696 269.619605-91.909059 92.682119 47.755636-21.439241 87.189755-77.686387 185.720411-56.235004 98.510419-33.310356 218.83649-125.992475 171.064664z" fill="#FFFFFF" fill-opacity=".36" p-id="2924"></path><path d="M331.525059 368.753328c-52.244237-27.053028-61.17287-107.240727-19.945739-179.082624 41.231178-71.82166 117.007178-108.135209 169.235225-81.074087 52.248285 27.069217-19.411478 61.751652-60.642656 133.589502-41.231178 71.845945-36.398545 153.628332-88.64683 126.567209z" fill="#FFFFFF" fill-opacity=".36" p-id="2925"></path><path d="M653.405091 66.632854c15.465233-14.283383 54.00487-2.784632 86.080759 25.672854 32.071842 28.457486 45.533597 63.115636 30.076458 77.394972-15.469281 14.287431-28.37249-18.553423-60.444332-47.014957-32.071842-28.461534-71.182166-41.769486-55.712885-56.052869z" fill="#FFFFFF" fill-opacity=".23" p-id="2926"></path><path d="M782.425043 415.630672c13.320095 27.676332-16.173534 66.964743-65.871936 87.7483-49.702451 20.771415-100.801265 15.177866-114.113265-12.506561-13.32819-27.688474 35.151937-22.552285 84.846292-43.3237 49.698403-20.791652 81.810719-59.614609 95.138909-31.918039z" fill="#FFFFFF" fill-opacity=".36" p-id="2927"></path><path d="M879.616 341.404838c47.354941 101.35981-8.851731 221.811352-125.51083 269.04487-116.663146 47.176854-249.669818 3.237945-297.032854-98.129961-47.379225-101.400285 78.72253-60.331004 195.385676-107.511905 116.671241-47.221375 179.774735-164.827573 227.158008-63.403004z" fill="#FFFFFF" fill-opacity=".25" p-id="2928"></path><path d="M411.403736 512.412696a168.340743 205.913043 70.254 1 0 387.61055-139.13586 168.340743 205.913043 70.254 1 0-387.61055 139.13586Z" fill="#E8C98B" p-id="2929"></path><path d="M318.144253 293.58849c-17.99083-8.989344-13.307953-50.637407 10.462609-93.001865 23.762466-42.356364 57.619225-69.409391 75.606008-60.416 17.99083 9.005534-14.064822 34.771478-37.831336 77.131889-23.766514 42.364458-30.246451 85.279368-48.237281 76.285976z" fill="#FFFFFF" fill-opacity=".23" p-id="2930"></path><path d="M812.376032 324.709186c26.417581 110.911747-47.52898 225.275953-165.183747 255.429312-117.63453 30.13717-234.415051-35.317881-260.83668-146.225581-26.417581-110.899605 84.39298-49.415083 202.02751-79.580585 117.650719-30.157407 197.579383-140.522751 223.992917-29.623146z" fill="#FFE69C" p-id="2931"></path><path d="M786.941976 400.137107c16.760411 70.344348-38.236079 144.958735-122.843573 166.657012-84.583209 21.653755-166.746055-17.788458-183.506466-88.128759-16.772553-70.348395 61.209296-33.322498 145.824885-55.01268 84.583209-21.690182 143.776885-93.876111 160.525154-23.515573z" fill="#FFFFFF" fill-opacity=".36" p-id="2932"></path><path d="M768.449265 430.893534c12.154435 49.568885-33.277976 104.310387-101.448854 122.244553-68.18302 17.922024-133.310229-7.738688-145.456569-57.319715-12.138245-49.585075 49.670071-25.531194 117.857138-43.46536 68.174925-17.926071 116.901945-71.064791 129.048285-21.459478z" fill="#FFFFFF" fill-opacity=".36" p-id="2933"></path><path d="M647.192285 580.138498a236.26068 236.26068 0 0 0 34.002466-11.559462c-121.908617 13.684364-189.59785-12.041107-204.298119-106.52838-7.252996-46.602119 31.622577-33.876996 153.591906-47.593739 65.487431-7.370372 127.931194-75.112221 173.153138-115.141312-32.848949-65.689802-108.531858 27.66419-215.262609 55.020774-117.63453 30.165502-228.445091-31.31902-202.02751 79.580585 26.429723 110.903652 143.206198 176.358704 260.840728 146.221534z" fill="#E8C98B" fill-opacity=".34" p-id="2934"></path><path d="M731.714783 481.020964c3.917913 18.055589-24.984791 40.506688-64.568664 50.127431-39.571731 9.624791-74.841043 2.78868-78.763004-15.258814-3.917913-18.055589 29.582672-11.693028 69.150355-21.321866 39.583874-9.624791 70.259352-31.606387 74.181313-13.546751z" fill="#FFFFFF" fill-opacity=".39" p-id="2935"></path><path d="M372.70262 273.390767a164.973281 164.005945 11.392 1 0 323.446206 65.171199 164.973281 164.005945 11.392 1 0-323.446206-65.171199Z" fill="#E8C98B" p-id="2936"></path><path d="M490.624146 321.761183a164.969233 164.001897 11.392 1 0 323.438271 65.169599 164.969233 164.001897 11.392 1 0-323.438271-65.169599Z" fill="#E8C98B" p-id="2937"></path><path d="M700.011257 167.753866c88.598261 31.561866 141.004395 127.562877 117.055747 214.42479-23.952696 86.841676-115.181787 131.662925-203.784095 100.101059-88.582071-31.561866-2.464885-74.359399 21.479716-161.217264 23.948648-86.861913-23.345581-184.870451 65.248632-153.308585z" fill="#FFE69C" p-id="2938"></path><path d="M703.742988 179.5157c66.130972 23.560095 103.306625 102.238103 83.057328 175.747541-20.273581 73.473012-90.310324 113.955415-156.433201 90.407463-66.139067-23.560095-0.004047-62.188775 20.253343-135.698214 20.257391-73.489202-13.008443-154.02498 53.12253-130.45679z" fill="#FFFFFF" fill-opacity=".36" p-id="2939"></path><path d="M705.8517 208.859573c46.755921 16.355668 71.744759 77.828047 55.781691 137.288854-15.963067 59.460806-66.810941 94.422514-113.566861 78.062798-46.764016-16.371858 1.246609-49.698403 17.205628-109.163257 15.963067-59.460806-6.192569-122.552158 40.579542-106.188395z" fill="#FFFFFF" fill-opacity=".36" p-id="2940"></path><path d="M709.761518 261.569265c16.796838 6.326134 22.382292 39.122466 12.474182 73.238261-9.916206 34.119842-31.574008 56.651889-48.362751 50.329802-16.80898-6.342324 3.666972-27.793708 13.575083-61.913549 9.912158-34.119842 5.508553-67.984696 22.313486-61.654514z" fill="#FFFFFF" fill-opacity=".32" p-id="2941"></path><path d="M486.10049 448.293439c-93.370182-18.160822-151.952696-104.310387-130.865581-192.422957 21.083067-88.124711 113.866372-144.837312 207.228459-126.672442 93.35804 18.14868 5.799968 72.169739-15.291194 160.290403-21.087115 88.120664 32.286356 176.969866-61.071684 158.804996z" fill="#FFE69C" p-id="2942"></path><path d="M598.351937 144.007589c6.233043 28.68819-52.34947 65.649328-78.633486 126.895051-35.730719 83.263747 1.788964 179.875921-87.129044 146.144633a176.844395 176.844395 0 0 1-43.076806-23.564143c23.661281 27.146119 56.971636 47.104 96.583842 54.810309 93.35804 18.16487 39.984569-70.684332 61.071683-158.804996 16.962783-70.838134 76.848569-119.63396 51.183811-145.480854z" fill="#E8C98B" fill-opacity=".34" p-id="2943"></path><path d="M421.033992 392.657455c-58.942735-28.611289-76.994277-106.888601-40.324553-174.82068 36.681866-67.911842 114.198261-99.781312 173.136948-71.161929 58.954877 28.623431-14.336 59.100585-51.005723 127.028616-36.669723 67.915889-22.847747 147.58147-81.806672 118.953993z" fill="#FFFFFF" fill-opacity=".36" p-id="2944"></path><path d="M411.935368 342.663589c-35.912854-17.590134-42.86634-72.534008-15.558325-122.705961 27.324206-50.163858 78.58087-76.581439 114.477534-58.991304 35.920949 17.598229-12.559178 42.821818-39.875288 92.989723-27.320158 50.176-23.131067 106.297676-59.043921 88.707542z" fill="#FFFFFF" fill-opacity=".36" p-id="2945"></path><path d="M407.645091 294.163225c-15.610941-7.45132-14.109344-39.976474 3.351273-72.635193 17.460617-32.650625 44.270798-53.094198 59.877691-45.630736 15.610941 7.455368-9.766451 26.927557-27.227067 59.58223-17.460617 32.662767-20.386909 66.13502-36.001897 58.683699z" fill="#FFFFFF" fill-opacity=".33" p-id="2946"></path><path d="M510.712917 357.088632c-55.712885-46.298561-63.301818-125.280126-16.970877-176.403225 46.339036-51.135241 129.060427-55.057202 184.757122-8.75864 55.716933 46.294514-22.532047 50.321708-68.87513 101.456948-46.334988 51.135241-43.206324 130.007526-98.911115 83.704917z" fill="#E8C98B" p-id="2947"></path><path d="M490.641708 324.158735c-42.077091-58.96702-29.287209-137.276711 28.538434-174.909723 57.841834-37.641107 138.830925-20.35453 180.895874 38.61249 42.073043 58.962972-34.621723 42.918957-92.45951 80.556016-57.829692 37.637059-74.905802 114.70419-116.974798 55.741217z" fill="#FFE69C" p-id="2948"></path><path d="M712.145455 214.849771c-11.587794 19.116016-63.334198 8.839589-109.956554 28.906751-63.374672 27.279684-93.281138 100.331763-124.737771 35.087178a134.844206 134.844206 0 0 1-11.454229-35.593107c-1.14947 27.401107 6.795636 55.886925 24.640759 80.904095 42.073043 58.962972 59.145107-18.104158 116.974798-55.741218 46.500933-30.254545 105.160348-25.826656 104.532997-53.563699z" fill="#E8C98B" fill-opacity=".34" p-id="2949"></path><path d="M483.850119 259.314846c-17.573945-46.707352 13.477945-99.417043 69.336537-117.731668 55.86264-18.302482 115.392253 4.715257 132.970245 51.418561 17.573945 46.715447-38.891763 25.14264-94.762498 43.457265-55.854545 18.310577-89.97034 69.575336-107.544284 22.855842z" fill="#FFFFFF" fill-opacity=".36" p-id="2950"></path><path d="M505.030324 226.915162c-10.628553-28.538435 14.327905-62.544949 55.704791-75.954087 41.393075-13.396996 83.559209-1.137328 94.183715 27.397059 10.616411 28.550577-29.392443 17.080158-70.773375 30.489297-41.393075 13.409138-68.494672 46.614261-79.115131 18.067731z" fill="#FFFFFF" fill-opacity=".36" p-id="2951"></path><path d="M528.072348 197.870798c-4.719304-12.300142 13.158198-29.481486 39.91981-38.377739 26.761613-8.888158 52.288759-6.131858 57.008063 6.168285 4.711209 12.30419-19.508617 9.762403-46.274276 18.650561-26.773755 8.9003-45.930245 25.859036-50.653597 13.558893z" fill="#FFFFFF" fill-opacity=".81" p-id="2952"></path></svg>