<?xml version="1.0" standalone="no"?><!DOCTYPE svg PUBLIC "-//W3C//DTD SVG 1.1//EN" "http://www.w3.org/Graphics/SVG/1.1/DTD/svg11.dtd"><svg t="1721421830846" class="icon" viewBox="0 0 1024 1024" version="1.1" xmlns="http://www.w3.org/2000/svg" p-id="3106" xmlns:xlink="http://www.w3.org/1999/xlink" width="200" height="200"><path d="M667.118722 957.694035c-5.280781 34.507029-38.167186 62.738899-73.076198 62.738899h-211.569767c-34.909012 0-67.791185-28.23187-73.076197-62.738899l-44.264627-289.198946c-5.280781-34.507029 18.956651-62.738899 53.865663-62.738899h338.511627c34.909012 0 59.150675 28.23187 53.865663 62.738899l-44.256164 289.198946z" fill="#E4BC96" p-id="3107"></path><path d="M657.513454 605.75619H318.997596c-26.374287 0-46.638439 16.13431-52.702029 38.894986-1.586773 10.096109-1.599467 21.008878 0.203107 32.776389 0 0 169.568937 38.344905 330.36196 38.344904 0 0 76.173579-19.739459 59.243766 59.243766-16.925581 78.9663 23.171121 237.762104-295.689907 241.621137 7.091819 2.411895 14.513686 3.795562 22.054033 3.795562h211.573998c34.909012 0 67.791185-28.23187 73.076198-62.738899l44.264627-289.198946c2.035301-13.303507-0.351206-25.646487-6.008582-35.827224a401.313997 401.313997 0 0 0-43.799173-26.708568c-1.345584-0.084628-2.682705-0.203107-4.06214-0.203107z" fill="#D5AE86" p-id="3108"></path><path d="M360.414493 1015.714928c130.2762 0 199.776868-89.295136 233.628031-159.815571 33.851163-70.520435-33.851163-95.913038-33.851162-95.913038-134.884189-14.107472-267.077211-74.214443-267.077212-74.214443-2.589614-29.056992 3.258174-55.837493 15.651932-80.015686-29.251636 4.94227-48.381774 30.808789-43.634149 61.816455l44.264627 289.198946c4.142536 27.05131 25.269893 50.184349 51.017933 58.943337z" fill="#FFFFFF" fill-opacity=".46" p-id="3109"></path><path d="M735.087625 638.198298c0 27.152864-28.561919 49.367689-63.47093 49.36769H304.898586c-34.909012 0-63.47093-22.214826-63.47093-49.36769s28.561919-49.367689 63.47093-49.367689h366.72234c34.90478 0 63.466699 22.214826 63.466699 49.367689z" fill="#E4BC96" p-id="3110"></path><path d="M342.981144 828.611089s-19.747922 124.123751 25.388373 124.123751 110.016279-36.20805 110.016278-107.19817-131.173256-78.90706-135.404651-16.925581z" fill="#FFFFFF" fill-opacity=".45" p-id="3111"></path><path d="M140.276151 400.381186a371.106066 261.589091 0 1 0 742.212131 0 371.106066 261.589091 0 1 0-742.212131 0Z" fill="#E8E3C7" p-id="3112"></path><path d="M519.591123 219.98834s59.493419-108.065606-184.738489-180.782135c0 0-69.602222 147.210244 28.451902 209.991457 98.04143 62.806601 146.943666-10.777364 156.286587-29.209322z" fill="#85CC85" p-id="3113"></path><path d="M519.591123 219.98834c-1.472526 2.919663-3.935198 7.206066-7.438793 12.110253-0.004231-0.080397-22.536412-116.299901-101.10496-165.079426 154.429004 69.581065 108.543753 152.969173 108.543753 152.969173z" fill="#94E394" p-id="3114"></path><path d="M454.630742 272.114899c-0.110016 0.021157-0.232727 0.055008-0.355437 0.088859a228.918488 228.918488 0 0 1-12.419146 1.679864c-21.4701 1.375203-47.556652-4.828022-78.547391-24.681729-98.054124-62.781213-28.451902-209.991457-28.451903-209.991456 7.032579 2.103003 13.845126 4.239858 20.420714 6.402101-0.016926 0.253884-10.79429 183.49869 99.353163 226.502361z" fill="#6EA86E" p-id="3115"></path><path d="M515.190472 227.613314s-78.2385-20.001806-82.596837-66.597931c-4.358337-46.5792-14.111703-63.026634-14.111703-63.026634s1.112857 36.728512-6.837935 52.43122c0 0-53.28173-87.797222-67.042228-94.76633 0 0 34.138898 54.263414 42.203937 78.898597 0 0-15.076462 0.588164-45.771003-23.175352 0 0 87.915701 89.955234 121.364881 99.848236 0 0-37.959848 8.120048-53.67525 0.173487 0 0 43.507207 26.124635 74.028261 16.108922 0 0 10.40077 10.828141 29.412429 4.591064l3.025448-4.485279z" fill="#5C8C5C" p-id="3116"></path><path d="M457.948156 495.100971a221.530472 201.452501 0 1 0 443.060943 0 221.530472 201.452501 0 1 0-443.060943 0Z" fill="#E8E3C7" p-id="3117"></path><path d="M765.181309 526.324437s64.071788-63.957541 165.096352 93.441903c0 0-89.620953 79.059391-153.861997 22.71413-64.249507-56.336798-22.329073-105.806041-11.234355-116.156033z" fill="#85CC85" p-id="3118"></path><path d="M765.181309 526.324437a70.410418 70.410418 0 0 0-7.028348 7.713834c0.055008-0.008463 86.599737-7.789999 136.995656 37.667881-80.510759-94.707091-129.967308-45.381715-129.967308-45.381715z" fill="#94E394" p-id="3119"></path><path d="M741.654751 582.758557a1.8195 1.8195 0 0 1 0.012694 0.266577c0.105785 0.892824 0.499305 4.142536 1.341352 9.0975 3.414736 15.419205 13.091937 32.543662 33.406867 50.353605 64.245275 56.341029 153.861997-22.71413 153.861997-22.71413a542.198305 542.198305 0 0 0-8.678592-13.096169c-0.173487 0.067702-127.18305 44.996658-179.944318-23.907383z" fill="#6EA86E" p-id="3120"></path><path d="M760.700261 530.987435s30.047138 51.085636 63.784054 44.675072c33.736915-6.410564 47.315463-2.885812 47.315462-2.885812s-26.128866 6.694067-35.577572 15.49537c0 0 72.758843 19.688683 80.476908 27.977986 0 0-45.216691-13.028466-64.22835-13.692796 0 0 2.657316 10.747744 25.663413 27.559078 0 0-81.340113-43.663769-95.121767-65.239653 0 0 2.009913 28.426514 10.819678 37.883682 0 0-27.288269-25.354521-26.446221-48.919161 0 0-9.753366-5.128451-9.228673-19.807162l2.543068-3.046604z" fill="#5C8C5C" p-id="3121"></path><path d="M254.604221 499.205424S167.090503 422.532541 35.968024 637.20392c0 0 122.11807 93.729638 206.66558 14.052464 84.555973-79.651786 27.102087-139.724906 11.970617-152.05096z" fill="#85CC85" p-id="3122"></path><path d="M254.604221 499.205424a84.627907 84.627907 0 0 1 9.609499 9.317533c-0.076165-0.012694-116.177191-1.430212-182.470461 62.700816 105.31943-131.160561 172.860963-72.018349 172.860962-72.018349z" fill="#94E394" p-id="3123"></path><path d="M287.604874 570.165924a4.510667 4.510667 0 0 0-0.004232 0.342743 215.36956 215.36956 0 0 1-1.561385 11.957923c-4.150999 20.374169-16.667466 43.612992-43.401422 68.789794C158.086094 730.933559 35.968024 637.199689 35.968024 637.199689c3.787099-6.182069 7.548809-12.144105 11.268206-17.886108 0.24119 0.063471 171.532304 45.682144 240.368644-49.147657z" fill="#6EA86E" p-id="3124"></path><path d="M260.72705 504.807792s-38.87806 69.407578-84.238618 64.452613c-45.352095-4.946501-63.445542 1.002841-63.445542 1.002841s35.167127 6.080515 48.055957 16.561681c0 0-96.924342 32.890636-107.037376 44.433883 0 0 60.208524-21.461637 85.656135-24.237433 0 0-3.270869 14.234414-33.643824 38.378756 0 0 107.773639-64.913836 125.672442-94.326265 0 0-1.933748 37.130494-13.481226 50.311291 0 0 35.869538-35.683357 34.113509-66.212874 0 0 12.926913-7.6419 11.835213-26.662023l-3.48667-3.70247z" fill="#5C8C5C" p-id="3125"></path><path d="M440.658675 399.077916s73.050809-40.485991-40.701792-170.195183c0 0-92.955293 59.273386-59.391865 130.602017 33.546502 71.328631 88.097651 46.786538 100.093657 39.593166z" fill="#85CC85" p-id="3126"></path><path d="M440.658675 399.077916c-1.891434 1.142477-4.849179 2.712324-8.627816 4.256784 0.025388-0.046545 29.010446-74.772987 1.565617-131.046314 63.415922 95.536444 7.062199 126.78953 7.062199 126.78953z" fill="#94E394" p-id="3127"></path><path d="M384.643463 405.530794l-0.236958-0.076165c-0.774345-0.321586-3.554372-1.497914-7.722297-3.51629-12.799971-6.952183-25.515314-19.908715-36.11919-42.45782C307.00159 288.16035 399.956883 228.882733 399.956883 228.882733c3.270869 3.740553 6.406333 7.421867 9.393697 11.027016-0.101553 0.143867-72.331472 101.274216-24.707117 165.621045z" fill="#6EA86E" p-id="3128"></path><path d="M435.394819 401.857943s-37.629799-39.6651-23.327683-67.939284c14.289422-28.265721 14.627934-41.205328 14.627934-41.205328s-12.601095 21.448943-22.815684 27.580235c0 0 1.112857-69.521825-4.261015-78.471226 0 0 0.004231 43.401422-4.252552 60.428557 0 0-8.852079-5.103063-17.877646-29.784792 0 0 17.958042 83.240009 33.559197 100.969555 0 0-24.681729-9.029798-30.821484-19.248617 0 0 15.512295 30.652228 36.618496 35.911852 0 0 2.052227 9.956473 15.199172 13.235805l3.351265-1.476757z" fill="#5C8C5C" p-id="3129"></path><path d="M543.892027 413.426578s-48.170205-80.646164 135.730468-142.52609c0 0 56.912267 110.151684-16.015831 160.564528-72.928099 50.417075-112.115051-4.269478-119.714637-18.038438z" fill="#85CC85" p-id="3130"></path><path d="M543.892027 413.426578c1.189022 2.174937 3.186241 5.369641 5.978961 9.012872 0.008463-0.05924 14.035538-89.104723 72.517654-128.333989-115.652497 57.089986-78.496615 119.321117-78.496615 119.321117z" fill="#94E394" p-id="3131"></path><path d="M594.723779 451.352574a1.565616 1.565616 0 0 1 0.270809 0.063471 189.989651 189.989651 0 0 0 9.486789 0.93937c16.383963 0.461222 36.059951-4.950733 59.121055-20.886168 72.928099-50.412844 16.015831-160.564528 16.015832-160.564527-5.293476 1.785649-10.426158 3.596686-15.364197 5.416186 0.016926 0.198876 13.134251 139.348311-69.530288 175.031668z" fill="#6EA86E" p-id="3132"></path><path d="M547.437936 419.109342s58.998345-17.323333 61.07596-52.896673c2.06069-35.569109 9.042492-48.335229 9.042492-48.335229s0.135405 27.973755 6.613671 39.707413c0 0 38.188343-68.239713 48.487559-73.914013 0 0-24.53363 42.208169-30.013287 61.173282 0 0 11.488238 0.042314 34.215063-18.86356 0 0-64.486465 70.816632-89.680193 79.245572 0 0 29.107769 5.158071 40.841428-1.311733 0 0-32.399794 21.051192-55.900964 14.238645 0 0-7.624974 8.52203-22.252908 4.290635l-2.428821-3.334339z" fill="#5C8C5C" p-id="3133"></path><path d="M256.127524 350.861166s-1.502145-89.895994-182.3139-47.450867c0 0 9.283681 118.314045 94.03853 122.524283 84.750617 4.218701 89.037021-60.030806 88.27537-75.073416z" fill="#85CC85" p-id="3134"></path><path d="M256.127524 350.861166c0.12271 2.378044 0.118479 5.983193-0.317355 10.349993-0.033851-0.042314-56.370649-65.400446-123.730231-67.803879C254.951196 281.500134 256.127524 350.861166 256.127524 350.861166z" fill="#94E394" p-id="3135"></path><path d="M233.912698 407.358757l-0.194644 0.186181c-0.689717 0.571238-3.220092 2.623465-7.244149 5.560054-13.083474 8.640509-31.828556 14.166712-58.621751 12.82959-84.754849-4.206007-94.03853-122.524284-94.03853-122.524283 5.208848-1.218642 10.294985-2.331499 15.233023-3.347034 0.084628 0.169256 59.62036 119.976984 144.866051 107.295492z" fill="#6EA86E" p-id="3136"></path><path d="M256.106367 357.275962s-56.730317 15.681551-76.363992-12.216039c-19.625212-27.880664-31.748159-34.75245-31.748159-34.75245s14.005919 22.828378 14.661785 35.641043c0 0-65.493537-36.241901-76.719429-35.666431 0 0 41.24341 21.960942 55.266254 34.625508 0 0-9.321764 5.826631-37.346295 1.916822 0 0 88.18651 25.062555 112.927479 19.206304 0 0-21.072349 18.884717-33.889246 19.544815 0 0 36.978164 0.774345 52.655484-16.61669 0 0 10.502323 3.084687 20.272615-7.747685l0.283504-3.935197z" fill="#5C8C5C" p-id="3137"></path><path d="M773.690645 304.705106c9.06788 18.385413 31.409648 33.639593 46.443795 27.072467 15.034148-6.567126 24.135879-18.161149 8.014263-50.852909-13.4643-27.305194-51.369139-74.121352-66.399056-67.549995-15.04261 6.562894-1.523302 64.029474 11.940998 91.330437z" fill="#FFF9DB" p-id="3138"></path><path d="M780.253539 293.813494c14.369819 29.14162 26.894749 30.457584 38.949994 25.197959 12.046783-5.259624 19.058205-15.114544 4.688386-44.256163-12.004469-24.330523-44.696229-66.547155-56.73878-61.287531-12.042551 5.259624 1.100163 56.002517 13.1004 80.345735z" fill="#FFFFED" fill-opacity=".74" p-id="3139"></path><path d="M779.627293 275.9697c11.484007 23.2896 20.441871 24.804439 28.790413 21.156977 8.335849-3.639 12.884599-11.052405 1.404824-34.342005-9.588342-19.447493-34.659359-53.637167-42.99944-49.993936-8.34008 3.643231 3.211629 43.735702 12.804203 63.178964z" fill="#FFFFFF" p-id="3140"></path><path d="M701.536892 286.730138c-4.984584 21.787455 1.84912 45.030509 18.990502 49.333839 17.145614 4.30756 32.983727 1.112857 43.100993-33.74961 8.445865-29.103537 10.67581-88.182279-6.465572-92.485608-17.154077-4.30756-48.881079 47.408553-55.625923 76.901379z" fill="#FFF9DB" p-id="3141"></path><path d="M714.781159 282.498743c-9.021335 31.071136 0.401983 39.821662 14.154017 43.278712 13.747803 3.448587 26.623939 0.296198 35.645275-30.774939 7.527652-25.942685 10.756207-78.297739-2.991597-81.746326-13.743572-3.45705-39.275812 43.295637-46.807695 69.242553z" fill="#FFFFED" fill-opacity=".74" p-id="3142"></path><path d="M727.0649 268.530907c-7.206066 24.834059-0.88013 31.523895 8.640509 33.914634 9.512177 2.386507 18.605445-0.431602 25.815743-25.26143 6.017044-20.729606 9.787217-62.264982 0.275041-64.65149-9.512177-2.390738-28.722712 35.264449-34.731293 55.998286z" fill="#FFFFFF" p-id="3143"></path><path d="M668.768966 235.746056c-21.262762 9.046723-30.267171 34.676285-21.114663 46.985414 9.144045 12.31336 25.016009 19.218998 56.641458-1.497914 26.399676-17.289481 67.025302-61.190208 57.872794-73.5078-9.152508-12.31336-64.025243 15.52499-93.399589 28.0203z" fill="#FFF9DB" p-id="3144"></path><path d="M681.128872 239.60932c-28.185324 18.461578-27.216335 30.580294-19.350171 41.163014 7.861933 10.578488 19.629443 15.61808 47.814767-2.839266 23.539252-15.419205 62.116884-53.438292 54.259183-64.016781-7.861933-10.578488-59.176064 10.278059-82.723779 25.693033z" fill="#FFFFED" fill-opacity=".74" p-id="3145"></path><path d="M699.933193 236.071873c-22.527949 14.754876-22.439089 23.513864-16.997515 30.83841 5.441574 7.320314 14.16248 10.43039 36.690429-4.324486 18.808552-12.317592 50.319753-41.780798 44.878179-49.096881-5.441574-7.320314-45.766772 10.261134-64.571093 22.582957z" fill="#FFFFFF" p-id="3146"></path><path d="M674.274011 182.003104c-38.344905-3.127001-46.659596 6.232845-47.865544 18.520817-1.197485 12.279509 5.174997 22.841072 43.498744 25.968073 32.010506 2.615002 94.114695-2.361119 95.31218-14.644859 1.201716-12.279509-58.947569-27.229029-90.94538-29.844031z" fill="#FFF9DB" p-id="3147"></path><path d="M681.226194 190.66477c-34.168517-2.792721-41.531145 5.043823-42.54668 15.368428-1.002841 10.320373 4.718006 19.22746 38.894986 22.01595 28.519605 2.327267 83.832405-1.599467 84.847939-11.915609 1.002841-10.324605-52.663946-23.145733-81.196245-25.468769z" fill="#FFFFED" fill-opacity=".74" p-id="3148"></path><path d="M698.130618 197.841216c-27.305194-2.225714-33.093743 3.139695-33.791923 10.282291-0.69818 7.142595 3.964817 13.362746 31.270012 15.588461 22.798758 1.861814 66.906823-0.376594 67.600772-7.514959 0.693949-7.142595-42.280102-16.493979-65.078861-18.355793z" fill="#FFFFFF" p-id="3149"></path><path d="M719.846139 128.171292c-27.11055-25.50262-42.093921-21.245836-54.16186-9.969167-12.072171 11.272437-16.667466 25.299513 10.443084 50.802132 22.625271 21.296613 75.644655 52.824739 87.716825 41.552302 12.076402-11.272437-21.368546-61.084423-43.998049-82.385267z" fill="#FFF9DB" p-id="3150"></path><path d="M717.430012 140.696222c-24.165499-22.735287-36.631189-19.769079-46.299927-10.73505-9.668738 9.029798-12.880367 20.708449 11.2809 43.443736 20.179524 18.977808 66.551386 47.912089 76.215893 38.882292 9.67297-9.034029-21.021572-52.608938-41.196866-71.590978z" fill="#FFFFED" fill-opacity=".74" p-id="3151"></path><path d="M724.399121 157.355226c-19.31632-18.169612-28.439208-16.582838-35.129045-10.328836-6.689836 6.249771-8.420477 14.792958 10.895843 32.958338 16.117385 15.165321 52.333898 39.068473 59.015271 32.822934 6.698299-6.249771-18.664685-40.282884-34.782069-55.452436z" fill="#FFFFFF" p-id="3152"></path><path d="M781.853007 129.935784c-2.932357-32.911793-14.115935-38.344905-27.233261-37.261667-13.104631 1.079006-23.171121 8.259684-20.242995 41.167245 2.445747 27.478681 17.738009 79.08901 30.846872 78.005773 13.108863-1.079006 19.070899-54.436901 16.629384-81.911351z" fill="#FFF9DB" p-id="3153"></path><path d="M781.497569 136.65524c-2.60654-29.327801-11.606717-34.253145-22.092115-33.385709-10.489629 0.867436-18.482735 7.184909-15.871964 36.516941 2.179169 24.491316 14.835272 70.583906 25.316439 69.712239 10.481166-0.871667 14.826809-48.343692 12.64764-72.843471z" fill="#FFFFED" fill-opacity=".74" p-id="3154"></path><path d="M776.986902 152.142147c-2.086078-23.44193-8.365469-27.449062-15.61808-26.843972-7.256843 0.596627-12.740731 5.568516-10.650422 29.010446 1.739103 19.570203 10.950851 56.472202 18.203462 55.871344 7.24838-0.60509 9.804143-38.467615 8.06504-58.037818z" fill="#FFFFFF" p-id="3155"></path><path d="M833.700294 159.382064c20.179524-26.865129 15.330345-37.739815 4.586832-44.810476-10.743513-7.062199-23.31922-7.650363-43.490281 19.214766-16.845185 22.422164-40.308272 70.998582-29.568991 78.060781 10.743513 7.070662 51.618792-30.038676 68.47244-52.465071z" fill="#FFF9DB" p-id="3156"></path><path d="M822.601344 160.194492c17.987662-23.949698 14.488298-33.110669 5.907028-38.742656-8.564344-5.64045-18.956651-5.623524-36.944313 18.321942-15.008759 19.993343-36.745437 62.747362-28.168399 68.387812 8.560113 5.631987 44.192693-27.982217 59.205684-47.967098z" fill="#FFFFED" fill-opacity=".74" p-id="3157"></path><path d="M808.633508 169.287761c14.365587-19.130138 12.31336-25.95961 6.376712-29.860957-5.928185-3.901347-13.489688-3.402042-27.863738 15.736559-11.996006 15.969286-30.102146 49.646962-24.173961 53.544077 5.928185 3.905578 33.656519-23.437699 45.660987-39.419679z" fill="#FFFFFF" p-id="3158"></path><path d="M853.143555 218.092675c33.584585-8.437402 36.821602-21.415092 32.877942-35.425242-3.94366-14.001687-13.574316-23.746591-47.15467-15.304957-28.032994 7.045273-78.386599 31.866638-74.455632 45.872557 3.947892 14.01015 60.690903 11.907146 88.73236 4.857642z" fill="#FFF9DB" p-id="3159"></path><path d="M843.78794 210.641187c29.937122-7.514958 33.119131-17.991893 29.987899-29.124694-3.131233-11.137033-11.412073-18.719693-41.344964-11.196272-24.986389 6.283622-70.181923 27.313657-67.046459 38.442227 3.131233 11.132801 53.400209 8.166593 78.403524 1.878739z" fill="#FFFFED" fill-opacity=".74" p-id="3160"></path><path d="M826.726954 208.2843c23.915846-6.017044 26.742419-13.40506 24.575944-21.118894-2.170706-7.705371-8.509336-12.799971-32.429414-6.787158-19.967955 5.018435-56.34526 20.856548-54.183017 28.557687 2.162243 7.70114 42.064301 4.3668 62.036487-0.651635z" fill="#FFFFFF" p-id="3161"></path><path d="M831.927339 265.717029c31.633912 13.840894 41.488831 8.928244 46.168755-0.406214 4.679923-9.325995 2.416127-19.540584-29.213554-33.385709-26.408138-11.551709-80.654627-26.061164-85.338781-16.730937-4.675692 9.330227 41.966979 38.96692 68.38358 50.52286z" fill="#FFF9DB" p-id="3162"></path><path d="M828.597231 256.822636c28.189556 12.34298 36.631189 8.657435 40.375974 1.189022 3.744785-7.45995 1.370972-15.867733-26.822815-28.20225-23.543484-10.303448-71.544432-23.928541-75.284986-16.472822-3.744785 7.464181 38.184112 33.186834 61.731827 43.48605z" fill="#FFFFED" fill-opacity=".74" p-id="3163"></path><path d="M816.266945 246.358395c22.523717 9.859151 28.942744 7.561503 31.536589 2.39497 2.581151-5.158071 0.372363-11.234355-22.159817-21.085043-18.808552-8.238527-56.844565-19.77331-59.429948-14.611008-2.593845 5.158071 31.23616 25.066786 50.053176 33.301081z" fill="#FFFFFF" p-id="3164"></path><path d="M720.396221 230.266399c11.001628 22.303685 39.246192 31.947035 63.090104 21.533571 23.848144-10.413464 34.261608-36.940081 23.264212-59.243766-11.005859-22.307916-39.246192-31.942803-63.094336-21.52934-23.852376 10.409233-34.257377 36.93585-23.25998 59.239535z" fill="#FFF9DB" p-id="3165"></path><path d="M728.524731 224.130876c9.105963 18.453115 32.475959 26.433527 52.211187 17.814174 19.722534-8.619352 28.341886-30.563369 19.240155-49.020715-9.0975-18.448884-32.471728-26.425064-52.202725-17.809943-19.726765 8.615121-28.337655 30.559137-19.248617 49.016484z" fill="#FFFFED" fill-opacity=".74" p-id="3166"></path><path d="M747.38406 211.047401c5.230005 10.629265 18.690073 15.22456 30.05137 10.261134 11.365528-4.963427 16.320492-17.602605 11.082024-28.227638-5.234236-10.625034-21.588579 18.821246-26.247345-2.530375-2.509217-11.475544-22.456015 5.15384-14.886049 20.496879z" fill="#EDD796" fill-opacity=".56" p-id="3167"></path><path d="M211.253576 774.978153c-11.88599 20.272615-38.793432 34.976714-55.575146 25.134488-16.781714-9.842226-26.336205-24.728274-5.200385-60.767068 17.644919-30.097915 64.964613-79.609472 81.742095-69.771478 16.781714 9.837994-3.317414 75.301912-20.966564 105.404058z" fill="#FFF9DB" p-id="3168"></path><path d="M204.559509 761.268432c-18.842403 32.128985-33.347627 31.896258-46.799233 24.013168-13.447374-7.887321-20.733837-20.429177-1.895665-52.566624 15.732328-26.827046 56.679541-71.671374 70.122684-63.796748 13.447374 7.887321-5.695458 65.514694-21.427786 92.350204z" fill="#FFFFED" fill-opacity=".74" p-id="3169"></path><path d="M206.696363 740.441504c-15.055305 25.671876-25.481463 26.175412-34.790532 20.716912-9.300607-5.454269-13.959373-14.79719 1.095931-40.469066 12.567244-21.436249 44.120759-57.961653 53.421366-52.507384 9.304838 5.450037-7.159521 50.814827-19.726765 72.259538z" fill="#FFFFFF" p-id="3170"></path><path d="M295.686839 764.162706c4.015594 26.255808-5.686995 52.537005-25.756504 55.143544-20.061045 2.60654-38.031781-3.385116-46.91348-45.699069-7.409173-35.336382-5.310401-104.930142 14.754876-107.540913 20.065277-2.60654 52.481996 62.552717 57.915108 98.096438z" fill="#FFF9DB" p-id="3171"></path><path d="M280.779633 757.316309c7.916941 37.714427-3.613612 46.634208-19.701377 48.73298-16.096228 2.090309-30.656459-3.440124-38.569168-41.163014-6.613671-31.490044-6.1863-93.34035 9.897233-95.430659 16.091996-2.090309 41.759641 56.362186 48.373312 87.860693z" fill="#FFFFED" fill-opacity=".74" p-id="3172"></path><path d="M267.759629 739.193242c6.321705 30.14446-1.489451 37.092412-12.630715 38.535318-11.124338 1.447137-21.368546-3.15239-27.694482-33.29685-5.280781-25.159877-6.33863-74.400624 4.794171-75.847762 11.132801-1.442906 30.250245 45.440955 35.531026 70.609294z" fill="#FFFFFF" p-id="3173"></path><path d="M337.41686 709.040319c23.746591 13.625093 32.073977 44.954344 20.573044 58.097058-11.496701 13.134251-30.292559 18.977808-65.040778-9.804143-29.001984-24.030094-72.268001-81.289336-60.767069-94.427818 11.496701-13.142714 72.428794 27.300963 105.234803 46.134903z" fill="#FFF9DB" p-id="3174"></path><path d="M322.886248 711.811883c30.965351 25.65495 28.891967 39.720108 19.011659 51.013702-9.876077 11.293594-23.810062 15.529221-54.788107-10.134192-25.853826-21.423555-67.236872-71.493656-57.356563-82.778787 9.880308-11.285131 67.270723 20.475722 93.133011 41.899277z" fill="#FFFFED" fill-opacity=".74" p-id="3175"></path><path d="M301.538858 704.986642c24.753663 20.509573 23.953929 30.766476 17.111763 38.581863-6.837935 7.811156-17.120226 10.206126-41.869657-10.294985-20.657672-17.115994-54.576537-56.150616-47.747065-63.949078 6.837935-7.815387 51.843056 18.541974 72.504959 35.6622z" fill="#FFFFFF" p-id="3176"></path><path d="M335.339244 645.235109c44.357717 1.78988 53.184408 13.946679 53.594854 28.523836 0.406214 14.568694-7.751916 26.04847-52.101171 24.258589-37.033172-1.48522-108.090994-16.147005-108.497208-30.724161-0.410445-14.572926 69.978816-23.547715 107.003525-22.058264z" fill="#FFF9DB" p-id="3177"></path><path d="M326.656421 654.400311c39.529695 1.586773 47.378934 11.822519 47.725908 24.072408 0.342743 12.24989-6.960645 21.872083-46.481878 20.281078-33.004884-1.324427-96.331946-13.790117-96.674689-26.031544-0.338512-12.258352 62.413081-19.6506 95.430659-18.321942z" fill="#FFFFED" fill-opacity=".74" p-id="3178"></path><path d="M306.629227 660.417355c31.591598 1.277881 37.832906 8.382394 38.078327 16.862111 0.236958 8.471253-5.619293 15.10185-37.215122 13.832431-26.365824-1.057849-76.939462-9.956473-77.17642-18.427727-0.24119-8.479716 49.938928-13.328895 76.313215-12.266815z" fill="#FFFFFF" p-id="3179"></path><path d="M287.16904 575.637118c33.203759-26.052701 50.103952-18.935494 63.098567-3.990206 12.990384 14.932594 17.171002 32.040126-16.032757 58.088596-27.719871 21.753603-91.211958 51.187189-104.202341 36.246132-13.003078-14.941057 29.412429-68.59515 57.136531-90.344522z" fill="#FFF9DB" p-id="3180"></path><path d="M288.950457 590.65434c29.594379-23.217666 43.706082-17.970736 54.119547-6.000118 10.409233 11.962155 13.172334 26.111941-16.417814 49.333838-24.707117 19.384022-80.349966 46.718836-90.759199 34.75245-10.409233-11.962155 28.341886-58.689453 53.057466-78.08617z" fill="#FFFFED" fill-opacity=".74" p-id="3181"></path><path d="M279.620231 609.204777c23.649269-18.563131 34.020419-15.402279 41.222253-7.117207 7.206066 8.276609 8.517799 18.541974-15.139932 37.096643-19.743691 15.49537-63.297443 38.370293-70.499278 30.093684-7.197603-8.276609 24.669035-44.57775 44.416957-60.07312z" fill="#FFFFFF" p-id="3182"></path><path d="M215.683847 568.87958c5.97473-38.175649 19.278237-42.952894 34.278534-39.821662 14.987602 3.131233 26.006156 12.981921 20.031425 51.161801-4.980352 31.866638-26.662022 90.213349-41.653856 87.077885-15.004528-3.131233-17.636456-66.547155-12.656103-98.418024z" fill="#FFF9DB" p-id="3183"></path><path d="M215.561137 576.813446c5.318864-34.02465 16.062377-38.518392 28.054151-36.013406 11.996006 2.504986 20.695755 11.052405 15.372659 45.081286-4.438734 28.409588-22.650659 80.646164-34.642434 78.141178-11.987543-2.504986-13.227342-58.791007-8.784376-87.209058z" fill="#FFFFED" fill-opacity=".74" p-id="3184"></path><path d="M219.525954 595.605073c4.248321-27.190946 11.792899-30.990739 20.094896-29.255868 8.301998 1.730641 14.213257 8.344312 9.960705 35.535258-3.550141 22.697205-17.060986 64.655721-25.358752 62.925081-8.293535-1.730641-8.242758-46.494572-4.696849-69.204471z" fill="#FFFFFF" p-id="3185"></path><path d="M153.706599 596.036675c-21.085043-34.367393-14.653322-46.435332-1.73064-53.192871 12.914219-6.757538 27.427905-5.657376 48.512947 28.710018 17.606836 28.693092 40.761031 88.986244 27.846813 95.743782-12.91845 6.76177-57.022284-42.563606-74.62912-71.260929z" fill="#FFF9DB" p-id="3186"></path><path d="M166.405017 598.56705c-18.80009-30.635302-14.03977-40.875279-3.732091-46.27454 10.307679-5.395029 22.265602-3.897115 41.057229 26.738187 15.694245 25.574553 37.316676 78.805507 27.004765 84.200536-10.303448 5.390798-48.627195-39.08963-64.329903-64.664183z" fill="#FFFFED" fill-opacity=".74" p-id="3187"></path><path d="M181.764982 611.223153c-15.017222-24.482853-12.114485-32.196687-4.976121-35.928778 7.134133-3.732091 15.787336-2.069152 30.80879 22.40947 12.541856 20.43764 30.711467 62.501941 23.581566 66.234031-7.129901 3.732091-36.868148-32.277084-49.414235-52.714723z" fill="#FFFFFF" p-id="3188"></path><path d="M126.68914 662.118376c-37.964079-14.67871-40.667941-30.351799-35.019028-46.219531 5.64045-15.855038 17.492588-25.913065 55.460899-11.238586 31.697383 12.254121 87.67028 48.512948 82.025599 64.38068-5.644681 15.863501-70.761624 5.327327-102.46747-6.922563z" fill="#FFF9DB" p-id="3189"></path><path d="M138.050437 654.709203c-33.846931-13.07078-36.686198-25.80728-32.196687-38.416838 4.481048-12.609558 14.606777-20.327623 48.445245-7.248381 28.257258 10.921231 78.589706 42.005062 74.104426 54.61462-4.48951 12.605327-62.095727 1.97183-90.352984-8.949401z" fill="#FFFFED" fill-opacity=".74" p-id="3190"></path><path d="M157.857598 654.370691c-27.047079-10.455778-29.712858-19.523658-26.602782-28.257258 3.105844-8.7336 10.798521-13.802812 37.841368-3.347034 22.574494 8.725137 63.187427 32.467496 60.081583 41.192634-3.101613 8.720906-48.737212-0.863205-71.320169-9.588342z" fill="#FFFFFF" p-id="3191"></path><path d="M147.334118 720.977085c-37.485931 11.725196-48.441014 4.569907-53.087086-7.041041-4.646072-11.606717-1.235567-23.264212 36.254595-34.99364 31.2954-9.79568 94.850958-19.096287 99.492799-7.48957 4.658766 11.610949-51.356445 39.728571-82.660308 49.524251z" fill="#FFF9DB" p-id="3192"></path><path d="M151.874405 711.024844c-33.411098 10.460009-42.830184 4.938038-46.545349-4.341412-3.719397-9.27945-0.330049-18.804321 33.089512-29.26433 27.897589-8.729369 84.200536-17.886108 87.91147-8.602427 3.719397 9.275219-46.553812 33.474569-74.455633 42.208169z" fill="#FFFFED" fill-opacity=".74" p-id="3193"></path><path d="M166.887396 700.501363c-26.704336 8.357006-33.901939 4.751857-36.474628-1.675632-2.568457-6.414795 0.456991-13.22311 27.161327-21.575885 22.290991-6.977571 66.961831-15.097619 69.530288-8.678592 2.568457 6.419027-37.917534 24.95677-60.216987 31.930109z" fill="#FFFFFF" p-id="3194"></path><path d="M182.080441 638.775755a55.854419 51.61456 30.383 1 0 96.367167 56.499853 55.854419 51.61456 30.383 1 0-96.367167-56.499853Z" fill="#FFF9DB" p-id="3195"></path><path d="M189.876469 640.171848a46.211069 42.707473 30.386 1 0 79.726782 46.749243 46.211069 42.707473 30.386 1 0-79.726782-46.749243Z" fill="#FFFFED" fill-opacity=".74" p-id="3196"></path><path d="M248.92992 668.901303c-6.871786 11.716734-22.71413 15.190709-35.39139 7.756148-12.67726-7.434562-17.386803-22.959551-10.519249-34.672054 6.871786-11.720965 23.348839 25.134488 30.398344 0.761651 3.79133-13.108863 25.430686 9.232905 15.512295 26.154255z" fill="#EDD796" fill-opacity=".56" p-id="3197"></path><path d="M570.765619 160.376442s-40.951444-68.557067 115.377456-121.157543c0 0 48.381774 93.636548-13.612399 136.487888-61.989942 42.864035-95.303717-3.626306-101.765057-15.330345z" fill="#85CC85" p-id="3198"></path><path d="M570.765619 160.376442c1.007072 1.84912 2.708093 4.565676 5.081905 7.663057 0.004231-0.046545 11.928303-75.741977 61.638736-109.089603-98.303777 48.525642-66.720642 101.426546-66.720641 101.426546z" fill="#94E394" p-id="3199"></path><path d="M613.976628 192.615443a0.930907 0.930907 0 0 1 0.232726 0.055008c0.791271 0.105785 3.655926 0.461222 8.06504 0.799734 13.925522 0.39352 30.652228-4.206007 50.256282-17.759166 61.989942-42.851341 13.612399-136.487888 13.612399-136.487888a515.934034 515.934034 0 0 0-13.058086 4.603758c0.012694 0.169256 11.162421 118.457913-59.108361 148.788554z" fill="#6EA86E" p-id="3200"></path><path d="M573.782603 165.208696s50.154729-14.729487 51.919221-44.962807c1.751798-30.237551 7.684214-41.086849 7.684214-41.086849s0.114248 23.780442 5.623525 33.753841c0 0 32.463265-58.008199 41.21379-62.83199 0 0-20.856548 35.878001-25.511082 51.999617 0 0 9.76606 0.033851 29.086611-16.036988 0 0-54.817727 60.200062-76.23705 67.359583 0 0 24.7452 4.387957 34.718599-1.112857 0 0-27.542152 17.894571-47.51857 12.106022 0 0-6.478266 7.244149-18.914337 3.643231l-2.064921-2.830803z" fill="#5C8C5C" p-id="3201"></path><path d="M183.647953 552.592939c0 20.281078-12.58417 42.990977-28.104928 42.990977-15.516527 0-28.104928-6.918331-28.104928-42.990977 0-30.114841 12.58417-87.649123 28.104928-87.649123s28.104928 57.517357 28.104928 87.649123z" fill="#FFF9DB" p-id="3202"></path><path d="M173.505298 545.306476c0 32.158605-10.079184 38.315285-22.515254 38.315285-12.436071 0-22.515255-6.15668-22.515255-38.315285 0-26.843972 10.083415-78.128484 22.515255-78.128483 12.43184-0.004231 22.515255 51.276049 22.515254 78.128483z" fill="#FFFFED" fill-opacity=".74" p-id="3203"></path><path d="M166.574273 528.859043c0 25.701495-6.97334 30.626839-15.584229 30.626839-8.602427 0-15.579998-4.925344-15.579998-30.626839 0-21.444712 6.97334-62.425775 15.579998-62.425776 8.606658-0.004231 15.584229 40.972601 15.584229 62.425776z" fill="#FFFFFF" p-id="3204"></path><path d="M237.395136 507.668215c13.358515 17.809943 17.289481 41.611542 4.527594 52.31274-12.749194 10.701199-27.542152 14.090546-50.730199-13.553159-19.358634-23.065336-45.995267-75.818142-33.241842-86.51934 12.757657-10.70543 61.359464 23.666194 79.444447 47.759759z" fill="#FFF9DB" p-id="3205"></path><path d="M224.370902 509.081501c20.674598 24.626721 16.337417 36.305372 6.105903 44.899336-10.231514 8.577038-22.481403 10.819678-43.156001-13.811275-17.25563-20.577276-41.924665-66.817964-31.693151-75.399233 10.231514-8.58127 51.483387 23.738128 68.743249 44.311172z" fill="#FFFFED" fill-opacity=".74" p-id="3206"></path><path d="M208.101187 501.266114c16.515136 19.692914 13.933985 28.269952 6.859091 34.219294-7.074893 5.932416-15.98198 6.981802-32.497116-12.702649-13.790117-16.438971-34.38855-52.642789-27.313657-58.583669 7.079124-5.936648 39.157332 20.628052 52.951682 37.067024z" fill="#FFFFFF" p-id="3207"></path><path d="M243.869171 448.394829c21.842463-0.220033 40.219413 19.472881 37.604411 34.282765-2.60654 14.801421-13.185028 27.360202-48.720286 21.093506-29.65785-5.225773-82.541829-28.972364-79.931058-43.782248 2.610771-14.809884 60.868622-11.293594 91.046933-11.594023z" fill="#FFF9DB" p-id="3208"></path><path d="M234.991704 456.802611c31.663531 5.585442 35.916084 16.967895 33.669213 29.691702-2.246871 12.723806-10.125729 21.965173-41.793492 16.383962-26.441989-4.667229-75.124193-23.890458-72.881553-36.605801 2.24264-12.719574 54.55538-14.128629 81.005832-9.469863z" fill="#FFFFED" fill-opacity=".74" p-id="3209"></path><path d="M217.54143 461.04247c25.303744 4.464122 28.896199 12.452996 27.343276 21.25853-1.548691 8.801302-7.654594 15.080693-32.962569 10.616571-21.127357-3.723628-60.221219-17.974967-58.668297-26.780501 1.548691-8.79284 43.156001-8.818228 64.28759-5.0946z" fill="#FFFFFF" p-id="3210"></path><path d="M216.69515 401.786009c31.244623-18.034207 42.225094-12.838053 48.394469-2.158011 6.160912 10.671579 5.174997 22.781833-26.065395 40.82027-26.086552 15.059536-80.90851 35.171358-87.069422 24.495548-6.165143-10.680042 38.653796-48.094039 64.740348-63.157807z" fill="#FFF9DB" p-id="3211"></path><path d="M214.414428 412.40258c27.846813-16.079302 37.380146-11.88599 42.563606-2.9112 5.179228 8.970558 4.040983 19.320551-23.801599 35.399854-23.255749 13.426217-71.861787 31.790473-77.045246 22.824146-5.179228-8.970558 35.027491-41.882351 58.283239-55.3128z" fill="#FFFFED" fill-opacity=".74" p-id="3212"></path><path d="M203.061595 425.629922c22.252908-12.846516 29.420892-10.278059 33.004883-4.066371 3.588223 6.207457 2.225714 13.701258-20.027194 26.547774-18.575826 10.730819-56.967275 26.183874-60.551267 19.976418-3.588223-6.207457 28.989289-31.731234 47.573578-42.457821z" fill="#FFFFFF" p-id="3213"></path><path d="M155.449934 370.989914c12.338749-33.897708 26.843972-35.975323 41.814649-30.521055 14.970677 5.445806 24.749431 16.358574 12.406451 50.256283-10.303448 28.303803-42.119309 77.946534-57.089986 72.496496-14.970677-5.450037-7.43033-63.923689 2.868886-92.231724z" fill="#FFF9DB" p-id="3214"></path><path d="M162.736397 381.399146c11.001628-30.216394 22.828378-32.467496 34.824384-28.100696 11.991774 4.3668 19.604055 13.692795 8.610889 43.909189-9.182128 25.227579-36.449239 69.881494-48.441014 65.514694-11.987543-4.3668-4.172156-56.091377 5.005741-81.323187z" fill="#FFFFED" fill-opacity=".74" p-id="3215"></path><path d="M163.802709 399.285255c8.788608-24.148573 17.200622-26.327742 25.502619-23.298063 8.297766 3.016985 13.34159 10.091878 4.54875 34.240451-7.328777 20.158367-28.079539 56.214087-36.373074 53.192871-8.297766-3.021216-1.011303-43.97266 6.321705-64.135259z" fill="#FFFFFF" p-id="3216"></path><path d="M103.526482 397.169557c-11.293594-31.037285-4.066371-40.401363 7.51919-44.615833 11.581329-4.21447 23.13727-1.688327 34.430863 29.348958 9.43178 25.913065 18.059595 78.826664 6.474035 83.041134-11.58556 4.21447-38.988077-41.856963-48.424088-67.774259z" fill="#FFF9DB" p-id="3217"></path><path d="M106.64502 403.135824c-10.070721-27.664863-4.48951-35.700282 4.777246-39.068473 9.262524-3.376653 18.702767-0.803965 28.773488 26.860898 8.403551 23.094956 16.95097 69.949196 7.688445 73.321618-9.262524 3.368191-32.831396-38.014856-41.239179-61.114043z" fill="#FFFFED" fill-opacity=".74" p-id="3218"></path><path d="M116.961162 415.398408c-8.048114-22.109041-4.39642-28.23187 2.022607-30.563369 6.410564-2.331499 13.146945 0.008463 21.190828 22.117504 6.719456 18.453115 14.348662 55.600535 7.942329 57.936265-6.406333 2.331499-24.436308-31.028822-31.155764-49.4904z" fill="#FFFFFF" p-id="3219"></path><path d="M71.8291 444.463863c-28.379969-16.388194-28.824265-28.185324-22.654891-38.861135 6.165143-10.671579 16.595533-16.19355 44.979732 0.194644 23.695814 13.680101 63.966003 48.470634 57.800861 59.146444-6.165143 10.671579-56.421425-6.804084-80.125702-20.479953z" fill="#FFF9DB" p-id="3220"></path><path d="M81.59516 440.795243c-25.299513-14.606777-26.162717-24.309366-21.241605-32.827165 4.916881-8.517799 13.752035-12.622252 39.047317 1.984524 21.123126 12.194881 57.479274 42.39435 52.566624 50.912149-4.921113 8.513567-49.24921-7.870395-70.372336-20.069508z" fill="#FFFFED" fill-opacity=".74" p-id="3221"></path><path d="M97.27248 443.51603c-20.217607-11.670188-21.334695-18.685842-17.924191-24.580176 3.402042-5.894334 10.032638-8.437402 30.246014 3.237018 16.879036 9.744903 46.359167 33.136057 42.952894 39.026159-3.39781 5.894334-38.395681-7.938098-55.274717-17.683001z" fill="#FFFFFF" p-id="3222"></path><path d="M79.902602 505.467889C47.854014 511.112571 39.670495 500.622942 37.152815 486.341982c-2.521912-14.272496 1.57831-26.937063 33.63113-32.590207 26.759344-4.718006 79.914132-2.15378 82.431813 12.127179 2.521912 14.280959-46.54958 34.870929-73.313156 39.588935z" fill="#FFF9DB" p-id="3223"></path><path d="M84.734855 494.990954c-28.56615 5.043823-35.6622-3.198935-37.66365-14.547537-2.00145-11.348602 1.853351-21.516645 30.419502-26.552006 23.852376-4.210238 71.036665-3.038142 73.038115 8.310461 1.997219 11.352834-41.937359 28.583076-65.793967 32.789082z" fill="#FFFFED" fill-opacity=".74" p-id="3224"></path><path d="M98.228775 486.088099c-22.828378 4.024057-28.32496-1.569848-29.708627-9.431781-1.387898-7.85347 1.861814-14.987602 24.694424-19.011659 19.058205-3.363959 56.58645-3.414736 57.974347 4.438734 1.379435 7.857701-33.897708 20.649209-52.960144 24.004706z" fill="#FFFFFF" p-id="3225"></path><path d="M117.866681 540.288041c-21.068117 25.1091-31.494276 24.554787-39.377365 17.941117-7.878858-6.617902-10.235745-16.794408 10.828141-41.890814 17.585679-20.962333 57.576596-55.638617 65.455454-49.024947 7.887321 6.613671-19.31632 52.016543-36.90623 72.974644z" fill="#FFF9DB" p-id="3226"></path><path d="M116.973856 530.890112c-18.774701 22.37985-27.482913 22.37985-33.78346 17.090606-6.304779-5.289244-7.815387-13.85782 10.963545-36.237669 15.681551-18.685842 50.73443-50.082795 57.034978-44.797783 6.300548 5.293476-18.537743 45.259005-34.215063 63.944846z" fill="#FFFFED" fill-opacity=".74" p-id="3227"></path><path d="M123.062834 516.503368c-15.004528 17.886108-21.415092 18.338867-25.77766 14.678711-4.358337-3.651694-5.022666-10.049564 9.986093-27.922978 12.52493-14.936826 39.990917-40.485991 44.349255-36.825834 4.354106 3.655926-16.032757 35.137507-28.557688 50.070101z" fill="#FFFFFF" p-id="3228"></path><path d="M153.173444 463.890199m-44.560825 0a44.560824 44.560824 0 1 0 89.121649 0 44.560824 44.560824 0 1 0-89.121649 0Z" fill="#FFF9DB" p-id="3229"></path><path d="M151.387795 461.546006m-36.872379 0a36.872379 36.872379 0 1 0 73.744758 0 36.872379 36.872379 0 1 0-73.744758 0Z" fill="#FFFFED" fill-opacity=".74" p-id="3230"></path><path d="M166.773148 457.145354a21.233142 21.233142 0 0 1-42.462052 0c0-11.725196 26.213494 8.526262 21.233142-12.70688-2.682705-11.416305 21.22891-4.227164 21.22891 12.70688z" fill="#EDD796" fill-opacity=".56" p-id="3231"></path><path d="M734.139793 303.23258s11.539015-71.531738 150.870401-16.874804c0 0-21.008878 93.298036-89.096261 86.91286-68.087382-6.389407-64.109871-58.126678-61.77414-70.038056z" fill="#85CC85" p-id="3232"></path><path d="M734.139793 303.23258a55.752865 55.752865 0 0 0-0.935139 8.289304c0.02962-0.02962 52.481996-45.673681 106.487295-39.84705-96.632375-23.628112-105.552157 31.557746-105.552156 31.557746z" fill="#94E394" p-id="3233"></path><path d="M745.357222 350.852703c0.042314 0.050777 0.093091 0.105785 0.131173 0.173488 0.495073 0.528924 2.272259 2.454209 5.141145 5.268087 9.444474 8.395088 23.759285 14.962214 45.284393 16.980589 68.087382 6.389407 89.09626-86.91286 89.096261-86.91286-4.011363-1.574079-7.942329-3.042373-11.763279-4.417577-0.088859 0.118479-61.355232 88.829682-127.889693 68.908273z" fill="#6EA86E" p-id="3234"></path><path d="M733.424687 308.352569s43.439505 19.028585 62.311528-0.960527c18.859329-19.98488 29.319338-24.068177 29.319338-24.068177s-13.79858 16.595533-15.795799 26.733956c0 0 56.412963-21.368546 65.307356-19.612517 0 0-35.433705 12.76612-48.068651 21.254298 0 0 6.770233 5.720847 29.564759 5.8224 0 0-73.215834 9.850688-92.27827 2.327268 0 0 14.640628 17.484126 24.787514 19.485575 0 0-29.585916-3.630537-40.096702-19.307857 0 0-8.725137 1.252493-15.275337-8.509336l0.224264-3.165083z" fill="#5C8C5C" p-id="3235"></path><path d="M205.86701 351.851313c-18.461578 18.546206-49.909308 27.076699-63.208584 12.0087-13.303507-15.063767-17.793017-33.597279 15.042611-66.568312 27.41521-27.520995 90.560323-67.888507 103.859598-52.820508 13.303507 15.059536-28.274184 79.850661-55.693625 107.38012z" fill="#FFF9DB" p-id="3236"></path><path d="M203.814783 335.348871c-29.268562 29.387041-43.511438 25.236042-54.170323 13.163871-10.658885-12.076402-13.688564-27.487144 15.579998-56.874185 24.436308-24.542093 79.753339-61.62181 90.407992-49.549639 10.650422 12.063708-27.381359 68.71786-51.817667 93.259953z" fill="#FFFFED" fill-opacity=".74" p-id="3237"></path><path d="M212.836118 313.591036c-23.386922 23.488476-33.846931 21.211985-41.226485 12.85921-7.371091-8.348543-8.869005-19.62098 14.522149-43.100992 19.52789-19.608286 62.80237-50.285902 70.17346-41.93736 7.375322 8.352774-23.937003 52.570856-43.469124 72.179142z" fill="#FFFFFF" p-id="3238"></path><path d="M292.817953 362.967188c-4.756088 29.238942-23.056873 54.813495-43.731471 52.202725-20.674598-2.598077-36.423851-13.85782-31.14307-61.621811 4.409114-39.880901 29.594379-113.943014 50.268977-111.349168 20.670366 2.60654 31.041516 81.192014 24.605564 120.768254z" fill="#FFF9DB" p-id="3239"></path><path d="M280.37765 351.618586c-4.709543 42.5763-19.049742 49.033409-35.63258 46.955794-16.58707-2.086078-29.124694-11.932535-24.415151-54.508835 3.930966-35.547952 24.880605-101.760827 41.459212-99.674748 16.578607 2.090309 22.515255 71.671374 18.588519 107.227789z" fill="#FFFFED" fill-opacity=".74" p-id="3240"></path><path d="M273.539716 328.67596c-3.765942 34.028881-13.781655 39.377365-25.261431 37.930228-11.467081-1.442906-20.048351-9.131351-16.28664-43.156001 3.139695-28.401126 18.440421-81.48398 29.907502-80.045305 11.471313 1.447137 14.780264 56.865722 11.640569 85.271078z" fill="#FFFFFF" p-id="3241"></path><path d="M352.319834 315.080487c18.914337 21.000415 16.743631 56.836102 1.019766 67.833499-15.711171 10.993165-36.212281 12.203344-60.957481-28.011837-20.657672-33.571891-44.357717-106.605774-28.646546-117.603171 15.719634-11.001628 62.451164 48.7626 88.584261 77.781509z" fill="#FFF9DB" p-id="3242"></path><path d="M337.05296 314.145349c22.058264 35.835687 15.338808 50.362067 1.832194 59.819236-13.502383 9.448706-28.663472 10.239977-50.721736-25.595711-18.419264-29.924428-42.648234-94.753636-29.145851-104.19811 13.49392-9.452937 59.611898 40.041694 78.035393 69.974585z" fill="#FFFFED" fill-opacity=".74" p-id="3243"></path><path d="M318.244407 301.083031c17.623762 28.642315 13.426217 39.428142 4.079065 45.974111-9.342921 6.537506-20.285309 6.347093-37.90907-22.299454-14.721024-23.907384-35.251755-74.878772-25.913066-81.416277 9.342921-6.537506 45.022046 33.830006 59.743071 57.74162z" fill="#FFFFFF" p-id="3244"></path><path d="M371.449972 246.104512C414.639825 259.949637 419.332442 275.360379 414.889477 291.10117c-4.430271 15.740791-16.307798 25.849594-59.49765 12.004468-36.05572-11.555941-101.34615-46.384556-96.907416-62.125346 4.434502-15.745022 76.909842-6.42749 112.965561 5.12422z" fill="#FFF9DB" p-id="3245"></path><path d="M359.834792 253.598313c38.497235 12.334517 42.851341 25.422223 39.127713 38.649565-3.727859 13.22311-14.120166 21.584348-52.625864 9.245599-32.14591-10.294985-90.522241-40.69756-86.798613-53.924902 3.732091-13.227342 68.146622-4.273709 100.296764 6.029738z" fill="#FFFFED" fill-opacity=".74" p-id="3246"></path><path d="M338.068494 254.660393c30.766476 9.863383 34.5705 19.172452 31.989349 28.324961-2.57692 9.152508-10.557331 14.687173-41.323807 4.82379-25.68457-8.225833-72.653058-31.371565-70.080369-40.519842 2.57692-9.15674 53.726027-0.858973 79.414827 7.371091z" fill="#FFFFFF" p-id="3247"></path><path d="M346.996739 158.510397c41.433823-19.007428 55.752865-6.825241 63.62326 12.694186 7.870395 19.515195 6.317473 38.975382-35.120581 57.978579-34.583194 15.867733-107.037377 30.35603-114.907772 10.845066-7.870395-19.519427 51.817667-65.650099 86.405093-81.517831z" fill="#FFF9DB" p-id="3248"></path><path d="M343.772415 175.097467c36.931619-16.942507 49.113806-7.514958 55.422817 8.120047 6.304779 15.626543 4.33718 31.545052-32.590207 48.483328-30.829946 14.141323-94.838264 28.489985-101.138812 12.85921-6.304779-15.626543 47.472024-55.3128 78.306202-69.462585z" fill="#FFFFED" fill-opacity=".74" p-id="3249"></path><path d="M328.408219 192.480039c29.509751-13.540465 38.700342-7.366859 43.058679 3.45705 4.3668 10.815446 2.251102 22.180974-27.258649 35.708745-24.635184 11.302057-75.234209 24.114722-79.596778 13.31197-4.362569-10.819678 39.153101-41.171477 63.796748-52.477765z" fill="#FFFFFF" p-id="3250"></path><path d="M278.676629 132.038788c18.567363-39.326588 33.288387-40.871048 47.053117-33.4788 13.756266 7.388016 21.364315 20.915787 2.796952 60.246606-15.508064 32.835628-56.277558 89.561714-70.042287 82.173698-13.764729-7.392248 4.688386-76.101645 20.192218-108.941504z" fill="#FFF9DB" p-id="3251"></path><path d="M275.921991 140.518504c16.544756-35.05711 28.642315-36.982395 39.652406-31.066905 11.010091 5.907028 16.756326 17.416423 0.207338 52.473534-13.823969 29.272793-49.139194 80.39228-60.149285 74.476789-11.005859-5.911259 6.461341-66.610625 20.289541-95.883418z" fill="#FFFFED" fill-opacity=".74" p-id="3252"></path><path d="M273.590492 161.73472c13.227342-28.011837 21.935553-30.064064 29.556297-25.968073 7.61228 4.087528 11.259743 12.774583-1.967599 40.782188-11.03971 23.391153-38.311053 64.748812-45.927565 60.661284-7.616512-4.095991 7.294926-52.075782 18.338867-75.475399z" fill="#FFFFFF" p-id="3253"></path><path d="M208.465087 144.491784c-9.406392-42.529755 0.952064-53.738721 15.956591-57.508894 14.991834-3.774405 28.95967 1.311733 38.366062 43.841487 7.85347 35.497176 10.696967 106.385742-4.303329 110.155915-15.000296 3.774405-42.161623-60.978638-50.019324-96.488508z" fill="#FFF9DB" p-id="3254"></path><path d="M220.164895 150.618844c-8.386626-37.904839-0.291966-47.607429 11.674419-50.620182 11.970617-3.012753 23.276906 1.811037 31.6593 39.715877 7.002959 31.650837 10.671579 94.542066-1.294807 97.550588-11.957923 3.004291-35.031722-54.995445-42.038912-86.646283z" fill="#FFFFED" fill-opacity=".74" p-id="3255"></path><path d="M231.124209 168.323003c-6.698299-30.296791-1.269419-37.78636 7.015653-39.868207 8.280841-2.081847 16.278178 2.026838 22.972245 32.319397 5.602367 25.29105 9.571416 75.284986 1.294807 77.366833-8.280841 2.081847-25.68457-44.526973-31.282705-69.818023z" fill="#FFFFFF" p-id="3256"></path><path d="M159.859048 208.085425c-32.611364-25.946916-30.072527-43.481819-19.22746-58.98142 10.832372-15.486907 25.870751-23.07803 58.482115 2.868886 27.229029 21.664744 70.448501 75.602341 59.607666 91.093479-10.836603 15.49537-71.637523-13.316201-98.862321-34.980945z" fill="#FFF9DB" p-id="3257"></path><path d="M173.530687 203.198163c-29.078149-23.120344-27.652169-37.545171-19.037048-49.858531 8.61089-12.317592 21.169671-17.869183 50.235125 5.259624 24.271284 19.307857 63.640186 66.179023 55.025065 78.492384-8.615121 12.31336-61.951859-14.581388-86.223142-33.893477z" fill="#FFFFED" fill-opacity=".74" p-id="3258"></path><path d="M193.198212 208.16159c-23.23036-18.486966-22.849535-28.925819-16.879036-37.456312 5.957805-8.526262 15.241486-11.894452 38.467615 6.596745 19.392485 15.423436 51.601866 51.809205 45.644062 60.331235-5.966267 8.513567-47.835924-14.044001-67.232641-29.471668z" fill="#FFFFFF" p-id="3259"></path><path d="M160.696865 276.760971c-40.904899 2.492292-49.33807-8.132742-50.070102-21.838231-0.736263-13.684333 6.503655-25.274124 47.408554-27.770648 34.14736-2.081847 99.979409 5.043823 100.71144 18.74085 0.736263 13.692795-63.898301 28.77772-98.049892 30.868029z" fill="#FFF9DB" p-id="3260"></path><path d="M168.478401 267.303802c-36.457702 2.229945-43.921884-6.224383-44.510048-17.183696-0.588164-10.950851 5.919722-20.25569 42.385887-22.477172 30.440658-1.853351 89.062409 3.469744 89.650573 14.420595 0.588164 10.955083-57.077292 23.378459-87.526412 25.240273z" fill="#FFFFED" fill-opacity=".74" p-id="3261"></path><path d="M186.796111 260.059654c-29.137388 1.777186-35.044416-4.024057-35.45063-11.610949-0.406214-7.569966 4.844948-14.056695 33.978104-15.825419 24.326292-1.493683 71.121293 1.811037 71.519044 9.393698 0.406214 7.574198-45.715995 16.55745-70.046518 18.04267z" fill="#FFFFFF" p-id="3262"></path><path d="M298.678435 284.457879c-22.401007 22.494098-57.656993 21.360084-78.746267-2.526143-21.093506-23.890458-20.031426-61.486406 2.369581-83.980503 22.401007-22.498329 57.656993-21.360084 78.750499 2.526143 21.089274 23.890458 20.027194 61.486406-2.373813 83.980503z" fill="#FFF9DB" p-id="3263"></path><path d="M292.691011 273.113508c-18.537743 18.609677-47.70052 17.670307-65.155026-2.09454-17.450274-19.764848-16.574376-50.869835 1.959136-69.487975 18.533512-18.605445 47.708982-17.666076 65.159257 2.094541 17.446043 19.769079 16.565913 50.882529-1.963367 69.487974z" fill="#FFFFED" fill-opacity=".74" p-id="3264"></path><path d="M278.28311 248.241366c-10.667348 10.713893-27.465987 10.176506-37.515551-1.205947s-9.537565-29.298181 1.134014-40.012075c10.67581-10.718124 14.704099 33.233379 29.759403 8.991715 8.086196-13.028466 22.032876 16.752094 6.622134 32.226307z" fill="#EDD796" fill-opacity=".56" p-id="3265"></path><path d="M407.150255 164.844796c-21.855157 6.867555-51.694957 3.808256-58.325554-9.431781-6.630597-13.25273-4.561444-26.331973 34.312385-38.54378 32.442108-10.193431 99.797459-18.931263 106.428056-5.678532 6.626365 13.240036-49.960085 43.45643-82.414887 53.654093z" fill="#FFF9DB" p-id="3266"></path><path d="M410.666544 153.720457c-34.646665 10.883149-45.584822 4.3668-50.899454-6.249771-5.310401-10.616571-2.983134-21.300844 31.6593-32.183993 28.921587-9.084806 88.482708-17.843794 93.793109-7.231454 5.310401 10.608108-45.622905 36.576181-74.552955 45.665218z" fill="#FFFFED" fill-opacity=".74" p-id="3267"></path><path d="M425.42142 142.23645c-27.68602 8.699749-35.975323 4.413345-39.656637-2.936588-3.677083-7.33724-1.345584-14.966445 26.340436-23.666194 23.10765-7.261074 70.236931-15.173784 73.909782-7.832313 3.681314 7.345702-37.485931 27.174021-60.593581 34.435095z" fill="#FFFFFF" p-id="3268"></path><path d="M478.504274 195.509718c-13.476994 17.429117-37.447849 28.845422-54.419975 21.571653-16.984821-7.256843-26.945526-18.736619-7.074893-47.886701 16.58707-24.326292 62.032256-64.922299 79.012845-57.656993 16.98059 7.265306 0.715106 60.382012-17.517977 83.972041z" fill="#FFF9DB" p-id="3269"></path><path d="M471.42515 184.87199c-17.712621 25.980767-32.141679 26.234651-45.766772 20.412251-13.61663-5.826631-21.262762-15.529221-3.562835-41.509988 14.79719-21.694364 54.06877-58.401719 67.689631-52.579319 13.620862 5.8224-3.575529 51.982692-18.360024 73.677056z" fill="#FFFFED" fill-opacity=".74" p-id="3270"></path><path d="M472.889213 168.34416c-14.158249 20.754994-24.508242 21.461637-33.935791 17.433348-9.419086-4.03252-14.357124-11.272437-0.198875-32.035894 11.814056-17.336027 42.021987-47.171595 51.441073-43.147538 9.423317 4.036751-5.492351 40.409826-17.306407 57.750084z" fill="#FFFFFF" p-id="3271"></path><path d="M545.136057 180.974875c9.562953 18.567363-3.799793 40.926056-20.869242 43.701851-17.07368 2.78849-35.124813-1.988756-43.549521-34.443558-7.041042-27.085162-4.053677-80.265338 13.020004-83.045365 17.07368-2.784258 38.175649 48.132122 51.398759 73.787072z" fill="#FFF9DB" p-id="3272"></path><path d="M532.281078 176.244175c7.510727 28.917356-2.94082 36.398463-17.611068 38.789201-14.661785 2.386507-27.986449-1.210179-35.505638-30.131766-6.266697-24.152805-6.355556-72.208762 8.301998-74.603732 14.661785-2.386507 38.526855 41.78926 44.814708 65.946297z" fill="#FFFFED" fill-opacity=".74" p-id="3273"></path><path d="M520.259684 162.784106c6.000119 23.111881-1.074774 28.879273-11.230124 30.53798-10.134192 1.654476-19.506733-1.430212-25.511082-24.542093-5.018435-19.290931-6.364019-57.487737 3.782867-59.137981 10.134192-1.662938 27.939903 33.846931 32.958339 53.142094z" fill="#FFFFFF" p-id="3274"></path><path d="M583.730614 141.999492c32.784851 20.564581 31.875101 31.701614 23.010328 40.579081-8.869005 8.873236-22.329073 12.127179-55.113925-8.437402-27.364434-17.166771-72.454182-57.153457-63.589409-66.026693 8.864773-8.869005 68.328572 16.722474 95.693006 33.885014z" fill="#FFF9DB" p-id="3275"></path><path d="M571.3157 143.649736c29.222016 18.330405 28.77772 27.884895 21.322001 35.344846-7.447256 7.455719-19.092056 9.990324-48.305609-8.335849-24.398226-15.304957-64.95615-50.5821-57.504663-58.037819 7.451487-7.451487 60.090045 15.728096 84.488271 31.028822z" fill="#FFFFED" fill-opacity=".74" p-id="3276"></path><path d="M552.223644 138.436657c23.348839 14.644859 23.645037 21.635124 18.478504 26.797427-5.158071 5.162302-13.811274 6.537506-37.155883-8.103122-19.494038-12.232964-52.545467-39.766653-47.387396-44.928956 5.15384-5.162302 46.570737 14.005919 66.064775 26.234651z" fill="#FFFFFF" p-id="3277"></path><path d="M590.746267 79.307139c41.793492-0.943601 50.230894 10.73505 50.742893 25.354521 0.528924 14.627934-7.049505 26.662022-48.834533 27.605623-34.900549 0.782808-101.972396-9.562953-102.501321-24.190887-0.520462-14.627934 65.700875-27.986449 100.592961-28.769257z" fill="#FFF9DB" p-id="3278"></path><path d="M582.647377 89.047811c37.257436-0.842048 44.734312 8.488179 45.148988 20.209144 0.42314 11.716734-6.372481 21.372778-43.629917 22.214826-31.100756 0.702412-90.852289-7.451487-91.266967-19.168221-0.42314-11.712502 58.638677-22.549106 89.747896-23.255749z" fill="#FFFFED" fill-opacity=".74" p-id="3279"></path><path d="M563.830362 96.008456c29.776329-0.672792 35.717208 5.771623 36.000711 13.883208 0.287735 8.103122-5.174997 14.805652-34.942863 15.469982-24.850985 0.562776-72.555736-4.938038-72.847702-13.036929-0.296198-8.107353 46.934637-15.749253 71.789854-16.316261z" fill="#FFFFFF" p-id="3280"></path><path d="M540.358812 43.848046c28.612695-20.149905 41.785029-17.149845 51.28028-8.687055 9.486788 8.458559 11.70404 19.176684-16.908656 39.322357-23.877764 16.828259-77.210271 42.093921-86.697059 33.635362-9.495251-8.458559 28.439208-47.450867 52.325435-64.270664z" fill="#FFF9DB" p-id="3281"></path><path d="M535.268443 48.523738c25.494157-17.962273 36.538099-15.918509 44.133453-9.144046 7.586892 6.766001 8.852079 15.690014-16.646309 33.648056-21.296613 14.991834-68.121234 38.15026-75.708125 31.384259-7.591123-6.76177 26.920137-40.887973 48.220981-55.888269z" fill="#FFFFED" fill-opacity=".74" p-id="3282"></path><path d="M526.458678 61.48027c20.3784-14.352893 28.53653-13.303507 33.791923-8.619352 5.255393 4.684155 5.61083 11.225892-14.76757 25.570322-17.014441 11.983312-53.776803 31.071136-59.027965 26.399675-5.251162-4.684155 22.984939-31.363102 40.003612-43.350645z" fill="#FFFFFF" p-id="3283"></path><path d="M475.863884 32.799873c5.530434-29.776329 18.051133-34.143129 32.183993-32.497117 14.13286 1.654476 24.537862 8.687055 19.007428 38.459153-4.620684 24.855216-24.889067 71.007045-39.030391 69.356801-14.120166-1.646013-16.773251-50.463621-12.16103-75.318837z" fill="#FFF9DB" p-id="3284"></path><path d="M483.988163 39.891691c4.925344-26.543543 15.012991-30.559137 26.289659-29.243173 11.276669 1.311733 19.477113 7.468413 14.547537 34.003493-4.117148 22.155586-21.118894 63.411691-32.391331 62.104189-11.276669-1.320195-12.558781-44.704692-8.445865-66.864509z" fill="#FFFFED" fill-opacity=".74" p-id="3285"></path><path d="M487.758336 54.193807c3.930966-21.207753 11.018553-24.529399 18.817015-23.62388 7.815387 0.913981 13.383903 5.712384 9.440243 26.915906-3.292026 17.70839-15.901584 50.785207-23.700045 49.875457-7.798462-0.90975-7.845007-35.459093-4.557213-53.167483z" fill="#FFFFFF" p-id="3286"></path><path d="M413.590439 60.337793c-19.77331-25.439149-11.970617-35.979555 2.348424-42.961356 14.293653-6.981802 29.68747-7.768842 49.473474 17.678769 16.506673 21.241605 36.461934 67.482293 22.155586 74.464096-14.31481 6.981802-57.453886-27.931441-73.977484-49.181509z" fill="#FFF9DB" p-id="3287"></path><path d="M426.936259 60.917495c-17.632224-22.676048-11.784436-31.528127-0.410445-37.079718 11.373991-5.551591 23.970855-5.703921 41.598848 16.98059 14.725256 18.935494 33.626899 59.603435 22.248676 65.155025-11.369759 5.551591-48.707592-26.116172-63.437079-45.055897z" fill="#FFFFED" fill-opacity=".74" p-id="3288"></path><path d="M442.304687 69.422599c-14.090546-18.123066-10.417695-24.707117-2.538837-28.557687 7.866164-3.837876 16.938276-3.482438 31.028822 14.644859 11.76751 15.13147 27.855276 47.146207 19.98488 50.988314-7.866164 3.837876-36.720049-21.944016-48.474865-37.075486z" fill="#FFFFFF" p-id="3289"></path><path d="M392.298057 104.534718c-36.043026-9.486788-39.910521-18.575826-36.14881-27.542152 3.76171-8.966327 13.713952-14.420595 49.761209-4.938039 30.089452 7.916941 84.534816 30.317948 80.773106 39.280043-3.757479 8.966327-64.287589 1.112857-94.385505-6.799852z" fill="#FFF9DB" p-id="3290"></path><path d="M402.042961 100.582595c-32.133216-8.445865-35.852613-15.876195-32.844091-23.052642 2.995828-7.167984 11.589792-11.357065 43.723008-2.906969 26.827046 7.062199 75.636192 26.357362 72.623438 33.521114-3.008522 7.163752-56.675309-0.503536-83.502355-7.561503z" fill="#FFFFED" fill-opacity=".74" p-id="3291"></path><path d="M420.14487 100.916875c-25.676107-6.76177-28.904662-12.076402-26.827047-17.039829 2.077615-4.954964 8.67436-7.684214 34.342005-0.922444 21.44048 5.631987 60.703598 20.433408 58.625983 25.388372-2.077615 4.954964-44.708923-1.78988-66.140941-7.426099z" fill="#FFFFFF" p-id="3292"></path><path d="M508.7249 146.840208c-26.513923 8.331617-56.531442-1.946442-67.046459-22.955319-10.515017-21.004646 2.458441-44.780857 28.968132-53.116706 26.513923-8.327386 56.535673 1.946442 67.04646 22.951088 10.515017 21.008878-2.449978 44.78932-28.968133 53.120937z" fill="#FFF9DB" p-id="3293"></path><path d="M507.205829 137.954278c-21.939785 6.892943-46.773844-1.603699-55.477824-18.990502-8.699749-17.378341 2.039533-37.05856 23.970854-43.951504 21.935553-6.892943 46.773844 1.60793 55.477825 18.986271 8.691286 17.386803-2.043764 37.067023-23.970855 43.955735z" fill="#FFFFED" fill-opacity=".74" p-id="3294"></path><path d="M502.767095 118.130191c-12.630715 3.969049-26.932831-0.926676-31.938572-10.938157-5.009972-10.003019 1.167865-21.334695 13.798581-25.303744 12.634946-3.969049 2.009913 25.26143 22.756444 13.819737 11.153958-6.152449 13.625093 16.688623-4.616453 22.422164z" fill="#EDD796" fill-opacity=".56" p-id="3295"></path><path d="M852.098401 515.009686c0.706643 17.877645 13.244267 38.78497 27.736796 39.910521 14.484066 1.117088 25.98923-4.057908 24.732506-35.84415-1.045155-26.543543-14.792958-78.145409-29.281256-79.262498-14.484066-1.129783-24.237433 48.652584-23.188046 75.196127z" fill="#FFF9DB" p-id="3296"></path><path d="M861.310148 509.318459c1.117088 28.329192 10.743513 34.485872 22.358693 35.395622 11.606717 0.892824 20.805771-3.808256 19.684451-32.133216-0.943601-23.657731-12.135642-69.576834-23.738127-70.478121-11.610949-0.897056-19.235923 43.557984-18.305017 67.215715z" fill="#FFFFED" fill-opacity=".74" p-id="3297"></path><path d="M867.217176 495.329466c0.892824 22.642196 7.574198 27.487144 15.613849 28.113391 8.031188 0.617784 14.365587-3.21586 13.472763-25.853826-0.744726-18.905874-8.678592-55.520138-16.714012-56.142153-8.03542-0.626247-13.125788 34.976714-12.3726 53.882588z" fill="#FFFFFF" p-id="3298"></path><path d="M800.365361 471.532099c-11.852138 14.721024-14.695636 35.416779-2.407664 45.771003 12.279509 10.354224 26.2008 14.40367 46.888092-8.268147 17.272556-18.931263 40.299809-63.483624 28.0203-73.833617-12.292203-10.362687-56.463739 16.409351-72.500728 36.330761z" fill="#FFF9DB" p-id="3299"></path><path d="M812.568705 473.715499c-18.444652 20.209144-13.984762 30.808789-4.134073 39.115018 9.842226 8.306229 21.368546 11.175115 39.808967-9.034029 15.393816-16.874805 36.808908-55.841724 26.95822-64.143722-9.846457-8.306229-47.239298 17.187928-62.633114 34.062733z" fill="#FFFFED" fill-opacity=".74" p-id="3300"></path><path d="M827.492837 468.011578c-14.73795 16.151236-12.042551 23.898921-5.217311 29.649387 6.808315 5.746235 15.165321 7.316083 29.894808-8.839385 12.304898-13.485457 30.271402-43.896495 23.463087-49.64273-6.812547-5.742003-35.84415 15.347271-48.140584 28.832728z" fill="#FFFFFF" p-id="3301"></path><path d="M792.258008 418.834301c-20.403788-1.768723-36.880842 14.255571-33.918865 27.487144 2.949283 13.235805 13.269656 25.075249 46.219531 22.121735 27.512533-2.466903 76.0551-19.557509 73.093123-32.797545-2.953514-13.240036-57.216928-14.361356-85.393789-16.811334z" fill="#FFF9DB" p-id="3302"></path><path d="M800.835046 426.886646c-29.365884 2.627697-32.937181 12.351443-30.402575 23.725434 2.543069 11.373991 10.21882 20.086434 39.584703 17.454506 24.529399-2.196094 69.301793-15.605386 66.771418-26.975146-2.538837-11.369759-51.424148-16.392426-75.953546-14.204794z" fill="#FFFFED" fill-opacity=".74" p-id="3303"></path><path d="M817.274017 431.883924c-23.475781 2.107235-26.547774 8.881699-24.791745 16.752094 1.76026 7.866164 7.67152 13.845126 31.147301 11.737891 19.599823-1.751798 55.600535-11.479776 53.844505-19.345939-1.76026-7.861933-40.60447-10.900074-60.200061-9.144046z" fill="#FFFFFF" p-id="3304"></path><path d="M816.004598 379.736208c-29.801717-18.161149-39.87667-14.369819-45.254773-5.411955-5.382335 8.957864-4.036751 19.705608 25.752272 37.854063 24.880605 15.16109 76.757512 36.846991 82.139847 27.884895 5.378103-8.962095-37.769435-45.170145-62.637346-60.327003z" fill="#FFF9DB" p-id="3305"></path><path d="M818.501122 389.256848c-26.556237-16.189319-35.315226-13.180796-39.838588-5.653145-4.51913 7.536115-3.101613 16.7394 23.458856 32.924488 22.172512 13.502383 68.193167 33.207991 72.724992 25.676106 4.514899-7.523421-34.168517-39.436605-56.34526-52.947449z" fill="#FFFFED" fill-opacity=".74" p-id="3306"></path><path d="M829.557758 401.722538c-21.22891-12.931144-27.821424-11.183578-30.952657-5.966267-3.127001 5.208848-1.60793 11.911378 19.62098 24.83829 17.721084 10.798521 54.102621 27.190946 57.229622 21.977868 3.12277-5.200385-28.17263-30.047138-45.897945-40.849891z" fill="#FFFFFF" p-id="3307"></path><path d="M872.104438 357.030541c-12.698417-30.766476-26.315048-33.643824-40.100934-29.924428-13.785886 3.715165-22.536412 12.626484-9.833763 43.388728 10.595414 25.680338 42.034681 71.726382 55.820568 68.011217 13.794349-3.719397 4.718006-55.790948-5.885871-81.475517z" fill="#FFF9DB" p-id="3308"></path><path d="M865.660023 365.675281c-11.318983-27.423673-22.439089-30.262939-33.483032-27.284037-11.043942 2.974671-17.8311 10.646191-6.512117 38.065633 9.452937 22.89608 36.457702 64.211424 47.501644 61.232522 11.03971-2.978902 1.946442-49.122269-7.506495-72.014118z" fill="#FFFFED" fill-opacity=".74" p-id="3309"></path><path d="M865.296123 381.356832c-9.050955-21.922859-16.98059-24.449002-24.618258-22.384081-7.646131 2.06069-12.110253 7.929635-3.059299 29.844031 7.544578 18.296553 28.17263 51.568015 35.806067 49.507326 7.6419-2.06069-0.579701-38.670722-8.12851-56.967276z" fill="#FFFFFF" p-id="3310"></path><path d="M921.493284 383.857587c9.457169-26.53508 2.386507-35.306763-8.577038-39.859744-10.959314-4.54875-21.656281-3.160852-31.117681 23.365765-7.900015 22.151355-14.111703 68.150853-3.15239 72.703835 10.955083 4.557213 34.942863-34.062733 42.847109-56.209856z" fill="#FFF9DB" p-id="3311"></path><path d="M918.785191 388.880253c8.437402-23.636574 2.945051-31.121913-5.818168-34.765144-8.771683-3.639-17.492588-2.06069-25.92576 21.584348-7.045273 19.747922-13.396598 60.415863-4.629146 64.054863 8.767451 3.639 29.327801-31.121913 36.373074-50.874067z" fill="#FFFFED" fill-opacity=".74" p-id="3312"></path><path d="M909.577675 398.946743c6.744844-18.89318 3.118538-24.559019-2.949283-27.072468-6.067821-2.521912-12.271046-0.952064-19.011659 17.94958-5.627756 15.774642-11.46285 47.958635-5.395029 50.472083 6.067821 2.51768 21.728215-25.570322 27.355971-41.349195z" fill="#FFFFFF" p-id="3313"></path><path d="M952.729445 427.817553c25.925759-12.385294 25.929991-22.747981 19.80293-32.602901-6.12706-9.846457-16.062377-15.46575-41.983905-3.076224-21.647819 10.337299-58.025124 38.078327-51.906526 47.929015 6.12706 9.85492 52.435451-1.912591 74.087501-12.24989z" fill="#FFF9DB" p-id="3314"></path><path d="M943.483846 423.882356c23.111881-11.03971 23.581566-19.532121 18.68161-27.385591-4.874567-7.861933-13.269656-12.118716-36.381537-1.083237-19.295163 9.224442-52.19003 33.199528-47.298537 41.06146 4.88303 7.85347 45.711764-3.376653 64.998464-12.592632z" fill="#FFFFED" fill-opacity=".74" p-id="3315"></path><path d="M928.949003 425.143311c18.461578-8.822459 19.261312-14.915669 15.876195-20.365705-3.380885-5.437343-9.656044-8.162362-28.121853 0.664329-15.427667 7.366859-42.127772 25.841131-38.746887 31.278474 3.376653 5.441574 35.564878-4.210238 50.992545-11.577098z" fill="#FFFFFF" p-id="3316"></path><path d="M947.309027 480.989267c30.114841 7.299157 37.397072-1.349815 39.246192-13.760497 1.853351-12.393757-2.416127-23.848144-32.530967-31.147302-25.142951-6.097441-74.675665-7.679983-76.537479 4.718006-1.844888 12.40222 44.670841 34.092352 69.822254 40.189793z" fill="#FFF9DB" p-id="3317"></path><path d="M942.442923 471.409388c26.848203 6.512117 33.178371-0.24119 34.646665-10.096109 1.480988-9.85492-2.479598-19.096287-29.319339-25.599942-22.413701-5.42888-66.420213-7.811156-67.892738 2.043764-1.476757 9.850688 40.139016 28.219176 62.565412 33.652287z" fill="#FFFFED" fill-opacity=".74" p-id="3318"></path><path d="M929.532935 462.586929c21.448943 5.196153 26.38275 0.664329 27.410979-6.160912 1.015535-6.816778-2.263797-13.345821-23.716971-18.541974-17.911496-4.33718-52.94745-7.09605-53.967216-0.275041-1.019766 6.821009 32.353249 20.636515 50.273208 24.977927z" fill="#FFFFFF" p-id="3319"></path><path d="M913.089733 508.920708c20.539193 23.640806 30.246014 23.915846 37.380147 18.65199 7.129901-5.24693 8.97479-14.03977-11.560173-37.693269-17.154077-19.735228-55.689394-53.184408-62.823526-47.933247-7.121438 5.263856 19.845244 47.235066 37.003552 66.974526z" fill="#FFF9DB" p-id="3320"></path><path d="M913.593269 500.711801c18.305016 21.085043 26.437758 21.711289 32.141679 17.505282 5.69969-4.206007 6.808315-11.653263-11.500932-32.729843-15.288031-17.598373-49.101112-47.802073-54.805033-43.600297-5.695458 4.206007 18.876255 41.222253 34.164286 58.824858z" fill="#FFFFED" fill-opacity=".74" p-id="3321"></path><path d="M907.411201 487.590244c14.619471 16.840953 20.628052 17.712621 24.575944 14.801421 3.939429-2.9112 4.33718-8.500873-10.299217-25.333364-12.211807-14.065158-38.742656-38.564937-42.686316-35.653737-3.94366 2.902737 16.19355 32.120522 28.409589 46.18568z" fill="#FFFFFF" p-id="3322"></path><path d="M835.862537 435.827585c0.858973 21.685901 20.179524 40.710255 43.147538 42.491672 22.980708 1.781417 40.913362-14.357124 40.05862-36.038794-0.854742-21.690133-20.179524-40.706023-43.15177-42.491672-22.980708-1.785649-40.904899 14.352893-40.054388 36.038794z" fill="#FFF9DB" p-id="3323"></path><path d="M844.625756 434.443918c0.715106 17.945348 16.697086 33.681907 35.712977 35.150202 19.003196 1.476757 33.846931-11.877527 33.131826-29.818643-0.710874-17.932653-16.692855-33.677676-35.704514-35.150202-19.003196-1.472526-33.838469 11.881758-33.140289 29.818643z" fill="#FFFFED" fill-opacity=".74" p-id="3324"></path><path d="M864.538703 432.129345c0.401983 10.328836 9.609499 19.392485 20.551887 20.238764 10.942388 0.846279 19.485576-6.842166 19.083593-17.175234-0.410445-10.328836-24.178193 5.619293-20.259921-12.728037 2.098772-9.867614-19.967955-5.255393-19.375559 9.664507z" fill="#EDD796" fill-opacity=".56" p-id="3325"></path><path d="M654.966154 728.60206c-12.643409 20.564581-14.31481 53.425598 1.079006 65.582396 15.398048 12.139873 32.17553 14.987602 54.669628-21.580116 18.783164-30.53798 42.174317-98.697296 26.77627-110.845632-15.381122-12.156799-63.741739 36.305372-82.524904 66.843352z" fill="#FFF9DB" p-id="3326"></path><path d="M669.572931 729.14791c-20.048351 32.585976-13.891671 46.727299-1.557153 56.484896 12.34298 9.723746 26.183874 11.369759 46.223762-21.216216 16.735169-27.229029 38.708805-87.103273 26.386982-96.835482-12.34298-9.736441-54.318422 34.350467-71.053591 61.566802z" fill="#FFFFED" fill-opacity=".74" p-id="3327"></path><path d="M686.710082 717.909324c-16.024294 26.044238-12.177956 36.495785-3.634768 43.24486 8.534724 6.740613 18.516586 7.201835 34.532417-18.842403 13.383903-21.749372 32.018969-68.743249 23.475781-75.47963-8.534724-6.749076-41.006452 29.32357-54.37343 51.077173z" fill="#FFFFFF" p-id="3328"></path><path d="M629.675104 640.978325c-24.347449 7.58266-43.09253 28.642315-37.113568 49.477706 5.978962 20.835391 18.537743 35.848381 58.761387 25.993461 33.593048-8.230064 92.900285-40.845659 86.917092-61.676818-5.983193-20.852316-75.610803-24.068177-108.564911-13.794349z" fill="#FFF9DB" p-id="3329"></path><path d="M641.713424 652.597737c-35.87377 8.784377-38.839978 24.013169-34.041575 40.731411 4.785708 16.705549 15.546146 28.587307 51.40299 19.80293 29.941353-7.33724 83.244241-34.900549 78.445839-51.618791-4.78994-16.705549-65.861668-16.25279-95.807254-8.91555z" fill="#FFFFED" fill-opacity=".74" p-id="3330"></path><path d="M662.730765 657.42999c-28.667703 7.024116-31.468887 17.729546-28.143011 29.310876 3.313183 11.551709 11.49247 19.595592 40.151711 12.567244 23.928541-5.860483 66.92798-26.429295 63.614797-37.993699-3.313183-11.568635-51.707651-9.753366-75.623497-3.884421z" fill="#FFFFFF" p-id="3331"></path><path d="M660.213085 575.8233c-21.542034-17.327564-52.050394-11.754816-58.67676 5.297707-6.643291 17.056755-3.977512 38.078327 35.171359 59.539963 32.69176 17.915728 99.937095 35.260217 106.580385 18.199232 6.630597-17.052523-53.34097-59.10413-83.074984-83.036902z" fill="#FFF9DB" p-id="3332"></path><path d="M663.771688 591.293281c-34.883623-19.130138-46.194143-10.921231-51.914989 3.740553-5.69969 14.653322-3.643231 30.191006 31.248854 49.321145 29.137388 15.977749 89.400921 34.621277 95.117536 19.972186 5.695458-14.661785-45.314013-57.039209-74.451401-73.033884z" fill="#FFFFED" fill-opacity=".74" p-id="3333"></path><path d="M678.437704 609.255554c-27.897589-15.288031-36.432314-10.00725-40.388668 0.139636-3.94366 10.138423-1.806806 21.279687 26.086552 36.57195 23.285369 12.774583 70.943574 28.938513 74.891466 18.80009 3.935198-10.138423-37.312444-42.749787-60.58935-55.511676z" fill="#FFFFFF" p-id="3334"></path><path d="M716.224065 549.859458c-19.752153-42.754019-33.889245-46.092589-46.651134-40.08824-12.774583 5.995887-19.337477 19.049742 0.397751 61.786835 16.485516 35.700282 58.317091 99.001957 71.091673 93.00607 12.76612-6.000119-8.361237-79.025539-24.83829-114.704665z" fill="#FFF9DB" p-id="3335"></path><path d="M711.865728 562.409776c-17.594142-38.112178-29.670544-41.33227-40.405595-36.292678-10.726587 5.052286-16.058145 16.426277 1.540228 54.538455 14.695636 31.807399 51.453767 88.491171 62.188818 83.464273 10.726587-5.048055-8.627815-69.89842-23.323451-101.71005z" fill="#FFFFED" fill-opacity=".74" p-id="3336"></path><path d="M714.878481 584.696536c-14.065158-30.457584-22.77337-33.453412-30.2037-29.962511-7.426099 3.482438-10.760438 12.139873 3.317414 42.580532 11.729428 25.430686 40.18133 71.155144 47.61166 67.660011 7.413405-3.469744-8.983252-54.855809-20.725374-80.278032z" fill="#FFFFFF" p-id="3337"></path><path d="M796.163586 566.594626c8.902856-44.0319-4.193313-57.487737-22.443321-63.690962-18.241545-6.198994-34.748219-2.792721-43.63838 41.230716-7.434562 36.7539-6.816778 111.988109 11.424767 118.195566 18.250008 6.207457 47.226603-58.98142 54.656934-95.73532z" fill="#FFF9DB" p-id="3338"></path><path d="M782.436939 571.435343c7.938098-39.250423-2.386507-50.789438-17.010209-55.757097-14.61524-4.967658-27.986449-1.480988-35.916084 37.765204-6.617902 32.767926-7.417636 99.37432 7.197604 104.337746 14.611008 4.97189 39.115019-53.582159 45.728689-86.345853z" fill="#FFFFED" fill-opacity=".74" p-id="3339"></path><path d="M770.242058 588.733287c6.33863-31.367334-0.647403-40.168636-10.76467-43.591835-10.121498-3.440124-19.532121-0.224264-25.862288 31.14307-5.297707 26.179643-7.193372 78.970531 2.906968 82.406424 10.121498 3.431662 28.426514-43.773785 33.71999-69.957659z" fill="#FFFFFF" p-id="3340"></path><path d="M831.343406 633.789184c30.554906-22.625271 29.222016-37.773666 20.357243-51.119487-8.864773-13.337358-21.893239-19.828319-52.443913 2.784258-25.506851 18.884717-67.063385 65.772809-58.198612 79.110168 8.85631 13.345821 64.7742-11.890221 90.285282-30.774939z" fill="#FFF9DB" p-id="3341"></path><path d="M824.535091 637.381639c27.23326-20.154136 26.704336-32.666372 19.620981-43.33372-7.09605-10.684273-18.055364-15.469981-45.280162 4.688386-22.74375 16.836722-60.432788 57.640067-53.34097 68.311647 7.083356 10.663116 56.25217-12.821128 79.000151-29.666313z" fill="#FFFFED" fill-opacity=".74" p-id="3342"></path><path d="M806.644752 641.748439c21.766298-16.108922 21.965173-25.176802 17.04406-32.560587-4.891493-7.388016-13.036929-10.290753-34.798995 5.8224-18.169612 13.443143-48.902236 45.1236-43.998049 52.507385 4.916881 7.383785 43.583372-12.321823 61.752984-25.769198z" fill="#FFFFFF" p-id="3343"></path><path d="M833.302542 706.539564c38.366062 5.61083 46.160292-6.00435 46.701911-21.652049 0.537387-15.643469-6.380944-29.403966-44.738543-35.010566-32.035894-4.688386-93.657704-0.952064-94.207786 14.691405-0.541619 15.6477 60.208524 37.278593 92.244418 41.97121z" fill="#FFF9DB" p-id="3344"></path><path d="M825.897601 695.182499c34.2066 5.005741 41.116469-4.159462 41.526914-16.646309 0.444297-12.482616-5.754698-23.560409-39.957067-28.570381-28.557687-4.163693-83.451579-2.026838-83.874718 10.46424-0.444297 12.465691 53.764109 30.5676 82.304871 34.75245z" fill="#FFFFED" fill-opacity=".74" p-id="3345"></path><path d="M808.658896 685.66186c27.326351 3.998669 32.801777-2.234177 33.102206-10.883149 0.300429-8.632046-4.688386-16.40512-32.018969-20.395326-22.828378-3.342802-66.640245-2.712324-66.940674 5.919723-0.300429 8.632046 43.029059 22.01595 65.857437 25.358752z" fill="#FFFFFF" p-id="3346"></path><path d="M787.256498 762.055471c28.261489 30.821484 42.923274 26.607014 54.326885 14.086315 11.386685-12.491079 15.220329-28.540762-13.045392-59.362245-23.59426-25.743809-77.916914-64.753043-89.320524-52.266195-11.399379 12.512236 24.427845 71.806779 48.039031 97.542125z" fill="#FFF9DB" p-id="3347"></path><path d="M788.999833 747.664496c25.189496 27.478681 37.363221 24.669035 46.414176 14.73795 9.076343-9.939548 11.581329-23.272674-13.608168-50.738662-21.042729-22.929931-68.561299-58.693685-77.620716-48.754137-9.059417 9.926853 23.763516 61.80376 44.814708 84.754849z" fill="#FFFFED" fill-opacity=".74" p-id="3348"></path><path d="M781.159058 728.073135c20.141442 21.944016 29.073917 20.577276 35.357539 13.692796 6.258234-6.876017 7.493801-16.659003-12.643409-38.611483-16.815565-18.330405-54.005299-47.759759-60.271995-40.883742-6.275159 6.871786 20.746531 47.455099 37.557865 65.802429z" fill="#FFFFFF" p-id="3349"></path><path d="M727.898485 767.628219c5.234236 41.941591 15.918509 49.549639 27.867969 49.012252 11.932535-0.520462 20.615358-8.987484 15.381122-50.933305-4.383726-35.014796-22.426395-101.473092-34.371624-100.948399-11.936766 0.537387-13.265424 67.850424-8.877467 102.869452z" fill="#FFF9DB" p-id="3350"></path><path d="M734.630635 758.814223c4.667229 37.388609 13.31197 44.209619 22.862229 43.782247 9.546028-0.431602 16.388194-7.942329 11.716733-45.322475-3.897115-31.223466-19.087824-90.492621-28.642315-90.073713-9.541796 0.431602-9.829531 60.394706-5.936647 91.613941z" fill="#FFFFED" fill-opacity=".74" p-id="3351"></path><path d="M737.571454 739.451357c3.723628 29.86942 9.799912 35.361771 16.413583 35.065574 6.600977-0.300429 11.247049-6.258234 7.498032-36.131885-3.101613-24.944076-14.420595-72.35686-21.030034-72.0522-6.600977 0.291966-5.995887 48.178667-2.881581 73.118511z" fill="#FFFFFF" p-id="3352"></path><path d="M696.298424 627.64943c-15.334577 24.948307-7.993106 60.792457 16.413583 80.066462 24.419383 19.265543 56.649921 14.670248 71.997191-10.28229 15.347271-24.948307 7.984643-60.783994-16.417814-80.062232-24.419383-19.274006-56.632995-14.661785-71.99296 10.27806z" fill="#FFF9DB" p-id="3353"></path><path d="M707.164647 632.689022c-12.689955 20.649209-6.60944 50.302828 13.595474 66.250956 20.192219 15.939666 46.862703 12.139873 59.552658-8.513567 12.689955-20.632284 6.613671-50.294365-13.591242-66.238263-20.187987-15.939666-46.850009-12.13141-59.55689 8.500874z" fill="#FFFFED" fill-opacity=".74" p-id="3354"></path><path d="M731.22013 645.065853c-7.316083 11.877527-3.808256 28.955438 7.819618 38.137566 11.632106 9.173665 26.987839 6.981802 34.299691-4.899956 7.30762-11.88599-31.316557-11.88599-13.134251-29.501288 9.76606-9.478326-18.427727-20.903093-28.985058-3.736322z" fill="#EDD796" fill-opacity=".56" p-id="3355"></path><path d="M577.214265 436.106857c-17.615299 25.946916-54.157629 44.535436-74.908392 31.638143-20.7423-12.88883-31.566209-32.188224-0.236958-78.344285 26.150023-38.535317 92.942599-101.68043 113.68913-88.783137 20.7423 12.88883-12.393757 96.945499-38.54378 135.489279z" fill="#FFF9DB" p-id="3356"></path><path d="M569.98281 418.351922c-27.922978 41.141857-46.744224 40.646784-63.377839 30.313716-16.620921-10.337299-24.749431-26.598551 3.169315-67.731945 23.31922-34.354699 81.335881-91.580089 97.948339-81.251253 16.633615 10.337299-14.424827 84.319015-37.739815 118.669482z" fill="#FFFFED" fill-opacity=".74" p-id="3357"></path><path d="M574.988551 391.554495c-22.307916 32.877942-35.903389 33.381478-47.417016 26.221957-11.509395-7.151058-16.561681-19.244386 5.750466-52.118096 18.630834-27.440599 63.547095-74.066344 75.052259-66.919518 11.505164 7.151058-14.746413 65.366595-33.385709 92.815657z" fill="#FFFFFF" p-id="3358"></path><path d="M688.081054 423.28996c2.403433 33.876551-13.015772 67.596541-39.373133 70.693922-26.348899 3.097381-49.054566-4.857642-56.061757-59.484955-5.85202-45.605979 4.345643-135.226932 30.698773-138.324314 26.35313-3.09315 61.486406 81.263948 64.736117 127.115347z" fill="#FFF9DB" p-id="3359"></path><path d="M669.450221 414.272857c6.241308 48.690666-9.689895 60.030806-30.825715 62.514635-21.140051 2.483829-39.466224-4.840716-45.7117" fill="#FFFFED" fill-opacity=".74" p-id="3360"></path></svg>