<?xml version="1.0" standalone="no"?><!DOCTYPE svg PUBLIC "-//W3C//DTD SVG 1.1//EN" "http://www.w3.org/Graphics/SVG/1.1/DTD/svg11.dtd"><svg t="1721421845719" class="icon" viewBox="0 0 1024 1024" version="1.1" xmlns="http://www.w3.org/2000/svg" p-id="3512" xmlns:xlink="http://www.w3.org/1999/xlink" width="200" height="200"><path d="M687.997367 960.573902c-5.341454 34.885193-38.581832 63.426098-73.878229 63.426098H400.225994c-35.292201 0-68.536774-28.540905-73.874033-63.426098l-44.749889-292.374338c-5.337258-34.885193 19.167135-63.426098 54.459336-63.426098h342.230709c35.296397 0 59.80079 28.540905 54.459336 63.426098l-44.754086 292.374338z" fill="#E4BC96" p-id="3513"></path><path d="M678.287921 604.773466H336.057212c-26.665312 0-47.149978 16.309688-53.276076 39.32032-1.602856 10.208765-1.615444 21.244134 0.205602 33.135479 0 0 171.425855 38.762258 333.985652 38.762258 0 0 77.012609-19.955975 59.888905 59.893101-17.111116 79.832293 23.421836 240.373834-298.93262 244.271879 7.166696 2.437851 14.673264 3.839301 22.293123 3.839301h213.893144c35.296397 0 68.536774-28.540905 73.878229-63.426098l44.745694-292.374338c2.064411-13.448045-0.35246-25.926823-6.071551-36.219508a405.820449 405.820449 0 0 0-44.279943-27.000988c-1.355294-0.079723-2.706393-0.201406-4.09945-0.201406z" fill="#D5AE86" p-id="3514"></path><path d="M377.928675 1019.233392c131.706919 0 201.964036-90.276032 236.190463-161.569551s-34.222232-96.964388-34.222231-96.964388c-136.364432-14.257865-270.005687-75.027921-270.005688-75.027921-2.622474-29.380096 3.293827-56.452416 15.822957-80.89387-29.57311 4.99319-48.91228 31.146595-44.112104 62.498791l44.749889 292.370142c4.187566 27.345057 25.544991 50.72913 51.576714 59.586797z" fill="#FFFFFF" opacity=".46" p-id="3515"></path><path d="M756.714568 637.573268c0 27.449956-28.880777 49.910918-64.168783 49.910918H321.799347c-35.292201 0-64.164586-22.460962-64.164586-49.910918s28.872386-49.910918 64.164586-49.910918h370.746438c35.288005 0 64.168782 22.460962 64.168783 49.910918z" fill="#E4BC96" p-id="3516"></path><path d="M360.301456 830.075419s-19.964367 125.484314 25.666674 125.484314 111.222253-36.605536 111.222253-108.373198-132.613246-79.769353-136.888927-17.111116z" fill="#FFFFFF" opacity=".45" p-id="3517"></path><path d="M303.710573 811.718104s18.688796 0.448967 26.228932-26.228932c0 0 66.006612 10.393387 97.379789-32.384403 0 0 55.604833 41.35536 86.978009 9.982184 0 0 74.734204 39.349692 114.0797 0 0 0 15.055097 91.841124 82.467354 48.228339l11.291322-84.775131-428.608695 2.018255 10.183589 83.159688z" fill="#BD9971" opacity=".35" p-id="3518"></path><path d="M155.366682 397.144887a375.181565 264.458631 0 1 0 750.36313 0 375.181565 264.458631 0 1 0-750.36313 0Z" fill="#6EA86E" p-id="3519"></path><path d="M498.608616 218.002665s58.181151-105.687785-180.682138-176.809269c0 0-68.071023 143.975899 27.827592 205.379546 95.890223 61.424626 143.719946-10.544442 152.854546-28.570277z" fill="#85CC85" p-id="3520"></path><path d="M498.608616 218.002665a93.511115 93.511115 0 0 1-7.271594 11.845189c-0.004196-0.075527-22.045562-113.744024-98.886138-161.452064 151.0335 68.050043 106.157732 149.606875 106.157732 149.606875z" fill="#94E394" p-id="3521"></path><path d="M435.073424 268.983552a4.237917 4.237917 0 0 0-0.348265 0.088115c-1.187456 0.201406-5.496705 0.902131-12.143102 1.644816-21.000769 1.342706-46.512192-4.720453-76.823791-24.143541C249.859651 185.169295 317.930674 41.193396 317.930674 41.193396c6.877175 2.056019 13.544552 4.149802 19.972759 6.260369-0.016784 0.251757-10.55703 179.473702 97.169991 221.529787z" fill="#6EA86E" p-id="3522"></path><path d="M494.30776 225.458882s-76.521682-19.565751-80.784776-65.133853c-4.263093-45.555514-13.804701-61.63862-13.804701-61.638619s1.086753 35.917399-6.688356 51.2788c0 0-52.1096-85.86608-65.570233-92.684512 0 0 33.387236 53.070474 41.275637 77.163664 0 0-14.744596 0.574846-44.766674-22.666564 0 0 85.987763 87.980843 118.69945 97.656721 0 0-37.125834 7.947144-52.495628 0.167839 0 0 42.551208 25.553383 72.401252 15.751625 0 0 10.171002 10.590597 28.767486 4.493871l2.966543-4.388972z" fill="#5C8C5C" p-id="3523"></path><path d="M476.533682 492.909231a203.667595 192.896571 90 1 0 385.793143 0 203.667595 192.896571 90 1 0-385.793143 0Z" fill="#E8E3C7" p-id="3524"></path><path d="M796.672674 541.70822s49.785039-49.70112 128.287213 72.61105c0 0-69.644507 61.433018-119.559621 17.652394-49.923506-43.784819-17.346089-82.223989-8.727592-90.263444z" fill="#85CC85" p-id="3525"></path><path d="M796.672674 541.70822c-1.367882 1.275571-3.335786 3.298023-5.467333 5.996024 0.04196-0.008392 67.298967-6.050571 106.455645 29.275197-62.557535-73.601296-100.988312-35.271221-100.988312-35.271221z" fill="#94E394" p-id="3526"></path><path d="M778.390886 585.560175l0.008391 0.209798c0.083919 0.692333 0.386028 3.222496 1.040598 7.070189 2.656041 11.979459 10.179394 25.289038 25.964587 39.131502 49.915114 43.780624 119.559621-17.652394 119.559621-17.652394-2.270013-3.524605-4.514851-6.914938-6.742904-10.175198-0.134271 0.046156-98.83159 34.96072-139.830293-18.583897z" fill="#6EA86E" p-id="3527"></path><path d="M793.181637 545.329332s23.346309 39.697957 49.571045 34.708963c26.207952-4.980602 36.764982-2.236445 36.764982-2.236446s-20.300044 5.198792-27.64297 12.038203c0 0 56.540531 15.302658 62.528163 21.747649 0 0-35.132755-10.129042-49.910918-10.645145 0 0 2.064411 8.354152 19.947584 21.416169 0 0-63.207908-33.932711-73.920189-50.695562 0 0 1.565092 22.091718 8.4087 29.443036 0 0-21.210567-19.700022-20.551802-38.015378 0 0-7.582096-3.98616-7.170891-15.390773l1.976296-2.370716z" fill="#5C8C5C" p-id="3528"></path><path d="M199.894186 537.512263s-44.703734-39.160874-111.679613 70.49209c0 0 62.377108 47.880074 105.566102 7.175088 43.193189-40.679811 13.842465-71.369046 6.113511-77.667178z" fill="#85CC85" p-id="3529"></path><path d="M199.894186 537.512263c1.22522 0.994442 2.983326 2.601494 4.90927 4.758216-0.037764 0-59.343431-0.730097-93.209006 32.031941 53.800571-67.001054 88.299736-36.790158 88.299736-36.790157z" fill="#94E394" p-id="3530"></path><path d="M216.749348 573.761142v0.180426c-0.058743 0.604218-0.285325 2.78192-0.801428 6.105119-2.114763 10.405975-8.509402 22.27634-22.167245 35.132754-43.184798 40.704986-105.566102-7.175088-105.566102-7.175088 1.930141-3.159556 3.851889-6.205822 5.752658-9.138796 0.121683 0.033568 87.61999 23.337917 122.782117-25.104415z" fill="#6EA86E" p-id="3531"></path><path d="M203.020174 540.373906s-19.859468 35.460039-43.029547 32.929876c-23.165883-2.530163-32.409578 0.507711-32.409578 0.507711s17.962895 3.109205 24.550549 8.467443c0 0-49.508106 16.800615-54.677526 22.695936 0 0 30.756371-10.959842 43.755448-12.382272 0 0-1.669991 7.275791-17.182447 19.603515 0 0 55.050966-33.152262 64.189762-48.177987 0 0-0.98605 18.969925-6.885567 25.696045 0 0 18.323748-18.223045 17.425813-33.823615 0 0 6.604438-3.906437 6.046375-13.615883l-1.783282-1.900769z" fill="#5C8C5C" p-id="3532"></path><path d="M459.049126 395.827356s73.853053-40.931568-41.149758-172.063641c0 0-93.972671 59.926669-60.044156 132.034204 33.920123 72.11173 89.067596 47.305228 101.193914 40.029437z" fill="#85CC85" p-id="3533"></path><path d="M459.049126 395.827356c-1.913357 1.153888-4.900879 2.73996-8.723396 4.305053 0.025176-0.046156 29.329745-75.594375 1.581876-132.487367 64.118431 96.586752 7.14152 128.182314 7.14152 128.182314z" fill="#94E394" p-id="3534"></path><path d="M402.42048 402.356266a2.689609 2.689609 0 0 0-0.239169-0.075527 154.23082 154.23082 0 0 1-7.804482-3.553976c-12.940334-7.028229-25.792553-20.123814-36.513225-42.920452C323.930894 283.69458 417.90776 223.772107 417.90776 223.772107c3.310611 3.784754 6.474363 7.506568 9.499649 11.14866-0.109095 0.142663-73.131348 102.377174-24.986929 167.435499z" fill="#6EA86E" p-id="3535"></path><path d="M453.728652 398.638648s-38.044749-40.100769-23.585479-68.687829c14.446683-28.574473 14.786555-41.657469 14.786555-41.657469s-12.738928 21.68471-23.06518 27.886335c0 0 1.124517-70.282293-4.309248-79.337169 0 0 0.004196 43.881327-4.300857 61.093145 0 0-8.949978-5.156832-18.07199-30.110193 0 0 18.151713 84.154129 33.928515 102.079261 0 0-24.953361-9.130404-31.159183-19.460852 0 0 15.680294 30.987148 37.01674 36.307622 0 0 2.076999 10.066103 15.369793 13.38091l3.390334-1.493761z" fill="#5C8C5C" p-id="3536"></path><path d="M563.415184 410.332782s-48.69409-81.531656 137.220408-144.08919c0 0 57.539169 111.36072-16.192201 162.329019-73.727174 50.972495-113.341212-4.317641-121.028207-18.239829z" fill="#85CC85" p-id="3537"></path><path d="M563.415184 410.332782c1.20424 2.198682 3.222496 5.429569 6.046376 9.11362 0.008392-0.058743 14.194925-90.078822 73.31597-129.739014-116.92456 57.711203-79.362346 120.625394-79.362346 120.625394z" fill="#94E394" p-id="3538"></path><path d="M614.807275 448.675444a1.476977 1.476977 0 0 1 0.276934 0.06294c0.935699 0.121683 4.351208 0.545475 9.587763 0.948286 16.569837 0.465751 36.458677-5.005778 59.767223-21.114059 73.73137-50.964103 16.192201-162.329019 16.192201-162.329019-5.349846 1.804262-10.540246 3.637895-15.52924 5.475725 0.016784 0.205602 13.280206 140.883479-70.294881 176.956127z" fill="#6EA86E" p-id="3539"></path><path d="M567.002728 416.081244s59.653932-17.513928 61.743519-53.477482c2.089587-35.959358 9.147188-48.866124 9.147188-48.866124s0.138467 28.280755 6.688357 40.142728c0 0 38.607008-68.989938 49.017179-74.725812 0 0-24.798111 42.668695-30.336775 61.840026 0 0 11.614411 0.04196 34.591476-19.070628 0 0-65.192596 71.595628-90.66206 80.113422 0 0 29.422056 5.215576 41.288225-1.325923 0 0-32.757842 21.281898-56.515356 14.396331 0 0-7.71217 8.614301-22.49453 4.334424l-2.467223-3.360962z" fill="#5C8C5C" p-id="3540"></path><path d="M272.496843 324.02193s-1.518937-90.884446-184.315837-47.972385c0 0 9.382162 119.614169 95.072011 123.86887 85.677262 4.267289 90.015882-60.690333 89.243826-75.896485z" fill="#85CC85" p-id="3541"></path><path d="M272.496843 324.02193c0.125879 2.400088 0.117487 6.046375-0.323088 10.464719-0.033568-0.046156-56.993695-66.115707-125.089894-68.549362 124.22133-12.038203 125.412982 58.084644 125.412982 58.084643z" fill="#94E394" p-id="3542"></path><path d="M250.035881 381.133112l-0.19721 0.188818c-0.700725 0.579042-3.256063 2.651845-7.326142 5.622583-13.225659 8.735984-32.174604 14.320804-59.263708 12.969706-85.685654-4.250505-95.067816-123.864674-95.067815-123.864674 5.265927-1.229416 10.405975-2.358128 15.399165-3.386138 0.083919 0.172034 60.274934 121.296748 146.45571 108.469705z" fill="#6EA86E" p-id="3543"></path><path d="M272.471668 330.504685s-57.350351 15.852329-77.201428-12.348704c-19.838488-28.188444-32.099077-35.132755-32.099077-35.132754s14.161358 23.077768 14.824319 36.030689c0 0-66.212214-36.639103-77.56228-36.055865 0 0 41.695233 22.200813 55.873374 35.00268 0 0-9.424121 5.891125-37.759424 1.934337 0 0 89.155711 25.335193 114.16362 19.414696 0 0-21.302878 19.091608-34.264192 19.758765 0 0 37.381788 0.780448 53.234117-16.800615 0 0 10.615773 3.117597 20.493058-7.829657l0.297913-3.973572z" fill="#5C8C5C" p-id="3544"></path><path d="M795.741171 300.419668c9.163972 18.588093 31.755009 34.008238 46.948572 27.370233 15.201955-6.638005 24.40369-18.357315 8.098198-51.408875-13.603295-27.605206-51.924978-74.931414-67.126933-68.293409-15.201955 6.633809-1.531525 64.735237 12.080163 92.332051z" fill="#FFF9DB" p-id="3545"></path><path d="M802.370784 289.405279c14.530602 29.45982 27.189806 30.794134 39.379064 25.473659 12.176669-5.316279 19.267838-15.277482 4.745628-44.741497-12.138906-24.596705-45.190465-67.277987-57.367135-61.961709-12.172474 5.32467 1.111929 56.62445 13.242443 81.229547z" fill="#FFFFED" opacity=".74" p-id="3546"></path><path d="M801.737195 271.366856c11.614411 23.547715 20.669288 25.075044 29.103163 21.390993 8.433875-3.679855 13.028449-11.173836 1.426625-34.717355-9.696858-19.658062-35.044639-54.224362-43.474318-50.544507-8.425483 3.684051 3.251867 44.212807 12.94453 63.870869z" fill="#FFFFFF" p-id="3547"></path><path d="M722.794445 282.246975c-5.039345 22.028778 1.867201 45.521946 19.200703 49.873154 17.333502 4.355404 33.345277 1.128713 43.575021-34.117333 8.538774-29.422056 10.792003-89.151515-6.541498-93.502723-17.341894-4.351208-49.415795 47.930426-56.234226 77.746902z" fill="#FFF9DB" p-id="3548"></path><path d="M736.183746 277.971294c-9.122012 31.41094 0.402812 40.260215 14.308216 43.751252 13.901208 3.491037 26.912873 0.297913 36.034886-31.113027 7.611467-26.228932 10.875923-79.156744-3.025286-82.643585-13.897012-3.495233-39.702153 43.772232-47.317816 70.00536z" fill="#FFFFED" opacity=".74" p-id="3549"></path><path d="M748.599585 263.851896c-7.284183 25.104415-0.893739 31.868299 8.735984 34.285171 9.612939 2.416872 18.806283-0.43638 26.094662-25.540795 6.079943-20.958809 9.898264-62.947759 0.276933-65.360435-9.612939-2.416872-29.031832 35.653053-35.107579 56.616059z" fill="#FFFFFF" p-id="3550"></path><path d="M689.667358 230.703829c-21.504284 9.147188-30.60112 35.057227-21.349033 47.502438 9.243695 12.449407 25.289038 19.431481 57.25804-1.510544 26.690487-17.484556 67.756326-61.861006 58.504239-74.314609-9.239499-12.453603-64.718453 15.688686-94.413246 28.322715z" fill="#FFF9DB" p-id="3551"></path><path d="M702.158724 234.610266c-28.494749 18.66362-27.512895 30.911621-19.561555 41.611313 7.95134 10.695496 19.84688 15.789389 48.34163-2.870035 23.799473-15.583787 62.792508-54.022956 54.84956-64.718453-7.947144-10.695496-59.82177 10.393387-83.629635 25.977175z" fill="#FFFFED" opacity=".74" p-id="3552"></path><path d="M721.170609 231.031114c-22.775659 14.920826-22.683348 23.774297-17.186643 31.175966 5.500901 7.40167 14.316608 10.544442 37.092267-4.372188 19.020277-12.453603 50.875988-42.236511 45.375087-49.633984-5.505097-7.397474-46.268826 10.376604-65.280711 22.830206z" fill="#FFFFFF" p-id="3553"></path><path d="M695.235394 176.370372c-38.762258-3.159556-47.170957 6.302329-48.391981 18.722364-1.212632 12.415839 5.228163 23.094552 43.973638 26.254107 32.363422 2.639257 95.155931-2.3875 96.36017-14.807535 1.212632-12.411643-59.595188-27.525483-91.941827-30.168936z" fill="#FFF9DB" p-id="3554"></path><path d="M702.255231 185.127336c-34.541124-2.819684-41.984754 5.098089-43.008567 15.537632-1.015422 10.435347 4.770804 19.439872 39.320321 22.25536 28.830426 2.353932 84.745759-1.615444 85.777965-12.046595 1.019618-10.435347-53.242508-23.396661-82.089719-25.746397z" fill="#FFFFED" opacity=".74" p-id="3555"></path><path d="M719.353759 192.386343c-27.609402-2.253229-33.462763 3.17634-34.167684 10.393387-0.704921 7.225439 4.00714 13.510984 31.60815 15.755822 23.0442 1.883985 67.643035-0.377636 68.339565-7.59888 0.704921-7.217047-42.73583-16.67054-65.780031-18.550329z" fill="#FFFFFF" p-id="3556"></path><path d="M741.298619 121.948799c-27.4038-25.784161-42.5596-21.479108-54.753053-10.07869-12.201845 11.392025-16.850966 25.578559 10.557029 51.362719 22.872166 21.529459 76.479723 53.406151 88.681568 42.005734 12.210237-11.396221-21.604987-61.756107-44.485544-83.289763z" fill="#FFF9DB" p-id="3557"></path><path d="M738.864963 134.608004c-24.428866-22.981261-37.033523-19.985347-46.810105-10.850747-9.776582 9.130404-13.024253 20.933633 11.400417 43.91909 20.404943 19.188115 67.282183 48.438137 77.050373 39.311929 9.784974-9.1346-21.252526-53.187961-41.640685-72.380272z" fill="#FFFFED" opacity=".74" p-id="3558"></path><path d="M745.90578 151.454775c-19.527988-18.369903-28.750703-16.767047-35.51039-10.443739-6.76808 6.314916-8.513598 14.954394 11.014389 33.3201 16.292904 15.336226 52.906832 39.500747 59.662324 33.185831 6.76808-6.323308-18.865026-40.725966-35.166323-56.062192z" fill="#FFFFFF" p-id="3559"></path><path d="M803.990424 123.732082c-2.966542-33.273945-14.274648-38.766454-27.538071-37.671309-13.242443 1.090949-23.421836 8.349956-20.463686 41.619705 2.475615 27.777241 17.929328 79.958172 31.184358 78.85883 13.255031-1.086753 19.284622-55.034182 16.817399-82.807226z" fill="#FFF9DB" p-id="3560"></path><path d="M803.633768 130.525337c-2.639257-29.648638-11.736094-34.625044-22.330888-33.752284-10.603185 0.872759-18.6846 7.263203-16.045342 36.920232 2.194486 24.760347 14.996353 71.356458 25.595342 70.475307s14.975373-48.874516 12.780888-73.643255z" fill="#FFFFED" opacity=".74" p-id="3561"></path><path d="M799.068565 146.180456c-2.106371-23.694574-8.459051-27.747869-15.793585-27.139455-7.334534 0.604218-12.873198 5.630975-10.758435 29.329745 1.75391 19.783941 11.073133 57.090202 18.399274 56.481787 7.330338-0.604218 9.915048-38.888137 8.152746-58.672077z" fill="#FFFFFF" p-id="3562"></path><path d="M856.410525 153.502402c20.396551-27.160435 15.495672-38.15804 4.632337-45.29956-10.859139-7.14152-23.568695-7.737346-43.969442 19.423088-17.031393 22.67076-40.746946 71.776054-29.896199 78.917574 10.867531 7.145716 52.193519-30.366146 69.233304-53.041102z" fill="#FFF9DB" p-id="3563"></path><path d="M845.182142 154.32481c18.185281-24.214872 14.652285-33.475351 5.975043-39.169266-8.660457-5.706503-19.167135-5.681327-37.352416 18.520957-15.168387 20.207733-37.15101 63.43449-28.477965 69.140993 8.660457 5.693915 44.678558-28.289147 59.855338-48.492684z" fill="#FFFFED" opacity=".74" p-id="3564"></path><path d="M831.062744 163.513957c14.52221-19.339169 12.449407-26.245716 6.449187-30.189916-6.00022-3.940004-13.636863-3.440685-28.167465 15.911072-12.130514 16.146046-30.437478 50.192047-24.437258 54.132051 5.987632 3.948396 34.025022-23.694574 46.155536-39.853207z" fill="#FFFFFF" p-id="3565"></path><path d="M876.060195 212.858421c33.95369-8.530382 37.222342-21.646946 33.240377-35.8125-3.990356-14.157162-13.724978-24.005074-47.670276-15.474692-28.339499 7.124736-79.249055 32.216564-75.271287 46.377921 3.990356 14.161358 61.353295 12.034007 89.701186 4.909271z" fill="#FFF9DB" p-id="3566"></path><path d="M866.602506 205.326677c30.265444-7.59888 33.483743-18.189477 30.315795-29.443036-3.163752-11.257755-11.538884-18.92377-41.795935-11.320694-25.259666 6.356876-70.953646 27.613598-67.781503 38.862961 3.163752 11.253559 53.989389 8.253449 79.261643 1.900769z" fill="#FFFFED" opacity=".74" p-id="3567"></path><path d="M849.361315 202.943373c24.177109-6.084139 27.034556-13.552944 24.840071-21.35323-2.186094-7.787698-8.597518-12.940334-32.783019-6.860391-20.195145 5.072913-56.964323 21.084688-54.778228 28.872386s42.521836 4.414148 62.721176-0.658765z" fill="#FFFFFF" p-id="3568"></path><path d="M854.614655 261.00284c31.977394 13.989323 41.942794 9.025505 46.671638-0.411203 4.737236-9.428317 2.450439-19.754569-29.535347-33.748089-26.690487-11.681546-81.535852-26.346419-86.273088-16.913906-4.728844 9.428317 42.429525 39.391652 69.136797 51.073198z" fill="#FFF9DB" p-id="3569"></path><path d="M851.245301 252.015099c28.503141 12.478778 37.033523 8.752768 40.822473 1.20424 3.784754-7.540136 1.384666-16.041147-27.118475-28.511533-23.807864-10.414367-72.32992-24.189697-76.110479-16.653757-3.784754 7.540136 38.598616 33.546682 62.406481 43.96105z" fill="#FFFFED" opacity=".74" p-id="3570"></path><path d="M838.783306 241.432893c22.775659 9.9654 29.258414 7.645035 31.880887 2.421068 2.614082-5.215576 0.377636-11.358458-22.398023-21.315466-19.020277-8.328976-57.472034-19.989543-60.086115-14.769771-2.618278 5.21138 31.578778 25.339389 50.603251 33.664169z" fill="#FFFFFF" p-id="3571"></path><path d="M741.856681 225.165165c11.119288 22.549077 39.681173 32.296287 63.782754 21.768629 24.109973-10.531854 34.633436-37.344024 23.518344-59.897297-11.12768-22.553273-39.681173-32.296287-63.791146-21.768629-24.109973 10.531854-34.625044 37.34822-23.509952 59.897297z" fill="#FFF9DB" p-id="3572"></path><path d="M750.076562 218.963539c9.210127 18.659424 32.829174 26.724055 52.785149 18.009051 19.939191-8.715004 28.65-30.899033 19.448265-49.562653-9.193344-18.651032-32.820782-26.715663-52.768365-18.009051-19.947583 8.715004-28.654196 30.903229-19.465049 49.562653z" fill="#FFFFED" opacity=".74" p-id="3573"></path><path d="M769.147191 205.73788c5.286907 10.745848 18.890202 15.390773 30.378734 10.376604 11.488532-5.018366 16.498506-17.795057 11.203207-28.540905-5.295299-10.741652-21.823176 19.028669-26.535237-2.555338-2.534359-11.606019-22.700132 5.207184-15.046704 20.719639z" fill="#EDD796" opacity=".56" p-id="3574"></path><path d="M590.588207 185.93296s-41.401515-69.308831 116.64343-122.484204c0 0 48.908084 94.665004-13.758545 137.984072-62.679217 43.331656-96.351779-3.667267-102.884885-15.499868z" fill="#85CC85" p-id="3575"></path><path d="M590.588207 185.93296c1.015422 1.867201 2.735764 4.615554 5.140048 7.745738 0-0.046156 12.054987-76.572034 62.318365-110.286555-99.385456 49.054942-67.458413 102.540816-67.458413 102.540817z" fill="#94E394" p-id="3576"></path><path d="M634.268128 218.522964c0.083919 0.008392 0.15525 0.025176 0.239169 0.054547 0.793036 0.104899 3.696639 0.465751 8.152746 0.805624 14.077438 0.398616 30.987148-4.250505 50.808853-17.950307 62.670825-43.323264 13.758546-137.984072 13.758545-137.984072-4.548418 1.535721-8.95837 3.088225-13.200483 4.653317 0.008392 0.172034 11.287126 119.756831-59.75883 150.420891z" fill="#6EA86E" p-id="3577"></path><path d="M593.638668 190.817055s50.703954-14.891454 52.48304-45.454811c1.779086-30.567552 7.779306-41.539982 7.779306-41.539982s0.113291 24.038642 5.681327 34.125725c0 0 32.820782-58.646902 41.674253-63.522605 0 0-21.084688 36.274055-25.796749 52.571155 0 0 9.877285 0.037764 29.413664-16.208985 0 0-55.424406 60.858172-77.075548 68.096199 0 0 25.020496 4.435127 35.099186-1.128713 0 0-27.84018 18.088774-48.03952 12.239609 0 0-6.54989 7.326142-19.12098 3.684051l-2.097979-2.861643z" fill="#5C8C5C" p-id="3578"></path><path d="M755.753693 298.930103s11.660567-72.313136 152.523066-17.060764c0 0-21.235742 94.320935-90.074626 87.863356-68.830492-6.453383-64.806568-58.760193-62.44844-70.802592z" fill="#85CC85" p-id="3579"></path><path d="M755.753693 298.930103c-0.377636 1.904965-0.793036 4.808568-0.952482 8.383524 0.033568-0.029372 53.062082-46.176515 107.659885-40.285391-97.690289-23.891784-106.707402 31.901867-106.707403 31.901867z" fill="#94E394" p-id="3580"></path><path d="M767.099563 347.070327c0.04196 0.050351 0.088115 0.109095 0.130075 0.17623 0.499319 0.537083 2.295189 2.479811 5.194596 5.32467 9.545804 8.488423 24.021858 15.126428 45.777899 17.165664 68.838883 6.457579 90.074626-87.863356 90.074626-87.863357-4.057491-1.590268-8.031063-3.075637-11.891345-4.468695-0.088115 0.125879-62.028844 89.81028-129.285851 69.665488z" fill="#6EA86E" p-id="3581"></path><path d="M755.027793 304.107915s43.91909 19.238466 62.99811-0.969266c19.062236-20.203537 29.640246-24.332359 29.640246-24.33236s-13.947364 16.779635-15.974012 27.03036c0 0 57.031458-21.604987 66.0192-19.8259 0 0-35.820892 12.906766-48.597583 21.4875 0 0 6.843607 5.78203 29.887807 5.886928 0 0-74.012499 9.961204-93.284533 2.353933 0 0 14.799143 17.67757 25.062456 19.700022 0 0-29.912983-3.671463-40.532953-19.519596 0 0-8.819903 1.267179-15.449516-8.601714l0.230778-3.209907z" fill="#5C8C5C" p-id="3582"></path><path d="M440.821886 166.098667c-19.389521 8.249253-47.875878 7.548528-56.230031-4.716256-8.354152-12.256393-8.517794-25.007908 25.977175-39.689565 28.788466-12.260589 90.569749-25.729613 98.923901-13.469024 8.34576 12.256393-39.869991 45.610061-68.671045 57.874845z" fill="#FFBF00" p-id="3583"></path><path d="M442.332431 155.11365c-30.743783 13.095584-42.056085 7.636643-48.752834-2.194486-6.692553-9.814345-6.226801-20.291652 24.508589-33.374648 25.675066-10.926274 80.12601-23.83304 86.818563-14.010303s-36.907645 38.648967-62.574318 49.579437z" fill="#FFE69C" opacity=".45" p-id="3584"></path><path d="M454.320282 142.949568c-24.567333 10.456327-33.03058 6.952702-37.667113 0.151055-4.61975-6.805844-3.671463-14.312412 20.891674-24.772935 20.514038-8.735984 63.438686-19.88884 68.075219-13.095584 4.628141 6.801648-30.785742 28.989872-51.29978 37.717464z" fill="#FFFFFF" opacity=".46" p-id="3585"></path><path d="M512.702839 190.275776c-9.826933 17.807645-30.471045 30.584336-47.57377 24.869442-17.098528-5.727482-28.284951-16.024363-14.358567-45.589081 11.631195-24.693212 47.733216-67.20246 64.835939-61.479174 17.098528 5.723286 10.397583 58.109819-2.903602 82.198813z" fill="#FFBF00" p-id="3586"></path><path d="M504.357079 180.56633c-12.441015 26.350615-25.939411 27.676538-39.639214 23.090355-13.724978-4.586182-22.465158-13.355734-10.032535-39.710544 10.376604-22.011995 41.296617-60.316893 55.017399-55.730711 13.708194 4.586182 5.018366 50.338906-5.34565 72.3509z" fill="#FFE69C" opacity=".45" p-id="3587"></path><path d="M503.052136 164.516791c-9.927636 21.067904-19.523792 22.528097-29.015048 19.351758-9.487061-3.17634-15.285874-9.784974-5.349847-30.848682 8.291213-17.576867 31.817948-48.593387 41.296617-45.417047 9.495452 3.180536 1.35949 39.3413-6.931722 56.913971z" fill="#FFFFFF" opacity=".46" p-id="3588"></path><path d="M572.856089 171.268087c11.966872 17.161467 3.042069 39.697957-12.537521 43.654745-15.546024 3.969376-33.257161 0.725901-46.386314-29.896199-10.968234-25.565971-16.725088-77.004217-1.166476-80.969398 15.554416-3.96518 43.558238 43.495298 60.090311 67.210852z" fill="#FFBF00" p-id="3589"></path><path d="M560.054222 167.672151c11.694134 27.282118 3.079833 35.283809-10.2759 38.686731-13.376713 3.407118-26.447122 0.939895-38.158041-26.359007-9.780778-22.779855-17.597847-69.061269-4.233721-72.472582 13.368322-3.402922 42.874297 37.352416 52.667662 60.144858z" fill="#FFE69C" opacity=".45" p-id="3590"></path><path d="M546.606177 155.617165c9.344398 21.806393 3.629503 27.886335-5.622583 30.244463-9.243695 2.362324-18.537741 0.092311-27.886335-21.718277-7.821265-18.206261-15.235523-54.895716-5.996024-57.249648 9.264675-2.34554 31.683677 30.508809 39.504942 48.723462z" fill="#FFFFFF" opacity=".46" p-id="3591"></path><path d="M602.790052 130.827446c34.066981 17.341894 35.011072 28.133897 28.108721 37.356612-6.893959 9.210127-18.995101 13.35993-53.049494-3.977768-28.444398-14.48025-77.184643-49.604613-70.286489-58.827328 6.889763-9.210127 66.791256 10.976626 95.227262 25.448484z" fill="#FFBF00" p-id="3592"></path><path d="M591.406419 133.349217c30.361951 15.453713 31.486467 24.693212 25.700241 32.434753-5.786226 7.749934-16.309688 11.056349-46.663246-4.397363-25.347781-12.90257-69.073857-43.830975-63.287632-51.580909 5.807206-7.73315 58.902855 10.632557 84.250637 23.543519z" fill="#FFE69C" opacity=".45" p-id="3593"></path><path d="M572.658879 129.757477c24.265224 12.3529 25.658282 19.066432 21.651143 24.428866-3.998748 5.358238-11.899736 7.334534-36.156569-5.018365-20.249692-10.309468-55.697144-34.34811-51.698396-39.710545 4.00714-5.358238 45.95413 9.990575 66.203822 20.300044z" fill="#FFFFFF" opacity=".46" p-id="3594"></path><path d="M599.265448 69.906335c39.060171-4.044903 48.861928 6.566674 51.702591 20.614741 2.844859 14.043871-2.328757 26.216344-41.376339 30.261247-32.602592 3.37355-97.195166-1.552504-100.048418-15.604767-2.840663-14.043871 57.123769-31.880887 89.722166-35.271221z" fill="#FFBF00" p-id="3595"></path><path d="M593.25264 79.905302c34.797078-3.604328 43.319068 4.821155 45.605865 16.078911 2.278405 11.257755-2.546946 21.059512-37.352416 24.672231-29.061204 3.012698-86.424142-0.35246-88.710939-11.606019-2.270013-11.253559 51.387895-26.128229 80.45749-29.145123z" fill="#FFE69C" opacity=".45" p-id="3596"></path><path d="M576.712175 88.028677c27.823396-2.886819 34.427834 2.874231 36.009709 10.661928 1.573484 7.783502-2.475615 14.643893-30.290619 17.530712-23.224626 2.40848-68.864059 0.692333-70.445935-7.086973-1.565092-7.791894 41.51061-18.701384 64.726845-21.105667z" fill="#FFFFFF" opacity=".46" p-id="3597"></path><path d="M546.291481 39.540189c23.585479-21.558831 36.429305-19.64967 46.713598-12.214434 10.250725 7.431041 14.056459 17.593651-9.52902 39.152483-19.700022 17.992267-65.654151 46.340158-75.909073 38.900724-10.271705-7.431041 19.032865-47.833919 38.724495-65.838773z" fill="#FFBF00" p-id="3598"></path><path d="M542.263361 44.428479c21.038532-19.204899 31.708853-18.076186 39.937126-12.117926 8.211489 5.945672 10.825571 14.438291-10.204569 33.655778-17.547495 16.045343-57.744771 41.867267-65.95626 35.917398-8.203097-5.941476 18.672012-41.401515 36.223703-57.45525z" fill="#FFE69C" opacity=".45" p-id="3599"></path><path d="M536.091107 57.578611c16.800615-15.35301 24.634468-14.95859 30.315795-10.842355 5.681327 4.116235 7.082777 10.397583-9.743014 25.746397-14.022891 12.818651-45.442223 33.962082-51.106766 29.85424-5.681327-4.120431 16.498506-31.948023 30.533985-44.758282z" fill="#FFFFFF" opacity=".46" p-id="3600"></path><path d="M484.010879 33.753963c0.398616-29.094771 11.429789-34.247407 24.953361-33.718717 13.527768 0.524495 24.420474 6.524714 24.034446 35.611094-0.335677 24.286204-11.920716 70.252921-25.435896 69.732622-13.519376-0.520299-23.862412-47.3346-23.551911-71.624999z" fill="#FFBF00" p-id="3601"></path><path d="M492.772039 39.972372c0.348264-25.939411 9.159776-30.563357 19.947583-30.139565 10.792003 0.407008 19.477636 5.714895 19.125176 31.654306-0.281129 21.646946-9.587764 62.662434-20.383963 62.242838-10.787807-0.419596-18.969925-42.106436-18.688796-63.757579z" fill="#FFE69C" opacity=".45" p-id="3602"></path><path d="M498.608616 53.462377c0.281129-20.71964 6.377856-24.458238 13.863445-24.160325 7.464609 0.285325 13.464829 4.477087 13.183699 25.21351-0.230778 17.295738-6.730316 50.112324-14.186533 49.822803-7.477197-0.297913-13.087192-33.571858-12.860611-50.875988z" fill="#FFFFFF" opacity=".46" p-id="3603"></path><path d="M430.038274 64.955105c-22.658172-23.02322-17.031393-33.760676-4.73304-41.560962 12.28996-7.791894 26.606568-9.709446 49.256348 13.313774 18.919574 19.213291 45.077174 62.255426 32.778823 70.055711-12.298352 7.800286-58.390949-22.582645-77.302131-41.808523z" fill="#FFBF00" p-id="3604"></path><path d="M442.642931 64.510333c-20.207733-20.514038-16.137654-29.480799-6.365268-35.682425 9.784974-6.205822 21.567223-7.288379 41.766564 13.238247 16.863554 17.1279 41.132974 54.887324 31.368981 61.076362-9.776582 6.19743-49.902526-21.495892-66.770277-38.632184z" fill="#FFE69C" opacity=".45" p-id="3605"></path><path d="M458.428125 71.542759c-16.133458-16.397803-13.75435-23.010632-6.982074-27.303098 6.763884-4.292465 15.336226-4.632337 31.473879 11.773858 13.469024 13.683018 33.727109 43.314872 26.963225 47.598945-6.763884 4.292465-37.98181-18.365707-51.45503-32.069705z" fill="#FFFFFF" opacity=".46" p-id="3606"></path><path d="M417.177664 109.117561c-35.334161-6.424011-40.423857-14.887258-38.346859-23.803669 2.076999-8.928998 10.540246-14.925022 45.891191-8.496814 29.493387 5.362434 84.179305 22.842794 82.093914 31.755008-2.081195 8.928998-60.123879 5.912105-89.638246 0.545475z" fill="#FFBF00" p-id="3607"></path><path d="M425.678674 104.594318c-31.507447-5.731678-36.190136-12.604657-34.528536-19.741981 1.669991-7.133128 9.054877-11.811621 40.558127-6.088335 26.304459 4.783392 75.178976 19.700022 73.525769 26.824758-1.665795 7.128932-53.2509 3.784754-79.55536-0.994442z" fill="#FFE69C" opacity=".45" p-id="3608"></path><path d="M442.710067 103.545329c-25.175747-4.57779-29.057008-9.457689-27.907315-14.400527 1.149692-4.93025 6.906547-8.056239 32.078097-3.470058 21.03014 3.814126 60.232974 15.109644 59.079085 20.052483-1.149692 4.934446-42.228119 1.640619-63.249867-2.181898z" fill="#FFFFFF" opacity=".46" p-id="3609"></path><path d="M533.21268 141.128523c-23.543519 10.015751-53.339015 2.362324-66.58985-17.069157-13.250835-19.45246-4.917663-43.335852 18.617465-53.347407 23.535127-10.015751 53.343211-2.362324 66.594046 17.073352 13.242443 19.439872 4.909271 43.32746-18.621661 53.343212z" fill="#FFE69C" opacity=".45" p-id="3610"></path><path d="M530.351037 132.682059c-19.465048 8.291213-44.128888 1.963708-55.084534-14.127789-10.968234-16.083106-4.065883-35.837675 15.403361-44.133084 19.456656-8.278625 44.128888-1.959512 55.084534 14.123594 10.955646 16.091498 4.061687 35.850263-15.403361 44.137279z" fill="#FFFFFF" opacity=".46" p-id="3611"></path><path d="M522.991327 113.909344c-11.199011 4.779196-25.414916 1.141301-31.729833-8.12757-6.306525-9.260479-2.337148-20.648308 8.878647-25.414916 11.211599-4.775 5.954064 24.181305 23.577087 11.601823 9.461885-6.763884 15.462104 15.055097-0.725901 21.940663z" fill="#FFBF00" p-id="3612"></path><path d="M890.066302 507.590888c19.620299 9.495452 48.073088 7.9933 56.087368-6.977878 8.005887-14.966981 7.817069-30.336775-27.076516-47.242289-29.124143-14.111006-91.262082-28.922737-99.267969-13.955756-8.005887 14.966981 41.132974 54.052328 70.257117 68.175923z" fill="#FFBF00" p-id="3613"></path><path d="M888.257844 494.386208c31.100439 15.07188 42.253295 8.232469 48.681502-3.76797 6.415619-11.992047 5.664543-24.605096-25.4317-39.664389-25.968783-12.583677-80.763795-26.87511-87.187807-14.883062-6.419815 11.992047 37.973418 45.73594 63.938005 58.315421z" fill="#FFE69C" opacity=".45" p-id="3614"></path><path d="M875.93012 479.998269c24.856854 12.042399 33.215202 7.619859 37.667113-0.683941 4.426735-8.307996 3.268651-17.333502-21.579811-29.371704-20.749011-10.053515-63.971572-22.511314-68.423483-14.220101-4.430931 8.3038 31.595562 34.230624 52.336181 44.275746z" fill="#FFFFFF" opacity=".46" p-id="3615"></path><path d="M818.881878 538.385022c10.31786 21.231546 31.314433 36.160764 48.253515 28.876581 16.93069-7.292575 27.831788-19.972759 13.087192-55.277548-12.319332-29.493387-49.587829-79.899428-66.526911-72.606853-16.939082 7.292575-8.786336 70.282293 5.186204 99.00782z" fill="#FFBF00" p-id="3616"></path><path d="M826.954901 526.485285c13.171111 31.473879 26.690487 32.762038 40.272803 26.921266 13.594903-5.849165 22.07913-16.620189 8.924802-48.094069-10.980822-26.287676-42.966608-71.746682-56.548923-65.901712-13.586511 5.849165-3.621112 60.78684 7.351318 87.074515z" fill="#FFE69C" opacity=".45" p-id="3617"></path><path d="M827.815072 507.12094c10.506678 25.154767 20.144793 26.698879 29.535347 22.645584 9.398945-4.040707 15.013137-12.138906 4.498067-37.297868-8.777944-20.992377-33.156458-57.82869-42.551208-53.783787-9.403141 4.049099-0.260149 47.435303 8.517794 68.436071z" fill="#FFFFFF" opacity=".46" p-id="3618"></path><path d="M758.212525 516.859758c-11.48014 20.963005-1.934337 47.917838 13.750153 52.331986 15.650923 4.418344 33.265553 0.104899 45.542926-37.109051 10.259117-31.066871 14.589345-93.192222-1.082557-97.614762-15.659314-4.418344-42.34141 53.42713-58.210522 82.391827z" fill="#FFBF00" p-id="3619"></path><path d="M770.917885 512.231617c-10.938862 33.152262-2.106371 42.597363 11.341674 46.386313 13.464829 3.801538 26.472298 0.528691 37.419551-32.640355 9.147188-27.684929 15.676098-83.646418 2.219662-87.447957-13.456437-3.793146-41.829503 46.008677-50.980887 73.701999z" fill="#FFE69C" opacity=".45" p-id="3620"></path><path d="M784.038645 497.390514c-8.752768 26.505865-2.870035 33.701933 6.440795 36.332799s18.537741-0.318893 27.282117-26.824758c7.309358-22.116893 13.703998-66.514323 4.40156-69.136797-9.327614-2.622474-30.823506 37.503471-38.124472 59.628756z" fill="#FFFFFF" opacity=".46" p-id="3621"></path><path d="M727.162437 468.811846c-33.576054 21.68471-34.21384 34.713159-27.059732 45.668804 7.137324 10.943058 19.364345 15.66351 52.923616-6.017003 28.03739-18.105558 75.783194-61.558897 68.633281-72.518739-7.145716-10.943058-66.468167 14.765575-94.497165 32.866938z" fill="#FFBF00" p-id="3622"></path><path d="M738.617402 471.585374c-29.929767 19.326582-30.789938 30.492025-24.798111 39.685369 6.008612 9.205931 16.611797 12.952922 46.533172-6.37366 24.986929-16.137654 67.840245-54.421572 61.840026-63.627504-6.021199-9.189148-58.592355 14.173945-83.575087 30.315795z" fill="#FFE69C" opacity=".45" p-id="3623"></path><path d="M757.264238 466.827158c-23.912763 15.449517-25.125395 23.572891-20.971397 29.938158 4.153998 6.369464 12.105338 8.56395 36.018102-6.885566 19.955975-12.889982 54.719485-42.677087 50.573879-49.046551-4.158194-6.365268-45.664609 13.09978-65.620584 25.993959z" fill="#FFFFFF" opacity=".46" p-id="3624"></path><path d="M729.004462 395.302861c-39.16507-3.977768-48.67311 9.038093-51.131941 26.035918-2.450439 16.993629 3.058853 31.541015 42.215531 35.518783 32.690707 3.319003 97.119639-4.112039 99.57847-21.109864 2.463027-16.993629-57.983941-37.109051-90.66206-40.444837z" fill="#FFBF00" p-id="3625"></path><path d="M735.290007 407.215185c-34.885193-3.545584-43.180602 6.810039-45.148506 20.425923-1.967904 13.620079 3.130185 25.326801 38.027966 28.880777 29.132535 2.962346 86.386379-2.416872 88.362675-16.03695 1.959512-13.607491-52.097012-30.303207-81.242135-33.26975z" fill="#FFE69C" opacity=".45" p-id="3626"></path><path d="M752.044467 416.626719c-27.886335-2.836467-34.339719 4.254701-35.699209 13.67043-1.35949 9.424121 2.878427 17.597847 30.764762 20.438511 23.291762 2.362324 68.864059-0.751076 70.231942-10.166806 1.351098-9.419925-42.009929-21.584007-65.297495-23.942135z" fill="#FFFFFF" opacity=".46" p-id="3627"></path><path d="M781.109866 357.484694c-24.177109-25.440092-36.970584-22.84699-47.032491-13.645255-10.049319 9.193344-13.561336 21.525263 10.611578 46.965356 20.195145 21.231546 66.921331 54.337653 76.970649 45.140113 10.057711-9.193344-20.354591-57.21608-40.549736-78.460214z" fill="#FFBF00" p-id="3628"></path><path d="M785.276452 363.287703c-21.554635-22.666564-32.19978-21.055316-40.256019-13.687214-8.039455 7.355514-10.422759 17.65659 11.136072 40.32735 17.988071 18.932162 58.890268 49.13047 66.929723 41.77076 8.039455-7.355514-19.813313-49.474538-37.809776-68.410896z" fill="#FFE69C" opacity=".45" p-id="3629"></path><path d="M791.813754 378.984781c-17.224407-18.118146-25.045672-17.463576-30.609512-12.365487-5.555448 5.089697-6.784864 12.692772 10.456327 30.802526 14.375351 15.122232 46.369529 39.882579 51.924978 34.80547 5.559644-5.089697-17.388049-38.116081-31.771793-53.242509z" fill="#FFFFFF" opacity=".46" p-id="3630"></path><path d="M843.214237 349.075994c-1.20424-35.053031-12.37388-41.011291-25.880667-40.063005-13.51518 0.944091-24.231656 8.421287-23.035809 43.474319 0.998638 29.26261 13.86764 84.397495 27.361841 83.4576 13.498396-0.939895 22.544881-57.602108 21.554635-86.868914z" fill="#FFBF00" p-id="3631"></path><path d="M834.633504 356.775577c-1.065773-31.25569-10.007359-36.626516-20.782579-35.871243-10.77522 0.742685-19.309798 7.33873-18.244025 38.59442 0.885347 26.082074 11.333282 75.304854 22.112698 74.549581 10.766828-0.751076 17.790861-51.186489 16.913906-77.272758z" fill="#FFE69C" opacity=".45" p-id="3632"></path><path d="M829.174563 373.164988c-0.860171-24.965949-7.057601-29.329745-14.530602-28.801054-7.456217 0.516103-13.343146 5.710699-12.482975 30.689235 0.704921 20.837126 8.123374 60.23717 15.562808 59.721067 7.468805-0.524495 12.15569-40.755338 11.450769-61.609248z" fill="#FFFFFF" opacity=".46" p-id="3633"></path><path d="M898.042818 385.438165c22.011995-28.272364 16.087302-41.082623 3.574956-50.200439-12.499758-9.105228-26.862522-11.094112-48.866125 17.178251-18.382491 23.598067-43.335852 76.068519-30.823506 85.190531 12.50815 9.117816 57.740575-28.561885 76.114675-52.168343z" fill="#FFBF00" p-id="3634"></path><path d="M885.429769 385.190603c19.628691-25.192531 15.315246-35.904811 5.36663-43.155426-9.948616-7.254811-21.760237-8.291213-41.384732 16.913906-16.381019 21.034336-39.60145 67.101757-29.665422 74.339784 9.94442 7.242223 49.298308-27.059732 65.683524-48.098264z" fill="#FFE69C" opacity=".45" p-id="3635"></path><path d="M869.841785 394.035682c15.676098-20.136401 13.112368-28.054174 6.226802-33.068343-6.885567-5.022561-15.4663-5.232359-31.142399 14.912434-13.087192 16.804811-32.518673 52.978163-25.633106 57.996528 6.877175 5.005778 37.461511-23.019024 50.548703-39.840619z" fill="#FFFFFF" opacity=".46" p-id="3636"></path><path d="M912.128648 438.374368c35.141146-8.559754 40.000066-18.88181 37.675505-29.577306-2.328757-10.708084-10.947254-17.748901-46.113576-9.180756-29.338137 7.14152-83.524736 29.468212-81.191783 40.163708 2.324561 10.703888 60.274934 5.735874 89.629854-1.405646z" fill="#FFBF00" p-id="3637"></path><path d="M903.497563 433.108441c31.339609-7.624055 35.829284-16.028559 33.970474-24.588313-1.858809-8.555558-9.37377-14.031283-40.713378-6.403031-26.157601 6.37366-74.608325 25.47366-72.757908 34.020825 1.858809 8.559754 53.334819 3.339982 79.500812-3.029481z" fill="#FFE69C" opacity=".45" p-id="3638"></path><path d="M886.44519 432.239878c25.03728-6.096727 28.780074-12.067575 27.496112-17.996463-1.288159-5.9163-7.12054-9.55-32.157821-3.444882-20.912654 5.081305-59.80079 19.599319-58.504239 25.528208 1.283963 5.912105 42.253295 0.998638 63.165948-4.086863z" fill="#FFFFFF" opacity=".46" p-id="3639"></path><path d="M797.00835 479.620633c23.816256 11.530492 53.393563 1.623836 66.094727-22.108502 12.709556-23.740729 3.713423-52.336181-20.08605-63.862477-23.807864-11.530492-53.393563-1.623836-66.103119 22.112697-12.692772 23.732337-3.700835 52.32779 20.094442 63.858282z" fill="#FFE69C" opacity=".45" p-id="3640"></path><path d="M799.639216 469.374104c19.69163 9.537412 44.170848 1.351098 54.677526-18.294376 10.51507-19.641278 3.063049-43.293892-16.628581-52.8355-19.683238-9.52902-44.162456-1.346902-54.677526 18.29018-10.502482 19.645474-3.063049 43.302284 16.628581 52.839696z" fill="#FFFFFF" opacity=".46" p-id="3641"></path><path d="M806.474431 446.590053c11.32489 5.492509 25.440092 0.780448 31.494859-10.527658 6.046375-11.308106 1.762302-24.936577-9.579372-30.42489-11.341674-5.492509-5.286907 29.283589-23.249802 14.52221-9.654899-7.934556-15.046705 18.495782 1.334315 26.430338z" fill="#FFBF00" p-id="3642"></path><path d="M221.683794 348.085748c-18.66362 18.747539-50.456392 27.370233-63.904437 12.143102-13.448045-15.227131-17.988071-33.966278 15.210347-67.303163 27.714301-27.823396 91.555799-68.633281 104.999648-53.401954 13.448045 15.227131-28.58706 80.730228-56.305558 108.562015z" fill="#FFF9DB" p-id="3643"></path><path d="M219.606795 331.40262c-29.589894 29.711577-43.986225 25.511423-54.761445 13.305382-10.77522-12.206041-13.838269-27.785632 15.74743-57.497209 24.705799-24.810698 80.629525-62.297385 91.400548-50.091344 10.766828 12.193453-27.680734 69.468277-52.386533 94.283171z" fill="#FFFFED" opacity=".74" p-id="3644"></path><path d="M228.728808 309.403214c-23.644222 23.744925-34.218036 21.44554-41.678449 12.999077-7.447825-8.442267-8.966762-19.838488 14.681656-43.575022 19.741981-19.825901 63.493233-50.838225 70.945254-42.395957 7.456217 8.442267-24.202285 53.146001-43.948461 72.971902z" fill="#FFFFFF" p-id="3645"></path><path d="M309.584914 359.322523c-4.808568 29.560523-23.308545 55.411819-44.212807 52.776757-20.900066-2.62667-36.823726-14.010303-31.486467-62.297385 4.460303-40.318958 29.917179-115.195825 50.82144-112.573351 20.904262 2.635061 31.38996 82.081326 24.877834 122.093979z" fill="#FFF9DB" p-id="3646"></path><path d="M297.009629 347.846579c-4.762412 43.042135-19.259446 49.575241-36.022298 47.473066-16.771243-2.110567-29.443036-12.063379-24.68482-55.109709 3.973572-35.938378 25.154767-102.876493 41.917619-100.770123 16.758655 2.114763 22.763071 72.464191 18.789499 108.406766z" fill="#FFFFED" opacity=".74" p-id="3647"></path><path d="M290.09469 324.65552c-3.805734 34.402658-13.934776 39.807052-25.540795 38.346858-11.593431-1.460193-20.270672-9.231107-16.464938-43.629569 3.172144-28.712939 18.64264-82.379239 30.236072-80.923242 11.601823 1.460193 14.950198 57.484622 11.769661 86.205953z" fill="#FFFFFF" p-id="3648"></path><path d="M369.742361 310.909562c19.12098 21.235742 16.926494 57.459446 1.032206 68.578734-15.885896 11.110896-36.609732 12.336116-61.630228-28.318519-20.887478-33.941103-44.846397-107.777372-28.960501-118.892464 15.898484-11.123484 63.136577 49.294112 89.558523 78.632249z" fill="#FFF9DB" p-id="3649"></path><path d="M354.309628 309.965472c22.29732 36.2279 15.50826 50.913752 1.850418 60.472143-13.649451 9.554196-28.977284 10.351428-51.278801-25.876471-18.621661-30.252856-43.117662-95.793716-29.464015-105.343716 13.641059-9.554196 60.266542 40.486797 78.892398 70.748044z" fill="#FFFFED" opacity=".74" p-id="3650"></path><path d="M335.293547 296.760793c17.820233 28.956305 13.573923 39.861599 4.124627 46.478624-9.445101 6.612829-20.509842 6.419815-38.325878-22.540685-14.878866-24.168717-35.636269-75.70347-26.195365-82.312104 9.445101-6.612829 45.513554 34.197056 60.396616 58.374165z" fill="#FFFFFF" p-id="3651"></path><path d="M389.08153 241.17694c43.667333 13.997715 48.408765 29.577306 43.91909 45.492574-4.481283 15.911072-16.485918 26.132425-60.149054 12.13471-36.454481-11.681546-102.456897-46.894024-97.971419-62.805096 4.481283-15.919464 77.751098-6.503735 114.201383 5.177812z" fill="#FFF9DB" p-id="3652"></path><path d="M377.337044 248.750644c38.917508 12.466191 43.323264 25.700241 39.55949 39.076955-3.772166 13.372517-14.278844 21.81898-53.200548 9.348594-32.501889-10.405975-91.513839-41.145562-87.750065-54.513884 3.76797-13.376713 68.889235-4.330228 101.391123 6.088335z" fill="#FFFFED" opacity=".74" p-id="3653"></path><path d="M355.333442 249.824809c31.104635 9.969596 34.952328 19.381129 32.342442 28.633216-2.609886 9.256283-10.670321 14.849495-41.779151 4.875703-25.964587-8.316388-73.450241-31.717245-70.848747-40.965136 2.60569-9.247891 54.316674-0.860171 80.285456 7.456217z" fill="#FFFFFF" p-id="3654"></path><path d="M364.363143 152.621251c41.884051-19.217487 56.364301-6.902351 64.319837 12.831239 7.955536 19.729394 6.386248 39.40424-35.506195 58.613334-34.964916 16.045343-108.213751 30.689235-116.169287 10.959842-7.955536-19.725198 52.386533-66.359072 87.355645-82.404415z" fill="#FFF9DB" p-id="3655"></path><path d="M361.098688 169.392494c37.335632-17.1279 49.654964-7.59888 56.03282 8.21149 6.37366 15.801977 4.384776 31.889279-32.950856 49.017178-31.167574 14.295628-95.877635 28.801054-102.251296 12.999078S329.926917 183.696514 361.098688 169.392494z" fill="#FFFFED" opacity=".74" p-id="3656"></path><path d="M345.569448 186.960969c29.83326-13.687214 39.12311-7.443629 43.533062 3.495233 4.414148 10.93047 2.274209 22.427394-27.559051 36.102021-24.907205 11.429789-76.055931 24.382711-80.470078 13.460633-4.409952-10.938862 39.58047-41.628097 64.496067-53.057887z" fill="#FFFFFF" p-id="3657"></path><path d="M295.293482 125.859432c18.772715-39.760896 33.651581-41.321792 47.565377-33.848791 13.9096 7.468805 21.600791 21.147627 2.828076 60.908523-15.676098 33.198418-56.892992 90.548769-70.806788 83.079964-13.917992-7.477197 4.737236-76.941278 20.413335-110.139696z" fill="#FFF9DB" p-id="3658"></path><path d="M292.50317 134.431774c16.725088-35.443255 28.956305-37.39018 40.088181-31.41094 11.12768 5.970848 16.939082 17.610435 0.209798 53.049494-13.976735 29.59409-49.68014 81.271506-60.807821 75.292267-11.123484-5.975044 6.533106-67.336731 20.509842-96.930821z" fill="#FFFFED" opacity=".74" p-id="3659"></path><path d="M290.149238 155.88151c13.372517-28.318519 22.179833-30.395518 29.883611-26.254108 7.695387 4.128822 11.379438 12.910962-1.99308 41.229481-11.161248 23.648418-38.732886 65.461137-46.428273 61.328119-7.699583-4.14141 7.372298-52.646682 18.537742-76.303492z" fill="#FFFFFF" p-id="3660"></path><path d="M224.306268 138.451501c-9.50804-42.995979 0.960874-54.325065 16.129262-58.139191 15.1558-3.814126 29.279393 1.325923 38.787434 44.321902 7.942948 35.888027 10.817179 107.554986-4.347013 111.364916-15.164191 3.80993-42.622539-61.651208-50.569683-97.547627z" fill="#FFF9DB" p-id="3661"></path><path d="M236.138869 144.640539c-8.480031-38.321682-0.297913-48.131832 11.803229-51.178097 12.101142-3.046265 23.535127 1.833634 32.006766 40.15112 7.078581 31.998374 10.792003 95.579722-1.309139 98.621792-12.09275 3.042069-35.41808-55.592245-42.500856-87.594815z" fill="#FFFFED" opacity=".74" p-id="3662"></path><path d="M247.216198 162.540495c-6.772276-30.626296-1.283963-38.2 7.091168-40.30637 8.370936-2.106371 16.45235 2.047627 23.224627 32.673923 5.664543 25.565971 9.675879 76.110478 1.309138 78.216849-8.36674 2.106371-25.964587-45.014235-31.624933-70.584402z" fill="#FFFFFF" p-id="3663"></path><path d="M175.167406 202.737771c-32.96764-26.228932-30.40391-43.96105-19.439872-59.628756 10.95145-15.655118 26.153405-23.333721 59.121045 2.899406 27.525483 21.898704 71.222187 76.433567 60.262346 92.092882-10.95145 15.667706-72.418035-13.460633-99.943519-35.363532z" fill="#FFF9DB" p-id="3664"></path><path d="M188.988891 197.803324c-29.39688-23.375681-27.957667-37.956634-19.242662-50.406041 8.706612-12.453603 21.403581-18.067794 50.787873 5.320475 24.537961 19.519596 64.336621 66.900351 55.630008 79.353954-8.715004 12.441015-62.633062-14.748792-87.175219-34.268388z" fill="#FFFFED" opacity=".74" p-id="3665"></path><path d="M208.873535 202.817494c-23.484776-18.688796-23.102944-29.245826-17.06496-37.868519 6.025395-8.622693 15.407557-12.021419 38.892333 6.667377 19.603515 15.592179 52.168343 52.373945 46.142948 60.992442-6.029591 8.610105-48.362609-14.194925-67.970321-29.7913z" fill="#FFFFFF" p-id="3666"></path><path d="M176.01499 272.168284c-41.351164 2.521771-49.881546-8.219881-50.620035-22.07913-0.742685-13.834073 6.575066-25.553383 47.930426-28.070957 34.524341-2.102175 101.076427 5.098089 101.819112 18.944749 0.742685 13.842465-64.600966 29.094771-99.129503 31.205338z" fill="#FFF9DB" p-id="3667"></path><path d="M183.886607 262.609892c-36.861489 2.253229-44.405821-6.293937-45.001647-17.371265-0.595826-11.073133 5.987632-20.476274 42.84912-22.725307 30.773154-1.875593 90.041058 3.507821 90.632689 14.576757 0.600022 11.077329-57.702811 23.640026-88.480162 25.519815z" fill="#FFFFED" opacity=".74" p-id="3668"></path><path d="M202.403368 255.28375c-29.455624 1.79587-35.430668-4.070079-35.841871-11.736094-0.411204-7.653427 4.896683-14.211709 34.352306-15.999187 24.592509-1.506349 71.901933 1.833634 72.304745 9.495453 0.411204 7.657623-46.218475 16.741872-70.81518 18.239828z" fill="#FFFFFF" p-id="3669"></path><path d="M315.513802 279.951786c-22.645584 22.742091-58.290246 21.596595-79.609907-2.555338-21.323857-24.151933-20.249692-62.158919 2.391696-84.90101 22.645584-22.746287 58.294442-21.596595 79.614103 2.555338 21.323857 24.151933 20.249692 62.158919-2.395892 84.90101z" fill="#FFF9DB" p-id="3670"></path><path d="M309.459035 268.480037c-18.739147 18.814675-48.228339 17.862192-65.872341-2.114762-17.639807-19.981151-16.754459-51.429855 1.980492-70.248726 18.734952-18.810479 48.232535-17.862192 65.872341 2.118959 17.639807 19.981151 16.750263 51.434051-1.980492 70.244529z" fill="#FFFFED" opacity=".74" p-id="3671"></path><path d="M294.89067 243.333662c-10.783612 10.833963-27.768849 10.288488-37.931458-1.216828-10.154218-11.509512-9.642311-29.619266 1.145496-40.453229 10.792003-10.833963 14.866278 33.597034 30.085017 9.092641 8.186314-13.171111 22.280536 16.939082 6.700945 32.577416z" fill="#EDD796" opacity=".56" p-id="3672"></path><path d="M597.104529 433.263691c-17.807645 26.228932-54.753053 45.026823-75.732842 31.985787-20.971397-13.032645-31.910259-32.543849-0.239169-79.2029 26.43873-38.959468 93.968475-102.79677 114.939871-89.759929 20.971397 13.032645-12.52913 98.009182-38.96786 136.977042z" fill="#FFF9DB" p-id="3673"></path><path d="M589.795171 415.313384c-28.226208 41.59453-47.254877 41.091015-64.072275 30.647276-16.804811-10.452131-25.024692-26.887697 3.205711-68.473835 23.568695-34.729943 82.223989-92.583809 99.024604-82.144266 16.813203 10.452131-14.589345 85.240882-38.15804 119.970825z" fill="#FFFFED" opacity=".74" p-id="3674"></path><path d="M594.859692 388.220085c-22.553273 33.236182-36.303427 33.743893-47.943014 26.510061-11.626999-7.229635-16.741872-19.456656 5.819794-52.692838 18.831459-27.743673 64.24431-74.881063 75.8797-67.655623 11.618607 7.238027-14.91663 66.090531-33.75648 93.8384z" fill="#FFFFFF" p-id="3675"></path><path d="M709.19115 420.302378c2.425264 34.251603-13.16272 68.339564-39.802856 71.469749-26.63594 3.13438-49.596221-4.913467-56.678998-60.136467-5.9163-46.10938 4.393168-136.712697 31.033304-139.842881 26.644332-3.125989 62.163115 82.161049 65.44855 128.509599z" fill="#FFF9DB" p-id="3676"></path><path d="M690.355495 411.188757c6.310721 49.226977-9.801757 60.690333-31.167574 63.203713-21.374209 2.509183-39.903559-4.892487-46.214279-54.111072-5.270123-41.099407 1.984688-121.632424 23.346309-124.145803 21.370013-2.513379 48.761225 73.94956 54.035544 115.053162z" fill="#FFFFED" opacity=".74" p-id="3677"></path><path d="M675.212284 387.418657c5.039345 39.337104-5.975044 48.27869-20.765795 50.015816-14.773967 1.741322-27.722693-4.388972-32.774627-43.730272-4.212742-32.837566-0.268541-96.968584 14.505426-98.705711 14.794947-1.741322 34.822254 59.574209 39.034996 92.420167z" fill="#FFFFFF" p-id="3678"></path><path d="M769.982186 349.08019c29.715773 18.07199 37.272693 58.978383 20.732228 75.938444-16.523682 16.955865-41.863071 24.311379-84.376516-13.641058-35.501999-31.683677-86.130425-106.824889-69.594155-123.780755 16.523682-16.964257 92.189388 36.525813 133.238443 61.483369z" fill="#FFB3E0" p-id="3679"></path><path d="M750.601057 352.499896c37.893695 33.81942 33.651581 52.117992 19.439873 66.686357-14.203317 14.576757-32.96764 19.905624-70.873923-13.922188-31.641718-28.238796-80.574977-93.997846-66.380053-108.570408 14.207513-14.568365 86.155601 27.559051 117.814103 55.806239z" fill="#FFCCEA" p-id="3680"></path><path d="M723.293764 343.31914c30.290619 27.034556 28.117113 40.386094 18.29018 50.468981-9.818541 10.087083-23.585479 13.0788-53.876098-13.959952-25.289038-22.561665-65.620584-73.844661-55.793651-83.91496 9.831129-10.082887 66.090531 24.84007 91.379569 47.405931z" fill="#FFFFFF" opacity=".46" p-id="3681"></path><path d="M774.169752 265.970854c58.072056 2.920387 68.347956 18.869222 67.307359 37.860128-1.040598 18.978317-13.007469 33.81942-71.075329 30.899033-48.4759-2.433656-140.237301-22.47355-139.188312-41.460259 1.040598-18.995101 94.480381-29.728361 142.956282-27.298902z" fill="#FFB3E0" p-id="3682"></path><path d="M761.770697 277.786672c51.744551 2.597298 60.954679 16.028559 60.077723 31.989982-0.876955 15.953031-11.496924 28.385654-63.249867 25.788356-43.222561-2.165114-125.05213-19.246858-124.175175-35.19989 0.885347-15.957227 84.116366-24.747759 127.347319-22.578448z" fill="#FFCCEA" p-id="3683"></path><path d="M734.807472 285.356179c41.359556 2.072803 48.794793 11.425593 48.186379 22.465158-0.608414 11.047957-9.012917 19.599319-50.385061 17.518124-34.520145-1.732931-99.989674-13.993519-99.385456-25.03728 0.61261-11.039565 67.051405-16.687324 101.584138-14.946002z" fill="#FFFFFF" opacity=".46" p-id="3684"></path><path d="M718.418061 174.679401c46.440861-33.479547 67.882205-23.975703 83.327526-4.347012 15.457908 19.620299 19.095804 41.951186-27.349253 75.434929-38.77065 27.949275-125.371023 65.431766-140.82054 45.807271-15.449517-19.632886 46.080008-88.933325 84.842267-116.895188z" fill="#FFB3E0" p-id="3685"></path><path d="M719.139766 194.270328c41.393124-29.837456 59.364411-22.813422 71.750878-7.082777 12.37388 15.718058 14.471858 34.180272-26.912873 64.021924-34.5663 24.915597-110.618035 59.767223-123.000307 44.044969-12.369684-15.722254 43.604393-76.060127 78.162302-100.984116z" fill="#FFCCEA" p-id="3686"></path><path d="M704.877705 218.300578c33.076735-23.849824 46.369529-19.599319 54.925088-8.715004 8.56395 10.875923 9.180756 24.26942-23.912764 48.10246-27.609402 19.90982-87.305294 49.126274-95.869243 38.246155-8.56395-10.871727 37.230733-57.719595 64.856919-77.633611z" fill="#FFFFFF" opacity=".46" p-id="3687"></path><path d="M625.25521 164.932191c11.979459-49.638181 29.980118-55.676164 49.344464-51.392091 19.347561 4.271485 32.749451 17.249582 20.765795 66.879371-9.998967 41.439279-44.804437 117.130162-64.151999 112.846089-19.360149-4.271485-15.948836-86.89409-5.95826-128.333369z" fill="#FFB3E0" p-id="3688"></path><path d="M624.239788 175.266835c10.670321-44.242179 25.263862-49.944486 40.76373-46.516388 15.478888 3.419706 25.977175 14.669068 15.298462 58.907051-8.908018 36.941212-38.493717 104.722714-53.972605 101.303009-15.483084-3.436489-11.005997-76.75246-2.089587-113.693672z" fill="#FFCCEA" p-id="3689"></path><path d="M627.411932 199.796404c8.538774-35.35514 18.848242-40.205667 29.568915-37.834951 10.720672 2.362324 17.765685 11.047957 9.218519 46.407293-7.112148 29.514367-29.422056 83.973703-40.117552 81.607183-10.71228-2.370716-5.80301-60.665158 1.330118-90.179525z" fill="#FFFFFF" opacity=".46" p-id="3690"></path><path d="M540.891283 199.473316c-23.967311-45.043607-14.215905-60.669354 3.491037-69.300439 17.702746-8.631085 36.647495-6.998858 60.627394 38.036357 20.018915 37.604174 43.902306 116.429437 26.19956 125.056326-17.706942 8.631085-70.286489-56.192267-90.317991-93.792244z" fill="#FFB3E0" p-id="3691"></path><path d="M557.30587 202.930785c-21.374209-40.15112-14.022891-53.414543 0.113291-60.304306 14.119398-6.889763 29.665422-4.775 51.03963 35.367729 17.841213 33.521507 40.474209 103.124054 26.338027 110.009621-14.10681 6.881371-59.641344-51.555733-77.490948-85.073044z" fill="#FFCCEA" p-id="3692"></path><path d="M576.107957 219.613913c-17.077548-32.082293-12.432623-42.085457-2.639258-46.852065 9.76819-4.766608 20.963005-2.484007 38.040553 29.598286 14.257865 26.774407 33.567662 81.804393 23.799473 86.566806-9.784974 4.766608-44.934512-42.521836-59.200768-69.313027z" fill="#FFFFFF" opacity=".46" p-id="3693"></path><path d="M498.25196 285.158969c-48.27869-19.620299-50.1375-40.063005-40.998704-60.656765 9.126208-20.572781 25.784161-33.508919 74.067047-13.888621 40.318958 16.368431 109.913114 64.345013 100.778514 84.934578-9.138796 20.581173-93.532095 5.991828-133.846857-10.389192z" fill="#FFB3E0" p-id="3694"></path><path d="M513.974214 275.663517c-43.050527-17.471968-45.396067-34.096353-38.137061-50.456392 7.259007-16.368431 21.390993-26.279284 64.433128-8.790532 35.921595 14.597737 98.680535 55.755887 91.417332 72.103339-7.259007 16.364235-81.779217 1.741322-117.713399-12.856415z" fill="#FFCCEA" p-id="3695"></path><path d="M540.031112 275.483091c-34.394266-13.972539-36.920233-25.82612-31.880888-37.15101 5.022561-11.32489 15.671902-17.824429 50.074561-3.85189 28.708743 11.664763 79.475636 43.126054 74.461466 54.446749-5.030953 11.320694-63.929613-1.766498-92.655139-13.443849z" fill="#FFFFFF" opacity=".46" p-id="3696"></path><path d="M518.996775 362.087659c-50.519332 14.773967-64.131019 5.299495-68.97735-9.88148-4.846331-15.176779 0.897935-30.315795 51.421463-45.085567 42.173572-12.336116 126.667574-23.593871 131.509709-8.417091 4.850527 15.176779-71.776054 51.048022-113.953822 63.384138z" fill="#FFB3E0" p-id="3697"></path><path d="M526.0292 349.180893c-45.026823 13.179503-56.796485 5.857557-60.677745-6.277153-3.872869-12.13471 1.615444-24.500198 46.642267-37.667113 37.599978-10.993409 112.548176-22.154657 116.416848-10.028339 3.885457 12.138906-64.777196 42.979196-102.38137 53.972605z" fill="#FFFFED" opacity=".74" p-id="3698"></path><path d="M546.891503 335.686693c-35.980338 10.523462-45.043607 5.727482-47.72902-2.677021-2.677021-8.391916 2.03504-17.216015 38.027965-27.726889 30.034666-8.803119 89.583699-18.776911 92.269112-10.368212 2.672825 8.38772-52.525 31.985786-82.568057 40.772122z" fill="#FFFFFF" opacity=".46" p-id="3699"></path><path d="M694.022762 330.366219c-21.609183 31.834732-66.086335 40.872825-99.36028 20.19934-33.257161-20.673484-42.71485-63.241476-21.109864-95.067815 21.609183-31.834732 66.094727-40.877021 99.360281-20.203537 33.261357 20.673484 42.710654 63.23728 21.109863 95.072012z" fill="#FFE3F4" p-id="3700"></path><path d="M683.268523 319.364417c-17.883172 26.342223-54.677526 33.81942-82.215597 16.716696-27.521287-17.10692-35.338356-52.323594-17.463577-78.665816 17.883172-26.329635 54.685918-33.811028 82.207205-16.708304 27.525483 17.111116 35.346748 52.32779 17.471969 78.657424z" fill="#FFFFFF" opacity=".46" p-id="3701"></path><path d="M658.092776 295.63208c-10.292684 15.159995-31.494859 19.47344-47.3346 9.617135-15.848133-9.843717-20.358787-30.131173-10.053515-45.291168 10.292684-15.172583 27.945079 33.043168 39.844815 1.405646 6.398836-17.018805 32.401186 12.365488 17.5433 34.268387z" fill="#FFB3E0" p-id="3702"></path><path d="M593.882034 436.372896s2.089587-75.875505 154.348307-38.388818c0 0-8.91641 99.79666-80.503646 102.57858-71.591432 2.78192-74.620913-51.501186-73.844661-64.189762z" fill="#85CC85" p-id="3703"></path><path d="M593.882034 436.372896c-0.121683 2.009864-0.15525 5.051933 0.172034 8.744376 0.033568-0.037764 48.194771-54.69431 105.087763-56.112543-103.619177-11.178032-105.259797 47.368167-105.259797 47.368167z" fill="#94E394" p-id="3704"></path><path d="M612.126058 484.27395l0.163643 0.155251c0.574846 0.482535 2.689609 2.236445 6.063159 4.762412 10.97243 7.410061 26.740839 12.248001 49.378031 11.366849 71.587236-2.78192 80.503646-102.57858 80.503646-102.57858-4.384776-1.074165-8.668849-2.056019-12.827043-2.962346-0.075527 0.142663-51.434051 100.744946-123.281436 89.256414z" fill="#6EA86E" p-id="3705"></path><path d="M593.848466 441.789878s47.745804 13.750154 64.579986-9.617136c16.825791-23.358897 27.118475-29.04442 27.118476-29.044419s-12.038203 19.146155-12.701165 29.950746c0 0 55.621616-29.992706 65.096089-29.401076 0 0-35.019464 18.160105-46.965355 28.717135 0 0 7.808677 5.009974 31.503251 1.963708 0 0-74.675461 20.354591-95.508391 15.180976 0 0 17.618827 16.133458 28.436006 16.809006 0 0-31.222122 0.314697-44.305118-14.509622 0 0-8.891235 2.504987-17.048177-6.72612l-0.205602-3.323198z" fill="#5C8C5C" p-id="3706"></path><path d="M734.937547 737.495807c14.358568 22.121089 44.162456 37.994398 61.088949 26.9884 16.905514-10.997605 25.733809-27.454152 0.188818-66.833216-21.323857-32.879525-75.791585-86.747231-92.705491-75.749626s10.103866 82.706524 31.427724 115.594442z" fill="#FFB3E0" p-id="3707"></path><path d="M740.832867 722.348399c22.775659 35.099187 38.124472 34.675395 51.677416 25.855492 13.552944-8.811511 20.195145-22.683348-2.580514-57.774143-19.011885-29.308765-66.325505-78.128734-79.870056-69.317223-13.565532 8.811511 11.765466 71.927108 30.773154 101.235874z" fill="#FFCCEA" p-id="3708"></path><path d="M736.7502 699.488821c18.193673 28.045782 29.283589 28.469574 38.665751 22.364455 9.382162-6.100923 13.498396-16.410391-4.695276-44.460369-15.185171-23.409248-51.811687-63.186928-61.193849-57.086005-9.377966 6.100923 12.029811 55.768475 27.223374 79.181919z" fill="#FFFFFF" opacity=".46" p-id="3709"></path><path d="M644.539832 726.561141c-1.959512 28.905953 10.611577 57.660852 32.099077 60.300109 21.479108 2.643453 40.008457-4.145606 45.719156-50.737522 4.770804-38.913312-3.54978-115.372055-25.028888-118.011312-21.491696-2.635061-50.154283 69.32981-52.789345 108.448725z" fill="#FFB3E0" p-id="3710"></path><path d="M659.725003 718.86995c-5.089697 41.535786 7.90938 51.207469 25.133788 53.330623 17.241191 2.114763 32.182996-4.128822 37.281084-45.660412 4.246309-34.683787-1.59866-102.641519-18.831458-104.764674-17.236995-2.118959-39.324516 62.40648-43.583414 97.094463z" fill="#FFCCEA" p-id="3711"></path><path d="M671.935241 698.80488c-4.065883 33.198418 4.825351 40.746946 16.750263 42.207139 11.924912 1.472781 22.364455-3.705031 26.43873-36.895057 3.402922-27.710105 0.213994-81.825373-11.702526-83.293958-11.924912-1.472781-28.087741 50.267574-31.486467 77.981876z" fill="#FFFFFF" opacity=".46" p-id="3712"></path><path d="M595.497478 666.458241c-23.963115 15.252307-30.059842 49.764059-16.708304 64.076472 13.31797 14.308216 33.75648 20.518234 68.054239-11.509513 28.633216-26.728251 69.464081-90.145957 56.129327-104.449977-13.326362-14.312412-74.356568 30.81931-107.475262 51.883018z" fill="#FFB3E0" p-id="3713"></path><path d="M611.135812 669.336668c-30.567552 28.545101-27.135259 43.986225-15.68449 56.267794 11.454965 12.306744 26.602372 16.800615 57.169925-11.74029 25.519815-23.828844 64.986994-79.31619 53.540421-91.618738-11.459161-12.285764-69.489257 23.26239-95.025856 47.091234z" fill="#FFCCEA" p-id="3714"></path><path d="M633.164591 661.59093c-24.437258 22.817618-22.683348 34.079569-14.769772 42.593168 7.926164 8.505206 19.03706 11.031173 43.465927-11.786446 20.396551-19.032865 52.923616-62.309973 45.001647-70.810983s-53.309644 20.963005-73.697802 40.004261z" fill="#FFFFFF" opacity=".46" p-id="3715"></path><path d="M592.119732 596.322807c-46.835281 2.463027-55.122297 15.927856-54.27891 31.956414 0.834996 16.011775 10.481503 28.532513 57.316783 26.069486 39.106327-2.051823 113.110434-18.969925 112.267046-34.994288-0.839192-16.015971-76.194397-25.075044-115.304919-23.031612z" fill="#FFB3E0" p-id="3716"></path><path d="M602.135483 606.300794c-41.745584 2.19029-49.172429 13.523572-48.467509 26.992597 0.704921 13.464829 9.277263 23.954723 51.014455 21.764433 34.864213-1.833634 100.858237-16.242553 100.161708-29.698989-0.717509-13.47322-67.844441-20.900066-102.708654-19.058041z" fill="#FFCCEA" p-id="3717"></path><path d="M623.878936 612.682846c-33.36206 1.749714-39.353888 9.646507-38.871353 18.953142 0.482535 9.336006 7.267399 16.540466 40.642047 14.786555 27.84018-1.460193 80.642113-11.807425 80.159578-21.118256-0.495123-9.323418-54.077504-14.090026-81.930272-12.621441z" fill="#FFFFFF" opacity=".46" p-id="3718"></path><path d="M637.087811 519.301806c-37.461511-28.25558-54.744661-20.245496-67.210852-3.679855-12.466191 16.569837-15.399165 35.405492 22.062346 63.656875 31.272473 23.581283 101.122583 55.218804 113.576186 38.648967 12.466191-16.565641-37.163598-75.036313-68.42768-98.625987z" fill="#FFB3E0" p-id="3719"></path><path d="M636.512965 535.825487c-33.387236-25.175747-47.88427-19.25525-57.866454-5.979239-9.990575 13.267619-11.677351 28.843014 21.709886 54.01876 27.873748 21.03014 89.206063 50.439609 99.196638 37.163598 9.982184-13.259227-35.166322-64.177174-63.04007-85.203119z" fill="#FFCCEA" p-id="3720"></path><path d="M648.014085 556.100356c-26.682096-20.123814-37.394376-16.53627-44.305118-7.355514-6.906547 9.180756-7.40167 20.484666 19.284622 40.604283 22.27634 16.792223 70.42076 41.443475 77.331502 32.266915 6.906547-9.184952-30.038862-48.706678-52.311006-65.515684z" fill="#FFFFFF" opacity=".46" p-id="3721"></path><path d="M712.229023 511.065141c-9.663291-41.884051-24.177109-46.977943-39.794463-43.361028-15.613159 3.604328-26.413554 14.559974-16.750264 56.439828 8.073023 34.96072 36.139784 98.83159 51.744551 95.210478 15.613159-3.604328 12.864807-73.324362 4.800176-108.289278z" fill="#FFB3E0" p-id="3722"></path><path d="M713.059823 519.780145c-8.614301-37.323044-20.379767-42.1442-32.871133-39.248989-12.499758 2.886819-20.954613 12.378075-12.348704 49.705316 7.179284 31.17177 31.050088 88.362675 43.533062 85.480052 12.478778-2.891015 8.874451-64.756216 1.686775-95.936379z" fill="#FFCCEA" p-id="3723"></path><path d="M710.491897 540.487197c-6.885567-29.83326-15.201955-33.924319-23.841433-31.922847-8.656261 1.99308-14.341784 9.327614-7.439433 39.156678 5.735874 24.903009 23.732337 70.857139 32.355031 68.864059 8.631085-2.001472 4.678493-51.190685-1.074165-76.09789z" fill="#FFFFFF" opacity=".46" p-id="3724"></path><path d="M780.274871 540.214459c19.330778-38.011182 11.463357-51.199077-2.819684-58.470671-14.266256-7.284183-29.552131-5.907909-48.8913 32.090685-16.146046 31.734029-35.409688 98.248352-21.13504 105.519946 14.28304 7.284183 56.695782-47.414323 72.846024-79.13996z" fill="#FFB3E0" p-id="3725"></path><path d="M767.04082 543.13065c17.241191-33.878163 11.308106-45.077174-0.088115-50.88438-11.392025-5.815597-23.929547-4.032315-41.166542 29.841652-14.400527 28.284951-32.648748 87.015773-21.24833 92.827174 11.379438 5.811402 48.10246-43.50369 62.502987-71.784446z" fill="#FFCCEA" p-id="3726"></path><path d="M751.872432 557.21648c13.783721-27.076516 10.032535-35.518783 2.131547-39.53851-7.875813-4.023924-16.905514-2.106371-30.676648 24.978537-11.513708 22.591037-27.076516 69.01931-19.200702 73.039037 7.884205 4.028119 36.236291-35.875439 47.745803-58.479064z" fill="#FFFFFF" opacity=".46" p-id="3727"></path><path d="M814.669137 612.519204c38.942684-16.557249 40.436445-33.815224 33.068343-51.186489-7.35971-17.354481-20.799363-28.27656-59.742047-11.71931-32.518673 13.817289-88.648 54.295694-81.279898 71.671155 7.376494 17.367069 75.443321 5.060325 107.953602-8.765356z" fill="#FFB3E0" p-id="3728"></path><path d="M801.993148 604.513316c34.721551-14.748792 36.618124-28.780074 30.756371-42.580579-5.853361-13.817289-17.249582-22.171441-51.966938-7.414258-28.977284 12.315136-79.601515 47.045079-73.73137 60.837192 5.853361 13.808897 65.95626 1.468585 94.941937-10.842355z" fill="#FFCCEA" p-id="3729"></path><path d="M780.9714 604.35387c27.747869-11.790641 29.774516-21.785413 25.708633-31.348001-4.040707-9.554196-12.638225-15.042509-40.386094-3.251867-23.153295 9.847913-64.101647 36.391542-60.056744 45.945738 4.057491 9.55 51.568321-1.493761 74.734205-11.34587z" fill="#FFFFFF" opacity=".46" p-id="3730"></path><path d="M797.944049 677.434867c40.738554 12.466191 51.710984 4.472891 55.630008-8.337368 3.910633-12.806063-0.721705-25.586951-41.485435-38.040554-34.008238-10.414367-102.154788-19.905624-106.061224-7.09956-3.910633 12.793475 57.900021 43.067311 91.916651 53.477482z" fill="#FFB3E0" p-id="3731"></path><path d="M792.266918 666.54216c36.311819 11.119288 45.811467 4.938642 48.941651-5.295298 3.121793-10.242333-1.313335-20.673484-37.625153-31.788577-30.324187-9.277263-90.762763-18.692992-93.901339-8.45905-3.121793 10.238137 52.252262 36.265663 82.584841 45.542925z" fill="#FFCCEA" p-id="3732"></path><path d="M775.441127 655.154331c29.019244 8.878647 36.328603 4.833743 38.493717-2.257425 2.165114-7.082777-1.640619-14.52221-30.668256-23.396661-24.223264-7.426845-72.258589-15.839741-74.427899-8.756964-2.14833 7.082777 42.358194 27.000988 66.602438 34.41105z" fill="#FFFFFF" opacity=".46" p-id="3733"></path><path d="M656.775245 650.668852c17.430009 26.858326 53.301252 34.482381 80.142794 17.048177 26.816366-17.450988 34.444617-53.364191 17.023-80.230909-17.430009-26.849934-53.309644-34.486577-80.142793-17.048177-26.824758 17.446792-34.448813 53.364191-17.023001 80.230909z" fill="#FFE3F4" p-id="3734"></path><path d="M665.452486 641.379002c14.417311 22.238576 44.099516 28.545101 66.300329 14.10681s28.503141-44.154064 14.077438-66.371661c-14.408919-22.221792-44.099516-28.540905-66.291937-14.102614-22.209205 14.434095-28.511533 44.154064-14.08583 66.367465z" fill="#FFFFFF" opacity=".46" p-id="3735"></path><path d="M685.75253 621.351695a27.580031 27.580031 0 0 0 38.174823 8.119178 27.64297 27.64297 0 0 0 8.123375-38.212587c-8.307996-12.801867-22.544881 27.886335-32.149429 1.179064-5.161028-14.358568-26.140817 10.435347-14.148769 28.914345z" fill="#FFB3E0" p-id="3736"></path><path d="M530.09928 636.234757s60.086115-25.028888 84.254832 107.240289c0 0-81.191783 28.083545-108.524252-26.929657-27.324077-55.017398 14.069046-76.467135 24.26942-80.310632z" fill="#85CC85" p-id="3737"></path><path d="M530.09928 636.234757c-1.615444 0.608414-4.00714 1.649011-6.776472 3.209908 0.04196 0.008392 59.708479 18.474802 80.805755 62.477811-27.659754-84.976537-74.029283-65.687719-74.029283-65.687719z" fill="#94E394" p-id="3738"></path><path d="M499.044996 667.335196l-0.071331 0.180427c-0.172034 0.625198-0.801428 2.886819-1.590268 6.415619-1.942728 11.182227-0.184622 25.221902 8.450659 42.614147 27.332469 55.013203 108.524252 26.929657 108.524252 26.929657-0.696529-3.80993-1.435018-7.502373-2.186094-11.077328-0.146859-0.008392-96.872077-4.837939-113.127218-65.062522z" fill="#6EA86E" p-id="3739"></path><path d="M525.848774 638.114546s6.021199 42.173572 30.202504 47.133194c24.185501 4.95123 32.250132 11.001801 32.250132 11.001801s-19.200703-2.685413-27.886335 0.583239c0 0 43.000175 32.971836 45.87021 40.591695 0 0-26.501669-21.017553-38.96786-26.652724 0 0-1.16228 7.875813 9.537412 25.335193 0 0-42.156788-51.25782-45.429635-69.37177 0 0-6.428207 19.45246-3.159556 28.150681 0 0-11.215795-24.311379-4.216938-39.7567 0 0-5.081305-6.067355-0.7259-15.688686l2.525966-1.325923z" fill="#5C8C5C" p-id="3740"></path><path d="M164.102666 547.679068c-10.863335 15.999187-33.395628 27.462544-46.193299 19.507008-12.785083-7.95134-19.460852-19.842684-0.142663-48.308062 16.12087-23.761709 57.308391-62.696001 70.101867-54.744661 12.789279 7.947144-7.640839 59.779811-23.765905 83.545715z" fill="#FFB3E0" p-id="3741"></path><path d="M159.646559 536.731814c-17.220211 25.368761-28.82623 25.066652-39.081151 18.688796-10.246529-6.369464-15.260698-16.393607 1.955316-41.758172 14.379547-21.181195 50.154283-56.4692 60.400812-50.099735 10.254921 6.369464-8.899626 51.987917-23.274977 73.169111z" fill="#FFCCEA" p-id="3742"></path><path d="M162.730588 520.208133c-13.75435 20.266476-22.142069 20.581173-29.237434 16.167025-7.091169-4.409952-10.208765-11.861973 3.545584-32.136841 11.488532-16.918102 39.181854-45.668805 46.277219-41.258853 7.095365 4.405756-9.088445 40.30637-20.585369 57.228669z" fill="#FFFFFF" opacity=".46" p-id="3743"></path><path d="M232.467406 539.773884c1.481173 20.891674-8.026867 41.682645-24.277812 43.591805-16.246749 1.909161-30.24866-3.00011-34.570496-36.676867-3.608524-28.125505 2.681217-83.386269 18.927966-85.29543 16.250945-1.909161 37.914675 50.112324 39.920342 78.380492z" fill="#FFB3E0" p-id="3744"></path><path d="M220.978874 534.21424c3.843497 30.022078-5.97924 37.012544-19.007689 38.548264-13.036841 1.527329-24.340751-2.983326-28.188445-33.001208-3.214104-25.070848 1.208436-74.184534 14.241081-75.716058 13.032645-1.535721 29.736753 45.098154 32.955053 70.169002z" fill="#FFCCEA" p-id="3745"></path><path d="M211.743571 519.717206c3.075637 23.996683-3.646287 29.447232-12.667597 30.504613-9.008721 1.061577-16.90971-2.681217-19.985347-26.669508-2.572122-20.023111-0.167838-59.142025 8.845079-60.203602 9.021309-1.065773 21.239938 36.332798 23.807865 56.368497z" fill="#FFFFFF" opacity=".46" p-id="3746"></path><path d="M269.542889 496.333133c18.122342 11.022781 22.733699 35.971946 12.642421 46.319178-10.070299 10.33884-25.524011 14.828515-51.463422-8.320584-21.651142-19.322386-52.529196-65.154832-42.442113-75.497869 10.078691-10.347232 56.225834 22.27634 81.263114 37.499275z" fill="#FFB3E0" p-id="3747"></path><path d="M257.722876 498.418524c23.111335 20.631524 20.518234 31.792772 11.857777 40.671419-8.664653 8.891235-20.111226 12.143102-43.226757-8.488423-19.29721-17.220211-49.147254-57.333567-40.486797-66.21641 8.664653-8.887039 52.545979 16.809007 71.855777 34.033414z" fill="#FFCCEA" p-id="3748"></path><path d="M241.069119 492.821116c18.474802 16.490114 17.148879 24.630272 11.157052 30.785742-5.991828 6.147078-14.392135 7.97232-32.866937-8.517794-15.424341-13.758546-40.021045-45.035215-34.029218-51.178097 5.996024-6.15547 40.314762 15.147408 55.739103 28.910149z" fill="#FFFFFF" opacity=".46" p-id="3749"></path><path d="M272.098227 445.641767c35.422276 1.779086 41.686841 11.509512 41.053251 23.094551-0.63359 11.576648-7.934556 20.623133-43.352636 18.844047-29.568915-1.485369-85.530403-13.708194-84.892617-25.289038 0.63359-11.580843 57.627284-18.130734 87.192002-16.64956z" fill="#FFB3E0" p-id="3750"></path><path d="M264.532915 452.850422c31.56619 1.581876 37.180382 9.776582 36.651692 19.511204-0.532887 9.730426-7.019837 17.308326-38.581832 15.730646-26.359007-1.321727-76.269925-11.74029-75.737038-21.470716 0.541279-9.734622 51.303976-15.097056 77.667178-13.771134z" fill="#FFCCEA" p-id="3751"></path><path d="M248.093153 457.46178c25.221902 1.267179 29.757733 6.973682 29.384292 13.703998-0.360852 6.742904-5.496705 11.954284-30.726999 10.687105-21.055316-1.057381-60.98405-8.534578-60.614806-15.269091 0.365048-6.734512 40.893805-10.179394 61.957513-9.122012z" fill="#FFFFFF" opacity=".46" p-id="3752"></path><path d="M238.094185 389.965603c28.322715-20.417531 41.401515-14.622913 50.825637-2.651845 9.424121 11.971068 11.643783 25.586951-16.687324 46.008677-23.644222 17.043981-76.462939 39.907754-85.88706 27.936687s28.108721-54.241146 51.748747-71.293519z" fill="#FFB3E0" p-id="3753"></path><path d="M238.534761 401.911495c25.247078-18.197869 36.20692-13.9096 43.755448-4.317641 7.552724 9.587764 8.832491 20.845518-16.414587 39.047583-21.080492 15.197759-67.466805 36.454481-75.015333 26.862522-7.544332-9.591959 26.59398-46.390509 47.674472-61.592464z" fill="#FFCCEA" p-id="3754"></path><path d="M229.83654 416.567975c20.178361-14.54319 28.27656-11.954284 33.500527-5.316278 5.223967 6.633809 5.597408 14.799143-14.585149 29.342333-16.842575 12.138906-53.2509 29.963335-58.474868 23.329525-5.219771-6.638005 22.712719-35.208282 39.55949-47.35558z" fill="#FFFFFF" opacity=".46" p-id="3755"></path><path d="M181.272525 384.019931c7.309358-30.273835 18.281788-33.957886 30.097605-31.343805 11.803229 2.60569 19.976955 10.519266 12.667597 40.793102-6.100923 25.272254-27.324077 71.436181-39.127307 68.822099-11.807425-2.609886-9.734622-52.999143-3.637895-78.271396z" fill="#FFB3E0" p-id="3756"></path><path d="M180.651523 390.318063c6.512126-26.984205 15.411753-30.462654 24.86105-28.373066 9.445101 2.085391 15.843937 8.945782 9.33181 35.929986-5.429569 22.528097-23.472188 63.870869-32.921484 61.785479-9.436709-2.093783-6.713532-46.805909-1.271376-69.342399z" fill="#FFCCEA" p-id="3757"></path><path d="M182.590056 405.280849c5.202988-21.563027 11.496924-24.521177 18.03003-23.077768 6.537302 1.443409 10.838159 6.738708 5.62678 28.305931-4.342816 17.996463-17.946111 51.211665-24.470826 49.772452-6.533106-1.443409-3.537192-36.999956 0.814016-55.000615z" fill="#FFFFFF" opacity=".46" p-id="3758"></path><path d="M129.821691 405.087835c-14.622913-27.475132-8.673045-37.004152 2.131546-42.265883 10.787807-5.261731 22.347671-4.271485 36.97478 23.199451 12.206041 22.935105 26.774407 71.008194 15.978208 76.269924-10.800395 5.261731-42.870101-34.272583-55.084534-57.203492z" fill="#FFB3E0" p-id="3759"></path><path d="M139.82905 407.194206c-13.036841-24.48761-8.551362-32.577416 0.067135-36.781766 8.614301-4.200154 18.09297-2.911995 31.129811 21.571419 10.880119 20.446902 24.68482 62.897407 16.066323 67.097561-8.605909 4.200154-36.374758-31.444508-47.263269-51.887214z" fill="#FFCCEA" p-id="3760"></path><path d="M151.296603 417.373599c-10.418563-19.569947-7.582096-25.67087-1.607052-28.578668 5.95826-2.907799 12.785083-1.514741 23.19945 18.055206 8.69822 16.330668 20.472078 49.894134 14.518014 52.797737-5.966652 2.903603-27.407996-25.935215-36.110412-42.274275z" fill="#FFFFFF" opacity=".46" p-id="3761"></path><path d="M103.810948 457.348489c-29.447232-11.966872-30.58014-24.437258-25.007908-36.99576 5.568036-12.545914 15.730646-20.43851 45.177877-8.471639 24." fill="#FFB3E0" p-id="3762"></path></svg>