<?xml version="1.0" standalone="no"?><!DOCTYPE svg PUBLIC "-//W3C//DTD SVG 1.1//EN" "http://www.w3.org/Graphics/SVG/1.1/DTD/svg11.dtd"><svg t="1721421855318" class="icon" viewBox="0 0 1024 1024" version="1.1" xmlns="http://www.w3.org/2000/svg" p-id="3916" xmlns:xlink="http://www.w3.org/1999/xlink" width="200" height="200"><path d="M718.942525 183.206958c-92.952576-7.110178-44.894872 57.744393-86.147944 143.743693-34.089217 71.027461 28.110392 122.565932 80.817375 126.599987 52.719371 4.038185 100.318753-56.365299 106.330612-134.919969 6.015987-78.550542-48.293058-131.381397-101.000043-135.423711z" fill="#E08600" p-id="3917"></path><path d="M717.02253 431.629653s39.53127 31.302127 69.991076 42.120168c30.459806 10.801525-19.806925 61.274708-53.111629 33.23451-33.292316-28.048456-5.652633 32.297221-51.009955 21.863179s-35.860569-139.338025 34.130508-97.217857z" fill="#E08600" p-id="3918"></path><path d="M887.222415 471.807074a69.161143 76.27545 12.962 1 0 34.217895-148.663757 69.161143 76.27545 12.962 1 0-34.217895 148.663757Z" fill="#FFBF00" p-id="3919"></path><path d="M723.538129 446.147299s36.413858 28.832971 64.462313 38.796305c28.064972 9.955075-18.233767 56.439621-48.908282 30.612579-30.682773-25.8353-5.219086 29.757872-46.996545 20.137248-41.777459-9.612367-33.028058-128.334177 31.442514-89.546132z" fill="#FFD040" p-id="3920"></path><path d="M711.064349 175.580652c-93.047543 5.735214-36.52947 63.363994-65.560634 154.219025-23.989626 75.045001 44.704937 117.536781 97.469727 114.278982 52.76479-3.25367 91.610643-69.63598 86.75904-148.260845-4.851603-78.628993-65.903343-123.494962-118.668133-120.237162z" fill="#FFBF00" p-id="3921"></path><path d="M723.393613 185.671985c-71.374299 4.393281-48.049446 43.990616-70.321398 113.696789-18.398928 57.562716 54.321432 94.765217 94.806507 92.267158 40.472688-2.49393 70.27185-53.413047 66.54747-113.73395-3.711992-60.320903-50.559892-94.728056-91.032579-92.229997z" fill="#E37900" fill-opacity=".44" p-id="3922"></path><path d="M734.711266 197.988862c-57.017685 3.517928-30.703418 24.332335-74.392615 86.643428-27.722263 39.539528 61.617417 79.904861 93.955928 77.914672 32.334383-1.994318 56.146461-42.677586 53.169435-90.867419-2.964639-48.189832-40.390107-75.676741-72.732748-73.690681zM908.534895 315.19945c-37.231404-8.567724-75.061517 17.767188-84.516981 58.817939-9.434819 41.050751 13.072488 81.275697 50.303892 89.843421 37.227275 8.563595 75.061517-17.763059 84.508723-58.81381 9.447206-41.059009-13.072488-81.279826-50.295634-89.84755z" fill="#E37900" fill-opacity=".44" p-id="3923"></path><path d="M866.509694 234.336655s-38.123273-156.667536-80.474667-48.825702c-42.355522 107.845963-0.639999 5.41315-0.639998 5.41315s-56.328138 136.641772 81.114665 43.412552z" fill="#FFBF00" p-id="3924"></path><path d="M874.631483 253.652227s-47.273189-155.701345-91.090386-50.638343c-43.821326 105.054743-0.553289 5.322311-0.553289 5.322311s-58.483488 133.033006 91.643675 45.316032z" fill="#E37900" fill-opacity=".44" p-id="3925"></path><path d="M875.126966 270.089869s-46.748803-157.947533-90.983031-51.096665c-44.234228 106.846739-0.569805 5.400763-0.569806 5.400763s-59.007874 135.308098 91.552837 45.695902z" fill="#E37900" fill-opacity=".44" p-id="3926"></path><path d="M876.869414 454.735668s114.522594-37.107534 89.727808-152.992705c-27.858521-130.217012-179.331746-94.030251-205.480851-42.760167-26.153234 51.278342 21.933372 223.037459 115.753043 195.752872z" fill="#FFBF00" p-id="3927"></path><path d="M856.678489 468.093059s117.417039-39.605593 93.237478-159.479401c-27.164845-134.705261-182.333546-95.677731-209.576842-42.264684-27.243297 53.408918 20.16615 230.989958 116.339364 201.744085z" fill="#E37900" fill-opacity=".29" p-id="3928"></path><path d="M892.027059 268.624066s-52.322985-39.704689-123.090318 4.579087c0 0-4.653409 16.891835 46.529965 22.697242 51.195762 5.809536 76.560353-27.276329 76.560353-27.276329z" fill="#E37900" p-id="3929"></path><path d="M696.203993 407.177576s46.207901 98.580434 184.575606 101.491396c94.133476 1.977802 85.817623-206.926009-77.29119-171.8706-133.379844 28.66781-107.284416 70.379204-107.284416 70.379204z" fill="#FFBF00" p-id="3930"></path><path d="M844.196451 473.270854s110.05912-39.390884 89.182778-153.269349c-23.452853-127.974952-168.703639-88.62123-194.865132-37.338759-26.149105 51.265955 15.591192 219.804433 105.682354 190.608108z" fill="#E37900" fill-opacity=".44" p-id="3931"></path><path d="M683.816923 394.05554s46.21203 98.580434 184.575606 101.491396c94.133476 1.969544 85.813494-206.926009-77.287061-171.866472-133.383973 28.66781-107.288545 70.375075-107.288545 70.375076z" fill="#E37900" fill-opacity=".29" p-id="3932"></path><path d="M675.311135 382.684209s46.21203 98.584564 184.571476 101.487267c94.133476 1.981931 85.817623-206.917751-77.28706-171.858213-133.383973 28.663681-107.284416 70.370946-107.284416 70.370946z" fill="#E37900" fill-opacity=".44" p-id="3933"></path><path d="M856.824071 406.093436a74.045777 95.149216 73.62 1 0-41.762792-142.080884 74.045777 95.149216 73.62 1 0 41.762792 142.080884Z" fill="#FFBF00" p-id="3934"></path><path d="M723.653741 430.762558s36.413858 28.832971 64.470572 38.792175c28.052585 9.959205-18.246155 56.44375-48.916541 30.616709-30.674515-25.831171-5.214957 29.757872-46.996544 20.137247-41.777459-9.616496-33.028058-128.342435 31.442513-89.546131z" fill="#FFBF00" p-id="3935"></path><path d="M854.726584 429.521215a64.43754 63.190575 12.962 1 0 28.347895-123.160837 64.43754 63.190575 12.962 1 0-28.347895 123.160837Z" fill="#FFBF00" p-id="3936"></path><path d="M727.027153 416.133428s36.409729 28.824713 64.466443 38.796304c28.052585 9.950946-18.246155 56.439621-48.920669 30.604322-30.674515-25.8353-5.214957 29.762001-46.992416 20.141376-41.777459-9.612367-33.028058-128.338306 31.446642-89.542002z" fill="#E37900" p-id="3937"></path><path d="M796.67965 495.712097s-75.879064-9.087981-110.699119-80.829763c-34.820055-71.75004 94.616572-6.346309 110.699119 80.829763z" fill="#E37900" p-id="3938"></path><path d="M907.870122 503.693499c-9.884882 3.402315-12.614167 4.541926-27.090523 4.975473-138.334672 4.112507-184.575606-101.491396-184.575606-101.491396s-0.80516-2.32464-1.502964-6.1316c4.620377 0.842321 9.930301 2.233802 15.987579 4.277669 88.418908 29.786775 155.944957 73.376875 197.181514 98.369854z" fill="#FFBF00" p-id="3939"></path><path d="M846.917538 414.854334a64.43754 63.190575 12.962 1 0 28.347895-123.160837 64.43754 63.190575 12.962 1 0-28.347895 123.160837Z" fill="#E37900" fill-opacity=".44" p-id="3940"></path><path d="M882.018306 508.33865c-8.443853 1.52361-10.776751 2.07277-23.064725 1.048772-117.512007-9.781657-155.391668-89.145616-155.391668-89.145616s-0.656515-1.725932-1.197417-4.500635c3.910185 1.019869 8.402563 2.506317 13.518423 4.508893 74.681647 29.316066 131.443332 66.526826 166.135387 88.088586z" fill="#FFE599" fill-opacity=".64" p-id="3941"></path><path d="M839.644202 417.541886a74.045777 95.140958 73.62 1 0-41.762793-142.080884 74.045777 95.140958 73.62 1 0 41.762793 142.080884Z" fill="#E37900" fill-opacity=".44" p-id="3942"></path><path d="M653.291053 266.823812s3.047219-24.551173 65.461537-40.9723c62.414318-16.408739 62.261544-35.649988 62.261545-35.649988s-111.169827 138.338801-134.090036 127.970823c0.004129-0.004129 10.562042-31.748061 6.366954-51.348535z" fill="#E37900" p-id="3943"></path><path d="M875.316901 310.079461c-25.604074-5.892116-51.125568 10.045914-57.005298 35.60044-5.879729 25.554526 10.10372 51.042988 35.711924 56.935104 25.591687 5.892116 32.825736-14.253389 38.705466-39.807915 5.887987-25.554526 8.187853-46.835513-17.412092-52.727629z" fill="#FFBF00" p-id="3944"></path><path d="M885.684879 302.197155c-25.595816-5.887987-51.11731 10.045914-57.001169 35.600441-5.879729 25.554526 10.111978 51.038859 35.703666 56.935104 25.608203 5.892116 32.838123-14.24926 38.717853-39.803786 5.879729-25.554526 8.187853-46.843771-17.42035-52.731759z" fill="#FFD500" p-id="3945"></path><path d="M875.329288 309.757397c-28.473746-6.556889-56.860782 11.173137-63.405284 39.593206-6.540373 28.420068 11.24746 56.765814 39.717077 63.322703 28.482004 6.556889 36.525341-15.847192 43.069843-44.275518 6.536244-28.420068 9.096239-52.087631-19.381636-58.640391z" fill="#FFBF00" p-id="3946"></path><path d="M851.777338 311.18191c-30.719934-7.068888-61.34903 12.056748-68.405531 42.723006-7.06063 30.670386 12.131071 61.254063 42.851005 68.322951 30.732321 7.073017 39.411529-17.102415 46.46803-47.768672 7.052372-30.666257 9.814689-56.204267-20.913504-63.277285z" fill="#E37900" p-id="3947"></path><path d="M696.203993 407.177576c24.357109-19.637635 52.545952-58.099489 72.877264-133.222941 45.869321-12.709134 89.071294 2.543478 104.679002 103.415521 8.299337 53.640143 14.084099 105.442871-69.173529 66.258439-83.224596-39.180303-108.362091-36.44689-108.382737-36.451019z" fill="#E37900" p-id="3948"></path><path d="M703.516494 406.302223c22.895435-17.370802 49.201443-51.621051 67.596243-118.957165 43.416681-10.875848 84.632593 3.373412 100.690365 94.306895 8.547079 48.363251 14.666291 95.029474-64.895861 58.751875-79.52912-36.248697-103.37836-34.105734-103.390747-34.101605z" fill="#FFBF00" p-id="3949"></path><path d="M775.576211 244.712891c-27.961747 214.667928-134.969518 202.900212-134.969518 202.900212-0.598708-3.662444-1.131352-7.258823-1.626835-10.793267 17.684607-0.681289 96.243407-13.997389 136.596353-192.106945z" fill="#E37900" p-id="3950"></path><path d="M844.621741 462.816167s-40.9723-38.651788-155.944957-65.292248l5.45444 7.820371c0 0.004129 92.923672 26.388589 150.490517 57.471877z" fill="#E37900" p-id="3951"></path><path d="M645.239457 427.50063s109.17138 10.995589 142.215954-249.748112c0 0 5.826052 19.311443-58.586713 48.144413-64.412766 28.828842-102.833329 84.186659-83.629241 201.603699z" fill="#FFBF00" p-id="3952"></path><path d="M706.084747 399.625592c5.900374 15.921514 9.946817 32.00819 12.110425 46.670352 5.586569 37.92508-1.461674 66.34102-21.813631 57.851748 0 0-23.432208-7.708887-45.543128-29.650518-29.150905-28.911422-52.574855-41.893072-44.453066-74.995452 16.450029-67.047083-11.45804-71.787201-0.945547-84.644981 8.386047-10.244107 23.159692-9.781657 43.111134 3.695476 26.417492 17.837381 45.695902 49.127121 57.533813 81.073375z" fill="#E08600" p-id="3953"></path><path d="M715.102534 410.340408c5.305795 15.046161 8.790691 30.121226 10.475332 43.76352 4.351991 35.311408-3.377541 61.064128-23.048209 51.951372 0 0-22.701371-8.571853-43.705713-30.179032-27.685102-28.490262-50.233699-41.917846-41.302621-71.91933 18.072736-60.766838-9.104497-66.881922 1.556642-78.075704 8.518175-8.918691 22.969757-7.556113 42.099523 6.119213 25.32743 18.105768 43.284553 48.1568 53.925046 78.339961z" fill="#FFBF00" p-id="3954"></path><path d="M706.774293 400.35643a178.939489 178.939489 0 0 1 9.381142 32.780317c4.909409 26.929491 1.39561 47.892543-11.941136 43.177198 0 0-15.265-3.922572-30.203807-18.188349-19.678926-18.820089-35.129731-26.537234-31.091546-50.952149 8.183724-49.436798-9.843592-50.914988-3.567476-60.911353 5.016763-7.960757 14.488743-8.650304 27.73465-0.322064 17.544221 11.020364 30.984192 32.214641 39.688173 54.4164z" fill="#FFEECC" fill-opacity=".45" p-id="3955"></path><path d="M859.882611 212.295928s-49.531765-8.191982-79.335056 10.454688l-4.120765 17.915832s20.25286-23.76253 83.455821-28.37052z" fill="#D67200" p-id="3956"></path><path d="M802.034993 310.455202c-22.338017 7.82037-95.219409 81.886793-23.729498 109.08467 54.717819 20.822665 61.159095 39.213336 83.501241 31.397095 22.342146-7.812112 13.53081-47.966865 2.993542-83.955434-19.398152-66.184117-40.427268-64.346701-62.765285-56.526331z" fill="#FFE599" fill-opacity=".64" p-id="3957"></path><path d="M815.978705 336.897468c-16.433513 2.262705-56.303364 57.682457-16.644093 77.365512 36.000955 17.866284 35.683021 32.883543 52.112405 30.620838 16.437642-2.266834 13.625777-19.472475 9.100367-43.747003-9.538044-51.195762-28.131037-66.510309-44.568679-64.239347z" fill="#FFF5D6" fill-opacity=".64" p-id="3958"></path><path d="M759.951986 239.696128c-19.055443-11.354814-64.759604 22.585758-84.26511 55.291753-19.501378 32.705995-8.072241 82.303824 10.987331 93.675154 19.055443 11.367202 30.240968-7.931854 49.746475-40.641977 19.49312-32.705995 42.586748-96.953599 23.531304-108.32493z" fill="#FFE599" fill-opacity=".47" p-id="3959"></path><path d="M751.537036 277.972175c-7.807983-4.645151-32.074254 18.564089-44.077325 38.705466-12.0072 20.133118-11.20617 46.951125-3.402315 51.608664 7.807983 4.657538 13.068359-13.19223 25.07143-33.333607 12.003071-20.137247 30.212064-52.322985 22.40821-56.980523z" fill="#FFEECC" fill-opacity=".47" p-id="3960"></path><path d="M699.412245 399.683399a91.70561 91.70561 0 0 1 4.806183 16.78448c2.510446 13.790938 0.71845 24.526399-6.110955 22.11092 0 0-7.82037-2.010834-15.471451-9.315076-10.074817-9.633012-17.986026-13.588616-15.913256-26.083041 4.18683-25.32743-5.045667-26.074783-1.825028-31.194772 2.564124-4.075346 7.411597-4.434571 14.195582-0.16929 8.980626 5.648504 15.859579 16.503707 20.318925 27.866779z" fill="#FFEECC" p-id="3961"></path><path d="M823.109529 372.78694c-7.221662 1.548384-23.072983 27.48278-4.806184 34.906764 16.5739 6.726179 16.928996 13.406939 24.150658 11.846168 7.221662-1.548384 5.400763-9.100368 2.58064-19.724345-5.945794-22.412339-14.707581-28.585229-21.925114-27.028587z" fill="#FFF5D6" fill-opacity=".64" p-id="3962"></path><path d="M842.053488 504.490401s-54.321432-8.121789-94.439024-45.109581c-40.113463-36.983663 94.439024 45.109581 94.439024 45.109581z" fill="#FFE599" p-id="3963"></path><path d="M259.233572 107.17925c-72.352878 58.776649 7.134952 72.794683 36.343665 163.591908 24.117626 74.999582 104.716163 69.623593 145.74214 36.298245 41.042493-33.329477 34.047927-109.922862-15.624225-171.073699-49.668023-61.154966-125.427345-62.141803-166.46158-28.816454z" fill="#E08600" p-id="3964"></path><path d="M428.721726 288.806732s50.22957-4.471732 79.772733-17.577252c29.539034-13.109649 27.78007 58.103618-15.690289 60.655354-43.457972 2.547607 18.118155 27.334135-21.98705 50.964536-40.101076 23.626272-121.872256-76.465385-42.095394-94.042638z" fill="#E08600" p-id="3965"></path><path d="M579.901206 200.899886a76.271321 69.161143 59.501 1 0-77.418949-131.436539 76.271321 69.161143 59.501 1 0 77.418949 131.436539Z" fill="#FFBF00" p-id="3966"></path><path d="M443.437566 294.86401s46.265708-4.120765 73.48423-16.185772c27.206135-12.077394 25.587558 53.516273-14.451582 55.861558-40.035011 2.349414 16.685384 25.187043-20.25286 46.946996-36.946502 21.764083-112.25576-70.432882-38.779788-86.622782z" fill="#FFD040" p-id="3967"></path><path d="M248.266886 107.059508c-63.586961 68.166048 17.073512 71.1183 58.500004 157.035019 34.20483 70.969655 113.296274 54.556787 149.350907 15.900869 36.062891-38.655917 18.592993-113.560532-39.011014-167.291513C359.502778 58.964643 284.325648 68.403591 248.266886 107.059508z" fill="#FFBF00" p-id="3968"></path><path d="M264.159497 105.903381c-48.784412 52.285824-4.612119 64.978442 27.168975 130.894172 26.235815 54.441174 104.612938 31.41361 132.277394 1.758964 27.664457-29.650517 14.269905-87.105878-29.927162-128.334177-44.188809-41.22417-101.863008-33.973605-129.519207-4.318959z" fill="#E37900" fill-opacity=".44" p-id="3969"></path><path d="M280.84901 107.055379c-38.969723 41.77333-5.549407 38.779788 5.603085 114.064272 7.077146 47.768672 99.687013 15.615967 121.793804-8.07637 22.098533-23.692336 11.396105-69.59469-23.915304-102.531909-35.307279-32.933091-81.374794-27.1442-103.481585-3.455993z" fill="#E37900" fill-opacity=".44" p-id="3970"></path><path d="M565.057341 203.994517a76.271321 69.169401 59.496 1 0-77.430419-131.429783 76.271321 69.169401 59.496 1 0 77.430419 131.429783Z" fill="#E37900" fill-opacity=".44" p-id="3971"></path><path d="M401.511462 42.778871s-135.440227-87.489878-91.994642 19.918409c43.441456 107.412416 3.257799 4.376765 3.257799 4.376765s53.10337 137.917641 88.736843-24.295174z" fill="#FFBF00" p-id="3972"></path><path d="M420.694905 51.210337s-141.419053-80.495312-100.950494 25.901364c40.460301 106.396676 3.261929 4.240507 3.261928 4.240507s49.052798 136.794546 97.688566-30.141871z" fill="#E37900" fill-opacity=".44" p-id="3973"></path><path d="M432.359396 62.800506S289.780088-19.689124 331.173548 88.297225c41.39346 107.973963 3.29909 4.3107 3.299089 4.310701s50.246086 138.805381 97.886759-29.80742z" fill="#E37900" fill-opacity=".44" p-id="3974"></path><path d="M560.635767 195.622932s57.595748-105.707129-40.109334-172.766599C410.731571-52.494216 325.677818 77.958151 341.966815 133.167323c16.293126 55.205043 169.339509 146.79917 218.668952 62.455609z" fill="#FFBF00" p-id="3975"></path><path d="M555.16894 219.212042s57.983876-109.50996-42.025201-179.889163C400.768238-39.764436 314.987776 95.300049 331.953933 152.804959c16.962028 57.504909 173.52221 153.785478 223.215007 66.407083z" fill="#E37900" fill-opacity=".29" p-id="3976"></path><path d="M443.619243 50.116146s-65.292248 7.167985-86.193364 87.993618c0 0 8.241531 15.459064 49.38312-15.533386 41.158106-31.000708 36.810244-72.460232 36.810244-72.460232z" fill="#E37900" p-id="3977"></path><path d="M396.791988 285.379643s101.351009 39.770754 203.783823-53.301563c69.685528-63.314445-80.045248-209.221746-174.319112-71.580751-77.092997 112.557179-29.464711 124.882314-29.464711 124.882314z" fill="#FFBF00" p-id="3978"></path><path d="M549.669081 231.549565s52.789565-104.295003-40.695655-172.59318c-105.050614-76.754417-183.41535 51.728406-167.126353 106.941707 16.284868 55.196785 162.518362 148.822392 207.822008 65.651473z" fill="#E37900" fill-opacity=".44" p-id="3979"></path><path d="M378.777059 284.380419s101.351009 39.762496 203.779693-53.301563c69.685528-63.322703-80.045248-209.225875-174.319111-71.584879-77.097126 112.561308-29.460582 124.886443-29.460582 124.886442z" fill="#E37900" fill-opacity=".29" p-id="3980"></path><path d="M364.779669 281.973199s101.351009 39.766625 203.779694-53.301564c69.685528-63.314445-80.045248-209.217617-174.319111-71.572492-77.092997 112.557179-29.460582 124.874056-29.460583 124.874056z" fill="#E37900" fill-opacity=".44" p-id="3981"></path><path d="M512.670292 174.101266a74.045777 95.145087 30.16 1 0-128.043774-74.403633 74.045777 95.145087 30.16 1 0 128.043774 74.403633Z" fill="#FFBF00" p-id="3982"></path><path d="M432.937459 283.61655s46.265708-4.120765 73.480101-16.189901c27.210264-12.069135 25.5793 53.516273-14.447453 55.865687-40.030882 2.349414 16.689513 25.191172-20.25286 46.946997-36.946502 21.764083-112.25576-70.437011-38.779788-86.622783z" fill="#FFBF00" p-id="3983"></path><path d="M527.169695 192.540518a63.190575 64.43754 59.496 1 0-64.150883-108.889205 63.190575 64.43754 59.496 1 0 64.150883 108.889205Z" fill="#FFBF00" p-id="3984"></path><path d="M425.319411 270.68032s46.261579-4.120765 73.48423-16.181643c27.206135-12.077394 25.575171 53.512144-14.455711 55.861558-40.035011 2.345285 16.689513 25.187043-20.248731 46.946996s-112.259889-70.432882-38.779788-86.626911z" fill="#E37900" p-id="3985"></path><path d="M530.617767 280.52804s-61.328385 45.596806-135.948097 17.474028c-74.62797-28.122779 64.30954-69.685528 135.948097-17.474028z" fill="#E37900" p-id="3986"></path><path d="M616.81526 209.830901c-4.839215 9.269658-6.032503 11.974168-16.243578 22.247179-97.577082 98.142758-203.783823 53.301564-203.783823 53.301563s-2.180124-1.131352-5.309924-3.414702c3.934959-2.572382 8.745272-5.210828 14.542421-7.894693 84.669755-39.196819 163.674489-54.007627 210.794904-64.239347z" fill="#FFBF00" p-id="3987"></path><path d="M511.509803 187.29153a63.190575 64.441669 59.501 1 0-64.141381-108.894803 63.190575 64.441669 59.501 1 0 64.141381 108.894803Z" fill="#E37900" fill-opacity=".44" p-id="3988"></path><path d="M601.240583 230.988017c-5.078699 6.911985-6.387599 8.92282-16.016481 16.631707-92.023545 73.727842-174.108531 42.177974-174.108532 42.177974s-1.659867-0.801031-3.959733-2.444382c3.534444-1.953028 7.824499-3.963862 12.911456-6.024245 74.37197-30.088194 141.167182-42.128426 181.17329-50.341054z" fill="#FFE599" fill-opacity=".64" p-id="3989"></path><path d="M508.068038 194.235892a74.045777 95.145087 30.16 1 0-128.043774-74.403633 74.045777 95.145087 30.16 1 0 128.043774 74.403633Z" fill="#E37900" fill-opacity=".44" p-id="3990"></path><path d="M269.09368 213.022636s-14.674549-19.91428 19.336217-74.764227c34.014895-54.849947 20.669891-68.70695 20.669891-68.70695s14.468098 176.883235-9.302689 185.120637c-0.004129 0-14.174937-30.307032-30.703419-41.64946z" fill="#E37900" p-id="3991"></path><path d="M460.007337 91.695412c-22.635306 13.336746-30.199677 42.458748-16.891835 65.052764 13.316101 22.594016 42.446361 30.096452 65.081667 16.759706 22.635306-13.332617 14.030422-32.928962 0.72258-55.522978-13.307843-22.594016-26.281234-39.61798-48.912412-26.289492z" fill="#FFBF00" p-id="3992"></path><path d="M462.10901 78.841762c-22.631177 13.332617-30.195548 42.454619-16.891835 65.048635 13.316101 22.589887 42.45049 30.092323 65.085796 16.759706 22.639435-13.332617 14.030422-32.928962 0.722579-55.522978-13.311972-22.589887-26.281234-39.626238-48.91654-26.285363z" fill="#FFD500" p-id="3993"></path><path d="M459.788499 91.451799c-25.178785 14.831452-33.585477 47.22777-18.787057 72.352878 14.802549 25.129237 47.211254 33.465735 72.390039 18.642541 25.178785-14.835581 15.60358-36.628567 0.80103-61.761933-14.802549-25.120979-29.21697-44.060809-54.404012-29.233486z" fill="#FFBF00" p-id="3994"></path><path d="M443.677049 108.686343c-27.164845 15.999966-36.232181 50.952149-20.265247 78.067446 15.975192 27.115297 50.943891 36.116568 78.104608 20.116602 27.168974-16.008224 16.842287-39.523012 0.867094-66.638309-15.979321-27.111168-31.533352-47.549834-58.706455-31.545739z" fill="#E37900" p-id="3995"></path><path d="M396.791988 285.379643c4.170314-31.008966-1.825028-78.311058-38.742627-146.828073 24.555302-40.778235 66.402955-59.424905 147.112976 3.055477 42.91707 33.222123 82.753888 66.84476-4.628635 95.673602-87.361878 28.816455-103.725198 48.090736-103.741714 48.098994z" fill="#E37900" p-id="3996"></path><path d="M401.494946 279.714623c4.674055-28.358133 0.202322-71.312364-32.76793-132.838942 24.035045-37.75579 63.752122-55.76659 137.958931-0.809289 39.465206 29.225228 76.015321 58.888132-6.689018 87.283427-82.65892 28.395294-98.493725 46.356546-98.501983 46.364804z" fill="#FFBF00" p-id="3997"></path><path d="M342.648104 112.860786c127.363857 175.049948 41.60404 240.1151 41.60404 240.1151a448.246784 448.246784 0 0 1-8.604885-6.717921c12.366425-12.659586 60.225936-76.35803-32.999155-233.397179z" fill="#E37900" p-id="3998"></path><path d="M542.790128 223.675517s-56.328138 0.132129-158.100308 59.879098l9.339851 1.924125s85.594656-44.771001 148.760457-61.803223z" fill="#E37900" p-id="3999"></path><path d="M373.776812 335.188053s86.80446-67.113147-68.570693-279.101339c0 0 17.515317 10.008753-9.401786 75.243194-26.925362 65.234441-16.734932 131.843847 77.972479 203.858145z" fill="#FFBF00" p-id="4000"></path><path d="M398.765661 273.104056c15.231967 7.498307 29.237615 16.392223 40.889719 25.546268 30.146 23.684078 44.576937 49.160153 23.964852 56.992911 0 0-22.313243 10.524881-53.454337 9.80643-41.042493-0.933159-66.976889 5.759988-83.848079-23.857497-34.180056-59.978194-57.703102-44.221841-58.912906-60.787483-0.957933-13.204617 10.083075-23.031693 33.833218-26.979039 31.446642-5.214957 66.960373 4.236378 97.527533 19.27841z" fill="#E08600" p-id="4001"></path><path d="M412.684599 274.673085c14.199712 7.275339 27.098781 15.822418 37.710371 24.559432 27.44149 22.635306 39.539528 46.645578 19.001766 53.561692 0 0-22.375178 9.397657-52.484017 8.163079-39.688173-1.635093-65.292248 4.124894-79.450669-23.791433-28.680197-56.538718-52.612017-42.285329-52.574855-57.740264 0.053677-12.333393 11.474556-21.285116 34.766377-24.518141 30.839676-4.281797 64.540765 5.181924 93.031027 19.765635z" fill="#FFBF00" p-id="4002"></path><path d="M399.769014 273.161863a178.97665 178.97665 0 0 1 29.361486 17.33364c22.090275 16.169256 33.957089 33.804315 21.033245 39.556045 0 0-13.774422 7.655209-34.436055 7.572629-27.226781-0.119742-43.751132 4.90528-57.616393-15.595322-28.064972-41.513202-42.173845-30.183161-44.490228-41.752685-1.837415-9.232496 4.5667-16.247707 19.906022-19.311443 20.314795-4.071217 44.655388 2.068641 66.241923 12.197136z" fill="#FFEECC" fill-opacity=".45" p-id="4003"></path><path d="M381.539376 31.337347s-41.587524 28.126908-50.394731 62.162448l9.335722 15.838934s-1.643351-31.178256 41.059009-78.001382z" fill="#D67200" p-id="4004"></path><path d="M407.069127 142.375045c-10.834557 21.045632-12.783457 124.931862 57.810458 95.500183 54.040659-22.527952 71.37017-13.609261 82.208856-34.650764s-23.17208-44.131002-55.576655-62.996511c-59.602453-34.687926-73.599843-18.894411-84.442659 2.147092z" fill="#FFE599" fill-opacity=".64" p-id="4005"></path><path d="M435.38597 151.979154c-10.376236 12.948617-1.193288 80.598537 41.137461 67.604501 38.416434-11.792491 48.511896-0.673031 58.879874-13.621649 10.380365-12.948617-3.497283-23.50653-23.477627-38.011789-42.144942-30.596064-66.17173-28.923809-76.539708-15.971063z" fill="#FFF5D6" fill-opacity=".64" p-id="4006"></path><path d="M327.857942 119.966835c-21.652599 4.868119-31.471417 60.944386-23.130789 98.097339 8.340627 37.152953 50.753956 65.292248 72.410684 60.432387 21.64847-4.859861 16.495449-26.557879 8.146563-63.714961-8.344756-37.152953-35.777988-99.670497-57.426458-94.814765z" fill="#FFE599" fill-opacity=".47" p-id="4007"></path><path d="M348.07777 153.539925c-8.865013 1.998447-10.512494 35.538505-5.363602 58.413294 5.128247 22.87479 24.158916 41.785717 33.028059 39.799657 8.865013-1.990189 0.408773-18.564089-4.731861-41.438879-5.140634-22.878919-14.063454-58.760132-22.932596-56.774072z" fill="#FFEECC" fill-opacity=".47" p-id="4008"></path><path d="M393.963607 277.74095a91.263805 91.263805 0 0 1 15.033774 8.873271c11.313524 8.282821 17.387318 17.308866 10.776752 20.256989 0 0-7.056501 3.918443-17.639189 3.881282-13.939583-0.061935-22.404081 2.506317-29.493614-7.98966-14.381389-21.260342-21.598922-15.459064-22.78808-21.384213-0.945546-4.727732 2.328769-8.319982 10.19043-9.89314 10.405139-2.076899 22.866532 1.069417 33.919927 6.255471z" fill="#FFEECC" p-id="4009"></path><path d="M465.242939 173.128012c-4.178572 6.094439 2.15535 35.815149 20.521246 28.638906 16.656481-6.519728 21.512212-1.911738 25.678397-8.010305 4.178572-6.09031-2.332898-10.31843-11.689266-16.094933-19.732603-12.17649-30.335935-10.628106-34.510377-4.533668z" fill="#FFF5D6" fill-opacity=".64" p-id="4010"></path><path d="M569.58749 255.691965s-45.014613 31.467288-99.579658 32.21464c-54.548529 0.751482 99.579658-32.214641 99.579658-32.21464z" fill="#FFE599" p-id="4011"></path><path d="M423.358125 318.845378c76.279579 53.594724-2.043867 73.116747-24.856721 165.730743-18.836605 76.494288-99.61269 76.750288-142.864211 46.360675-43.259779-30.385483-41.616427-107.276158 3.670702-171.738472 45.287129-64.470572 120.790452-70.7343 164.05023-40.352946z" fill="#E08600" p-id="4012"></path><path d="M266.93833 511.844191s-50.415376-0.957933-80.804988-11.974168c-30.381354-11.016235-23.659304 59.899743 19.872989 59.416648 43.532294-0.487225-16.169256 28.535681 25.488462 49.308797 41.653588 20.773117 116.248526-84.777109 35.443537-96.751277z" fill="#E08600" p-id="4013"></path><path d="M110.029145 434.668222a69.161143 76.27545 26.507 1 0 68.084557-136.514725 69.161143 76.27545 26.507 1 0-68.084557 136.514725Z" fill="#FFBF00" p-id="4014"></path><path d="M252.676683 518.917208s-46.439127-0.88774-74.425647-11.03275c-27.986521-10.14914-21.797115 55.172011 18.30809 54.726076 40.096947-0.445935-14.893388 26.285363 23.477627 45.419258 38.362757 19.129766 107.069707-78.088091 32.63993-89.112584z" fill="#FFD040" p-id="4015"></path><path d="M434.291779 317.965896c68.186693 63.570445-12.077394 72.134039-47.413576 160.734624-29.179809 73.178682-109.220928 62.315222-147.885103 26.264718-38.668304-36.046375-26.458782-111.987374 27.259812-169.603766 53.722724-57.624651 129.374691-53.446079 168.038867-17.395576z" fill="#FFBF00" p-id="4016"></path><path d="M418.357878 317.920477c52.306469 48.759638 9.129271 64.499475-17.981898 132.471459-22.379307 56.134074-102.168556 38.627014-131.83146 10.970815-29.662904-27.65207-20.302408-85.904333 20.913504-130.105529 41.207654-44.205325 99.236949-40.992945 128.899854-13.336745z" fill="#E37900" fill-opacity=".44" p-id="4017"></path><path d="M401.783977 320.23273c41.789846 38.957336 8.24566 38.300821 2.361802 114.175756-3.732637 48.144413-98.357467 22.519694-122.058062 0.425289-23.696465-22.090275-16.214675-68.628498 16.706029-103.939907 32.928962-35.319666 79.293766-32.751414 102.990231-10.661138z" fill="#E37900" fill-opacity=".44" p-id="4018"></path><path d="M125.026289 436.741851a69.165272 76.271321 26.507 1 0 68.080871-136.507335 69.165272 76.271321 26.507 1 0-68.080871 136.507335Z" fill="#E37900" fill-opacity=".44" p-id="4019"></path><path d="M276.934696 264.519817s129.015466-96.714116 93.163156 13.460616-2.943994 4.587345-2.943994 4.587345-43.367133 141.286924-90.219162-18.047961z" fill="#FFBF00" p-id="4020"></path><path d="M258.391252 274.268441s135.460872-90.153098 102.511264 18.807702-2.956381 4.459345-2.95638 4.459345-39.411529 139.874798-99.554884-23.267047z" fill="#E37900" fill-opacity=".44" p-id="4021"></path><path d="M247.560823 286.643124s136.48487-92.217609 102.717716 18.386542c-33.767154 110.595893-2.993542 4.529539-2.993542 4.529538s-40.452043 141.968213-99.724174-22.91608z" fill="#E37900" fill-opacity=".44" p-id="4022"></path><path d="M128.851399 428.078693s-64.825668-101.437719 27.970005-175.140787c104.278487-82.815823 198.21377 41.39346 185.810184 97.597727-12.399457 56.208396-158.694887 158.248952-213.780189 77.54306z" fill="#FFBF00" p-id="4023"></path><path d="M135.945062 451.234256s-65.465667-105.207517 29.390389-182.383094c106.59074-86.726008 201.574795 42.02933 188.659209 100.583011-12.919714 58.545423-162.386234 165.499517-218.049598 81.800083z" fill="#E37900" fill-opacity=".29" p-id="4024"></path><path d="M235.442139 274.772182s65.630827 2.601285 92.114384 81.77118c0 0-7.143211 15.995837-50.349312-12.05262-43.21023-28.056714-41.765072-69.718561-41.765072-69.71856z" fill="#E37900" p-id="4025"></path><path d="M298.554263 506.203945s-98.340951 46.728158-207.000332-38.973852C17.627895 408.920024 156.821404 252.937906 260.459892 383.675175c84.748206 106.916933 38.09437 122.52877 38.094371 122.52877z" fill="#FFBF00" p-id="4026"></path><path d="M142.287242 463.154747s-59.924517-100.364173 28.572842-175.008658c99.451658-83.88524 186.574053 38.821078 174.174595 95.033603C332.635222 439.37983 193.28481 542.96877 142.287242 463.154747z" fill="#E37900" fill-opacity=".44" p-id="4027"></path><path d="M316.457708 503.949498s-98.336822 46.724029-207.000332-38.973852C35.531341 406.661448 174.728979 250.67933 278.363338 381.420728c84.748206 106.916933 38.09437 122.52877 38.09437 122.52877z" fill="#E37900" fill-opacity=".29" p-id="4028"></path><path d="M330.252776 500.571957s-98.336822 46.732287-207.000332-38.969723C49.326408 403.296294 188.528175 247.314176 292.158405 378.055574c84.752335 106.908675 38.09437 122.516383 38.094371 122.516383z" fill="#E37900" fill-opacity=".44" p-id="4029"></path><path d="M175.235196 403.247203a95.145087 74.045777 55.843 1 0 122.546084-83.147855 95.145087 74.045777 55.843 1 0-122.546084 83.147855Z" fill="#FFBF00" p-id="4030"></path><path d="M262.367501 506.967815s-46.434998-0.88774-74.425647-11.03688c-27.986521-10.145011-21.792986 55.172011 18.303961 54.721948 40.101076-0.441806-14.889259 26.289492 23.481756 45.423386 38.362757 19.133895 107.069707-78.083962 32.63993-89.108454z" fill="#FFBF00" p-id="4031"></path><path d="M162.016393 422.672076a64.441669 63.190575 26.507 1 0 56.40481-113.095942 64.441669 63.190575 26.507 1 0-56.40481 113.095942Z" fill="#FFBF00" p-id="4032"></path><path d="M269.068906 493.527843s-46.434998-0.88774-74.425647-11.028621c-27.986521-10.14914-21.788857 55.167882 18.30809 54.721947 40.096947-0.445935-14.893388 26.285363 23.477627 45.419258 38.354499 19.138024 107.069707-78.083962 32.63993-89.112584z" fill="#E37900" p-id="4033"></path><path d="M164.711968 510.688065s64.354959 41.211783 136.839966 7.964886c72.480877-33.259284-69.008369-65.040377-136.839966-7.964886z" fill="#E37900" p-id="4034"></path><path d="M73.803259 446.167945c5.462698 8.914562 6.845921 11.528233 17.746543 21.062148 104.175261 91.106902 207.000332 38.973852 207.000332 38.973852s2.097544-1.288255 5.058053-3.778056c-4.10012-2.291608-9.087981-4.587345-15.058548-6.862437-87.188459-33.201477-167.027256-42.471135-214.74638-49.395507z" fill="#FFBF00" p-id="4035"></path><path d="M177.304758 416.319362a64.441669 63.190575 26.507 1 0 56.40481-113.095943 64.441669 63.190575 26.507 1 0-56.40481 113.095943Z" fill="#E37900" fill-opacity=".44" p-id="4036"></path><path d="M90.810707 466.189579c5.545278 6.536244 6.994566 8.452111 17.135447 15.47558 96.932954 67.133792 176.623106 29.943678 176.623106 29.943678s1.602061-0.920772 3.786315-2.712768c-3.670702-1.701158-8.080499-3.406444-13.303714-5.111731-76.287837-24.836076-143.760209-32.189867-184.241154-37.594759z" fill="#FFE599" fill-opacity=".64" p-id="4037"></path><path d="M181.231939 423.001936a95.145087 74.045777 55.843 1 0 122.546084-83.147855 95.145087 74.045777 55.843 1 0-122.546084 83.147855Z" fill="#E37900" fill-opacity=".44" p-id="4038"></path><path d="M420.893098 425.122312s13.254165-20.88873-24.493367-73.236489c-37.75579-52.34363-25.41001-67.10076-25.41001-67.100759s-2.105802 177.465427 22.181114 184.026445c0 0 12.027845-31.223675 27.722263-43.689197z" fill="#E37900" p-id="4039"></path><path d="M221.998039 317.396091c23.510659 11.726427 33.085865 40.24972 21.380083 63.71496-11.705781 23.469369-40.245591 32.97851-63.75625 21.252084-23.510659-11.722298-16.288997-31.867803-4.587345-55.333043 11.701652-23.46524 23.452853-41.356299 46.963512-29.634001z" fill="#FFBF00" p-id="4040"></path><path d="M219.000368 304.71586c23.50653 11.726427 33.081736 40.24972 21.375954 63.71496-11.705781 23.46524-40.245591 32.97851-63.752121 21.252084-23.510659-11.722298-16.293126-31.867803-4.587345-55.333043 11.701652-23.46524 23.452853-41.360428 46.963512-29.634001z" fill="#FFD500" p-id="4041"></path><path d="M222.192103 317.135962c26.149105 13.039456 36.801986 44.771001 23.783175 70.870558-13.014682 26.095428-44.762743 36.678115-70.911848 23.642789-26.153234-13.043585-18.118155-35.447666-5.103473-61.555482 13.014682-26.099557 26.078912-45.997321 52.232146-32.957865z" fill="#FFBF00" p-id="4042"></path><path d="M239.467937 333.206121c28.213617 14.067583 39.70056 48.305445 25.657752 76.465385-14.042809 28.164069-48.297187 39.57669-76.510804 25.504978-28.217746-14.071712-19.550926-38.251273-5.503989-66.411213 14.03868-28.155811 28.139295-49.630862 56.357041-35.55915z" fill="#E37900" p-id="4043"></path><path d="M298.550134 506.199816c-6.321535-30.641483-3.633541-78.249123 28.415939-149.169229-27.338264-38.969723-70.379204-54.651754-146.543171 13.303713-40.50572 36.128955-77.894027 72.447845 11.28875 95.116184 89.153874 22.655952 106.826094 40.741074 106.838482 40.749332z" fill="#E37900" p-id="4044"></path><path d="M293.463177 500.877505c-6.631212-27.961747-5.169537-71.122429 23.428079-134.796099-26.607427-35.992697-67.484759-51.187504-137.682287 8.803078-37.330501 31.904964-71.721137 64.041153 12.754554 86.606267 84.446787 22.565113 101.491396 39.378496 101.499654 39.386754z" fill="#FFBF00" p-id="4045"></path><path d="M340.542302 330.328192c-114.857045 183.493801-24.770012 242.431482-24.770012 242.431482 2.787091-2.448511 5.491601-4.884635 8.11766-7.304242-13.217004-11.763588-65.399602-71.973007 16.652352-235.12724z" fill="#E37900" p-id="4046"></path><path d="M148.612906 454.822378s56.196009-3.794573 161.886621 48.718347l-9.182948 2.564124s-88.505617-38.693079-152.703673-51.282471z" fill="#E37900" p-id="4047"></path><path d="M324.984142 554.286423s-91.272063-60.903096 48.953701-283.19733c0 0-16.776222 11.20617 14.625001 74.409131 31.401223 63.194704 25.872461 130.35327-63.578702 208.788199z" fill="#FFBF00" p-id="4048"></path><path d="M295.725882 494.09352c-14.674549 8.542949-28.023682 18.39067-39.006885 28.333358-28.420068 25.723816-41.042493 52.145437-19.930796 58.524779 0 0 22.982144 8.943465 54.003498 6.061406 40.881461-3.794573 67.216372 1.077675 81.985889-29.642259 29.918904-62.220254 54.474206-48.136155 54.527883-64.747217 0.04129-13.245907-11.656233-22.276081-35.625214-24.559431-31.739803-3.010058-66.510309 8.893916-95.954375 26.029364z" fill="#E08600" p-id="4049"></path><path d="M281.951459 496.636998c-13.65881 8.241531-25.930267 17.659833-35.910116 27.123555-25.802267 24.489238-36.195019 49.292282-15.22371 54.75498 0 0 22.973886 7.816241 52.925823 4.484119 39.477593-4.393281 65.420247-0.433547 77.600866-29.270647 24.670915-58.400907 49.540023-45.848676 48.421058-61.26645-0.912514-12.300361-12.927972-20.430408-36.389084-22.032469-31.058514-2.126447-64.024637 9.661915-91.424837 26.206912z" fill="#FFBF00" p-id="4050"></path><path d="M294.730787 494.225648a178.518328 178.518328 0 0 0-28.081488 19.332088c-20.905246 17.676349-31.516836 36.091794-18.22551 40.931009 0 0 14.278163 6.672502 34.877861 5.153022 27.148329-2.019092 43.986487 1.837415 56.385944-19.567442 25.108592-43.371262 39.964818-33.052833 41.47604-44.754485 1.18503-9.335722-5.685665-15.888482-21.206664-17.882801-20.546021-2.642575-44.399389 5.173666-65.226183 16.788609z" fill="#FFEECC" fill-opacity=".45" p-id="4051"></path><path d="M296.064461 251.715715s43.441456 25.15814 54.598077 58.500004l-8.204369 16.450029s-0.528515-31.219546-46.393708-74.950033z" fill="#D67200" p-id="4052"></path><path d="M278.330306 364.264636c12.279716 20.236344 21.458535 123.734445-51.014085 99.298884-55.477559-18.708605-72.138168-8.600756-84.422013-28.837099-12.279716-20.232215 20.04228-45.633967 51.051246-66.712632 57.042459-38.77153 72.109265-23.985497 84.384852-3.749153z" fill="#FFE599" fill-opacity=".64" p-id="4053"></path><path d="M250.756687 375.813514c11.251589 12.197135 6.800502 80.321893-36.323019 70.309011-39.147271-9.09211-48.441703 2.708639-59.693292-9.488496-11.251589-12.193006 1.858061-23.696465 20.777246-39.556044 39.907011-33.457477 63.991605-33.461606 75.239065-21.264471z" fill="#FFF5D6" fill-opacity=".64" p-id="4054"></path><path d="M355.794914 336.385469c21.933372 3.348638 35.64173 58.60323 29.906517 96.251666-5.731085 37.644307-46.075772 68.669789-68.021532 65.329409-21.937502-3.34038-18.30809-25.348075-12.568747-62.992382 5.735214-37.644307 28.742132-101.920814 50.683762-98.588693z" fill="#FFE599" fill-opacity=".47" p-id="4055"></path><path d="M337.961662 371.283976c8.980626 1.374965 12.961005 34.720958 9.426561 57.897166-3.526186 23.176209-21.190148 43.367133-30.174903 42.000427-8.984755-1.370836-1.705287-18.489767 1.829157-41.665976 3.530315-23.176209 9.930301-59.594195 18.919185-58.231617z" fill="#FFEECC" fill-opacity=".47" p-id="4056"></path><path d="M300.837613 498.383575a91.965739 91.965739 0 0 0-14.37726 9.901398c-10.706558 9.04669-16.140353 18.481509-9.335722 20.954794 0 0 7.312501 3.418831 17.866284 2.642575 13.898293-1.032256 22.527952 0.945546 28.870132-10.02114 12.861908-22.214146 20.467569-16.928996 21.243826-22.920209 0.606966-4.781409-2.906832-8.134176-10.859332-9.158174-10.524881-1.350191-22.742661 2.654962-33.407928 8.600756z" fill="#FFEECC" p-id="4057"></path><path d="M222.443974 398.989723c4.587345 5.788891 0.342709 35.881214-18.47738 30.001484-17.073512-5.342956-21.590664-0.417031-26.178009-6.205922-4.587345-5.784762 1.618577-10.454687 10.545526-16.867061 18.832476-13.518423 29.522518-12.713263 34.109863-6.928501z" fill="#FFF5D6" fill-opacity=".64" p-id="4058"></path><path d="M124.103023 488.630822s47.09977 28.250778 101.582234 25.195301c54.478335-3.051348-101.582235-25.195301-101.582234-25.195301z" fill="#FFE599" p-id="4059"></path><path d="M555.920422 286.424286c29.278905 67.340243 134.948873 51.220536 211.059162 18.118155 94.756959-41.207654 164.863648-181.590322 164.863648-181.590322S774.172343 11.414809 660.929746 60.657543c-113.238468 49.234475-134.300616 158.401726-105.009324 225.766743z" fill="#85CC85" p-id="4060"></path><path d="M583.163719 283.637195c24.158916 55.535365 119.027359 38.883014 188.019211 8.885659 85.879558-37.347017 152.691287-157.039148 152.691287-157.039149s-137.525384-88.732714-240.15639-44.106228c-102.639265 44.630614-124.696508 136.716095-100.554108 192.259718z" fill="#79BA79" fill-opacity=".5" p-id="4061"></path><path d="M723.979934 144.067945c72.687329-31.607674 146.774396-38.589853 203.804468-23.886401 2.646704 1.771351 4.054701 2.766446 4.054701 2.766446s-70.106689 140.382668-164.863648 181.590322c-73.319069 31.888448-174.042467 47.983381-207.51646-11.082299 24.518141-57.599877 84.087562-114.419368 164.520939-149.388068z" fill="#69A169" p-id="4062"></path><path d="M753.779096 151.421736c62.538189-27.18549 124.630443-37.012566 171.094344-30.344193 2.089286 1.073546 3.195864 1.6929 3.195864 1.692899s-67.550823 104.154616-149.078391 139.61054c-63.103865 27.429103-147.934652 45.477064-171.895374 5.805407 24.18369-42.462877 77.476996-86.672331 146.683557-116.764653z" fill="#87CF87" fill-opacity=".48" p-id="4063"></path><path d="M645.194038 216.974112s67.356759-33.354251 136.786288-18.873766c0 0-22.978015-23.407434-105.038227-25.228334-0.004129 0-66.993405 47.103899-31.748061 44.1021zM704.106944 153.746376s33.647412-27.742908 42.471135-67.938952c0 0 6.936759 17.725898-11.594297 61.600901 0.004129 0.004129-40.840171 24.282787-30.876838 6.338051z" fill="#69A169" p-id="4064"></path><path d="M644.310427 47.936021c66.208891 7.081275 119.213165 66.080891 118.383231 131.781912-0.829934 65.692763-55.172011 113.205435-121.380902 106.124161-66.208891-7.081275-14.996613-52.285824-14.174938-117.978587 0.829934-65.701021-49.032153-127.008761 17.172609-119.927486z" fill="#F05656" p-id="4065"></path><path d="M523.292879 65.158178c46.187256-44.283776 122.363609-46.7199 170.136411-5.442053 47.764543 41.273718 49.048669 110.624796 2.861413 154.904443-46.183127 44.275518-47.710866-21.338793-95.487796-62.608382-47.768672-41.277847-123.689026-42.57849-77.510028-86.854008z" fill="#FA5A5A" p-id="4066"></path><path d="M587.040872 52.325173c20.554279-19.939054 59.841937-16.821641 87.745877 6.965663 27.899811 23.783175 33.86625 59.23497 13.311971 79.174024-20.558408 19.934925-26.363815-13.621648-54.267755-37.408952-27.90394-23.783175-67.35263-28.787551-46.790093-48.730735z" fill="#FFCFCF" fill-opacity=".36" p-id="4067"></path><path d="M652.535442 305.582955c-41.971523 51.699502-120.307356 64.065928-174.979755 27.635554-54.66827-36.438632-64.970184-107.883124-23.006919-159.586756 41.967394-51.699502 52.029824 15.867837 106.702224 52.30234 54.676528 36.434503 133.247715 27.945231 91.28445 79.648862z" fill="#C74848" p-id="4068"></path><path d="M655.813886 286.093964c-41.963265 51.699502-120.307356 64.074186-174.975626 27.635554-54.66827-36.438632-64.966055-107.883124-23.002789-159.586756 41.963265-51.695373 52.025695 15.867837 106.693965 52.30234 54.676528 36.434503 133.247715 27.945231 91.28445 79.648862z" fill="#E35252" p-id="4069"></path><path d="M620.073059 285.714094c-30.199677 37.20663-90.846774 43.272166-135.473259 13.543197-44.593453-29.733098-56.27446-84.000853-26.074782-121.211612 30.195548-37.214888 41.500815 14.113002 86.110783 43.850229 44.614098 29.728969 105.645194 26.607427 75.437258 63.818186z" fill="#C74848" p-id="4070"></path><path d="M583.605524 289.079248c-16.090804 19.835829-54.325561 19.129766-85.392333-1.573158-31.054385-20.707053-43.197843-53.561692-27.098781-73.39752s27.742908 11.268105 58.801423 31.971028c31.058514 20.702923 69.784625 23.163821 53.689691 42.99965z" fill="#A13A3A" fill-opacity=".8" p-id="4071"></path><path d="M541.266518 303.931345c-5.759988 7.097791-22.821113 4.583216-38.110886-5.611343-15.281516-10.186301-23.019306-24.200206-17.267576-31.28561 5.75173-7.089533 13.142682 6.17289 28.432455 16.367449 15.289774 10.19043 32.701866 13.4441 26.946007 20.529504z" fill="#FFCFCF" fill-opacity=".8" p-id="4072"></path><path d="M742.250863 203.381367c22.78808 70.069528-20.017506 143.380339-95.619925 163.740553-75.594161 20.360215-155.354507-19.930796-178.146716-89.996195-22.78808-70.065399 52.863887-32.235286 128.458048-52.603758 75.59829-20.364344 122.512254-91.214257 145.308593-21.1406z" fill="#FA5A5A" p-id="4073"></path><path d="M744.608535 211.593994c10.19043 57.678328-23.613885 113.205435-81.242665 128.606693-63.050188 16.846416-130.712495-6.899598-151.118129-83.889369-2.923349-11.032751-4.521281-18.807702-3.46425-24.613109-33.692831 0.46658-53.495628 4.86399-40.303398 45.427516 22.792209 70.065399 102.552555 110.356409 178.146716 89.996195 72.654296-19.571571 115.009819-88.03078 97.981726-155.527926z" fill="#C74848" p-id="4074"></path><path d="M733.084431 186.167468c19.674797 41.950878-6.354567 93.047543-58.116005 114.138595-51.782083 21.074536-109.708153 4.133152-129.391207-37.817726-19.683055-41.971523 35.249473-26.161492 87.019168-47.22777 51.777954-21.086923 80.796731-71.068751 100.488044-29.093099z" fill="#FFCFCF" fill-opacity=".25" p-id="4075"></path><path d="M464.81352 262.005241s60.733806 26.946007 79.202928 0c0 0-86.346138-36.504696-86.346138-18.254412 0 18.254413 7.143211 18.254413 7.14321 18.254412z" fill="#C74848" p-id="4076"></path><path d="M462.86875 202.14266c-25.773364-13.345004-30.179032-52.905177-9.843592-88.344586 20.339569-35.427021 57.719619-53.342854 83.492983-39.993721 25.769235 13.353262-9.587592 30.459806-29.923033 65.895085-20.339569 35.443537-17.952994 75.788225-43.726358 62.443222z" fill="#FFCFCF" fill-opacity=".36" p-id="4077"></path><path d="M621.650346 53.105559c7.626306-7.048243 26.640459-1.374965 42.458748 12.663715 15.818289 14.03868 22.461887 31.136966 14.839711 38.181079-7.630435 7.048243-14.001518-9.154045-29.819808-23.192724-15.818289-14.042809-35.109086-20.607956-27.478651-27.65207z" fill="#FFCFCF" fill-opacity=".58" p-id="4078"></path><path d="M685.299243 225.265191c6.569276 13.650551-7.981402 33.032187-32.495415 43.284553-24.518141 10.244107-49.725829 7.485919-56.295105-6.172891-6.573405-13.65468 17.341898-11.11946 41.85591-21.367696 24.518141-10.252365 40.361204-29.406905 46.93461-15.743966z" fill="#FFCFCF" fill-opacity=".36" p-id="4079"></path><path d="M733.237205 188.649011c23.357886 50.002474-4.368507 109.419121-61.910578 132.7192-57.550329 23.271176-123.16464 1.597932-146.530783-48.40867-23.366144-50.023119 38.833465-29.762001 96.383794-53.037306 57.558587-23.291821 88.687294-81.3046 112.057567-31.273224z" fill="#FFCFCF" fill-opacity=".25" p-id="4080"></path><path d="M502.267498 273.00612a83.047048 101.573976 70.254 1 0 191.202772-68.633741 83.047048 101.573976 70.254 1 0-191.202772 68.633741Z" fill="#C74848" p-id="4081"></path><path d="M456.266442 165.0599c-8.873271-4.434571-6.565147-24.976463 5.161279-45.87345 11.726427-20.892859 28.424197-34.237862 37.297469-29.803291 8.8774 4.4387-6.936759 17.151963-18.659057 38.044822-11.730556 20.901117-14.922291 42.07062-23.799691 37.631919z" fill="#FFCFCF" fill-opacity=".58" p-id="4082"></path><path d="M700.068759 180.411609c13.035327 54.71369-23.444595 111.128537-81.482148 126.009537-58.029295 14.864484-115.633301-17.424479-128.668628-72.134039s41.632943-24.381883 99.662238-39.258755c58.033424-14.881 97.465598-69.322174 110.488538-14.616743z" fill="#FA5A5A" p-id="4083"></path><path d="M687.524786 217.622368c8.262176 34.700313-18.861379 71.510557-60.597548 82.208857-41.727911 10.681784-82.254276-8.774175-90.52471-43.474488-8.278692-34.704442 30.195548-16.433513 71.931718-27.135942 41.727911-10.6983 70.924236-46.311127 79.19054-11.598427z" fill="#FFCFCF" fill-opacity=".36" p-id="4084"></path><path d="M678.403773 232.788272c5.995342 24.456206-16.416997 51.460019-50.047893 60.300258s-65.758827-3.815218-71.75004-28.275553c-5.987084-24.460335 24.501625-12.593521 58.13665-21.437889 33.630896-8.840239 57.665941-35.05128 63.661283-10.586816z" fill="#FFCFCF" fill-opacity=".36" p-id="4085"></path><path d="M618.582482 306.417017a116.31459 116.31459 0 0 0 16.772093-5.710439c-60.130968 6.750953-93.522381-5.937536-100.772946-52.550081-3.579863-22.986273 15.599451-16.710158 75.76758-23.477627 32.30135-3.633541 63.107994-37.053856 85.417108-56.798847-16.206417-32.404576-53.536918 13.646422-106.186096 27.140071-58.029295 14.881-112.693437-15.450806-99.662238 39.258755 13.031198 54.717819 70.639333 87.006782 128.664499 72.138168z" fill="#C74848" fill-opacity=".34" p-id="4086"></path><path d="M660.273232 257.521122c1.940641 8.906304-12.321006 19.980344-31.847158 24.724592-19.522023 4.752506-36.921728 1.374965-38.854111-7.527209-1.932383-8.902175 14.596098-5.764117 34.113992-10.512494 19.526152-4.752506 34.654894-15.595322 36.587277-6.684889z" fill="#FFCFCF" fill-opacity=".39" p-id="4087"></path><path d="M483.173964 155.101553a81.378923 80.904085 11.392 1 0 159.551315 32.148005 81.378923 80.904085 11.392 1 0-159.551315-32.148005Z" fill="#C74848" p-id="4088"></path><path d="M541.352829 178.957928a81.378923 80.904085 11.392 1 0 159.551315 32.148006 81.378923 80.904085 11.392 1 0-159.551315-32.148006Z" fill="#C74848" p-id="4089"></path><path d="M644.63662 102.984162c43.709842 15.570547 69.561658 62.926317 57.744392 105.773193-11.813136 42.842747-56.815362 64.949539-100.525204 49.378991-43.697455-15.570547-1.218062-36.686373 10.595074-79.52912 11.813136-42.842747-11.511717-91.189483 32.185738-75.623064z" fill="#E35252" p-id="4090"></path><path d="M646.482293 108.789569c32.619285 11.614943 50.960407 50.431892 40.968171 86.697105-10.000495 36.244568-44.552163 56.212525-77.167319 44.597582-32.623414-11.614943 0-30.678644 9.996366-66.935599 9.992237-36.256955-6.42476-75.986418 26.202782-64.359088z" fill="#FFCFCF" fill-opacity=".36" p-id="4091"></path><path d="M647.518678 123.265925c23.068854 8.063983 35.38986 38.39166 27.515812 67.720113s-32.953736 46.579513-56.018461 38.507273c-23.068854-8.072241 0.615224-24.514012 8.493402-53.846595 7.86579-29.332582-3.063735-60.457161 20.009247-52.380791z" fill="#FFCFCF" fill-opacity=".36" p-id="4092"></path><path d="M649.446932 149.266386c8.291079 3.121542 11.045138 19.299056 6.156374 36.128955-4.897022 16.82577-15.574676 27.945231-23.857497 24.823688-8.291079-3.125671 1.808512-13.708358 6.693147-30.538257 4.897022-16.834029 2.721026-33.540057 11.007976-30.414386z" fill="#FFCFCF" fill-opacity=".39" p-id="4093"></path><path d="M541.353228 180.139094c-20.748343-29.084841-14.447453-67.715984 14.07997-86.280074 28.535681-18.568218 68.488112-10.041785 89.236454 19.047185 20.752472 29.084841-17.08177 21.169503-45.613322 39.737722-28.523294 18.564089-36.946502 56.584137-57.703102 27.495167z" fill="#FA5A5A" p-id="4094"></path><path d="M650.631962 126.222306c-5.726956 9.43069-31.248449 4.35612-54.24711 14.257518-31.264965 13.460616-46.017966 49.494604-61.530707 17.308866a66.237794 66.237794 0 0 1-5.652633-17.556608c-0.569805 13.514294 3.352767 27.569489 12.151716 39.907012 20.752472 29.08897 29.17568-8.931078 57.707231-27.499296 22.940854-14.922291 51.87705-12.738037 51.571503-26.417492z" fill="#C74848" fill-opacity=".34" p-id="4095"></path><path d="M538.012848 148.151549c-8.670949-23.039951 6.63947-49.040411 34.200701-58.074714 27.561231-9.030174 56.918588 2.32464 65.593666 25.364591 8.66682 23.04408-19.183443 12.403586-46.744674 21.437889-27.557102 9.030174-44.387002 34.320443-53.049693 11.272234z" fill="#FFCFCF" fill-opacity=".36" p-id="4096"></path><path d="M548.455148 132.172229c-5.247989-14.07997 7.064759-30.856192 27.478651-37.466759 20.418021-6.614696 41.215912-0.565676 46.459772 13.510165 5.24386 14.084099-14.50113 8.427337-34.910894 15.037903-20.418021 6.618825-33.787799 22.998661-39.027529 8.918691z" fill="#FFCFCF" fill-opacity=".36" p-id="4097"></path><path d="M559.826478 117.844517c-2.332898-6.065535 6.486696-14.54655 19.691313-18.931572 13.200488-4.385023 25.794009-3.026574 28.122779 3.04309 2.32464 6.069664-9.624754 4.814441-22.821113 9.203593-13.212875 4.385023-22.668339 12.754553-24.992979 6.684889z" fill="#FFCFCF" fill-opacity=".99" p-id="4098"></path><path d="M364.119026 137.19725c65.564763 32.408705 90.359549 106.16958 55.394978 164.752164-34.96457 58.582584-116.463235 79.805765-182.015611 47.388802-65.564763-32.404576 11.445653-52.781307 46.418482-111.359762 34.96457-58.590843 14.641517-133.189909 80.202151-100.781204z" fill="#E8C98B" p-id="4099"></path><path d="M319.174606 114.95833C378.426092 121.296381 425.852055 174.090074 425.11296 232.87911 424.361478 291.655759 375.742227 334.176442 316.494869 327.838391c-59.243228-6.338051-13.419326-46.790094-12.676102-105.570871 0.730837-58.784907-43.883261-113.647241 15.355839-107.30919z" fill="#FFE69C" p-id="4100"></path><path d="M366.105086 146.37194c21.81776 2.626059 38.738498 38.238886 37.784693 79.537379-0.953804 41.286105-19.410539 72.63778-41.236557 70.007592-21.81776-2.638446-4.418055-32.445866-3.46425-73.74023 0.949675-41.290234-14.914033-78.439058 6.916114-75.804741z" fill="#E8C98B" opacity=".78" p-id="4101"></path><path d="M210.895095 130.367845c41.327396-39.622109 109.493443-41.806362 152.241223-4.868118 42.739522 36.925857 43.88739 98.985079 2.564124 138.603058-41.331525 39.622109-42.689973-19.096733-85.45014-56.02259-42.743651-36.929986-110.682602-38.09437-69.355207-77.71235z" fill="#FFE69C" p-id="4102"></path><path d="M249.955657 120.008125c26.219299-25.129237 72.381781-23.97311 103.134747 2.584769 30.724063 26.557879 34.394765 68.459209 8.179596 93.588445-26.211041 25.137495-29.869356-14.517646-60.618193-41.079654-30.73645-26.55375-76.915449-29.960194-50.69615-55.09356z" fill="#FFFFFF" opacity=".36" p-id="4103"></path><path d="M267.933425 118.885031c18.39067-17.837381 53.545176-15.046161 78.51338 6.234825 24.968205 21.280987 30.307032 53.000145 11.912233 70.845785-18.407186 17.84151-23.589111-12.184748-48.561445-33.469864-24.968205-21.285116-60.263097-25.765106-41.864168-43.610746z" fill="#FFFFFF" fill-opacity=".36" p-id="4104"></path><path d="M326.536654 345.498224c-37.553468 46.261579-107.651899 57.335619-156.572568 24.732851-48.916541-32.606898-58.13665-96.532439-20.583182-142.794018 37.549339-46.261579 46.554739 14.195583 95.479538 46.794223 48.916541 32.606898 119.225552 25.005366 81.676212 71.266944z" fill="#E8C98B" p-id="4105"></path><path d="M329.47239 328.061358c-37.553468 46.261579-107.651899 57.327361-156.572569 24.724593-48.912412-32.602769-58.128392-96.532439-20.579052-142.794018 37.54521-46.25745 46.55061 14.195583 95.475409 46.798352 48.912412 32.602769 119.225552 25.009495 81.676212 71.271073z" fill="#FFE69C" p-id="4106"></path><path d="M297.488975 327.726907c-27.020329 33.296445-81.292213 38.721982-121.223999 12.118684-39.902882-26.607427-50.353441-75.164743-23.328983-108.461187 27.020329-33.300574 37.136437 12.630683 77.059965 39.23398 39.911141 26.607427 94.525733 23.807949 67.493017 57.108523z" fill="#E8C98B" p-id="4107"></path><path d="M264.861431 330.732836c-14.397905 17.750672-48.615122 17.118931-76.415836-1.407997-27.784199-18.522799-38.647659-47.925575-24.241497-65.672117 14.406163-17.750672 24.81956 10.078946 52.616146 28.610003 27.788328 18.522799 62.443221 20.71944 48.041187 38.470111z" fill="#A13A3A" fill-opacity=".8" p-id="4108"></path><path d="M226.969383 344.028292c-5.153021 6.34218-20.413892 4.10012-34.097475-5.025022-13.679455-9.116884-20.599698-21.660857-15.454935-27.994779 5.148892-6.346309 11.767717 5.524633 25.447172 14.641518 13.679455 9.125142 29.262389 12.036103 24.105238 18.378283z" fill="#FFFFFF" fill-opacity=".8" p-id="4109"></path><path d="M363.136318 125.503856a104.195906 104.195906 0 0 0-13.592745-9.917915c36.694631 42.941844 42.652812 75.660225 5.466827 106.429708-18.332864 15.17829-22.635306-3.063735-59.36297-46.026224-19.720216-23.064725-64.800894-28.894906-93.543026-35.521988-20.137247 30.046904 39.374367 34.113992 78.145898 67.616887 42.756038 36.929986 44.118615 95.644699 85.45014 56.02259 41.323267-39.61798 40.171269-101.677202-2.564124-138.603058z" fill="#E8C98B" fill-opacity=".34" p-id="4110"></path><path d="M406.813128 254.052742c20.389118 62.699221-17.911704 128.297016-85.561624 146.518397-67.641662 18.217251-139.011832-17.833252-159.405078-80.532473-20.389118-62.695092 47.302092-28.845358 114.943754-47.066738 67.645791-18.225509 109.629701-81.618406 130.022948-18.919186z" fill="#FFE69C" p-id="4111"></path><path d="M408.91893 261.402404c9.121013 51.612793-21.124084 101.293203-72.691458 115.075883-56.418976 15.070936-116.962847-6.177019-135.225517-75.069775-2.613672-9.868366-4.042314-16.8299-3.096768-22.020082-30.146 0.412902-47.867769 4.351991-36.058761 40.650236 20.389118 62.699221 91.763417 98.749724 159.405078 80.532473 65.011474-17.515317 102.907651-78.773509 87.667426-139.168735z" fill="#E8C98B" p-id="4112"></path><path d="M398.608758 238.647356c17.614414 37.536952-5.677407 83.261758-52.00505 102.131394-46.323514 18.853121-98.159274 3.699605-115.773688-33.841476-17.614414-37.553468 31.54161-23.403305 77.869253-42.260554 46.327643-18.861379 72.295071-63.586961 89.909485-26.029364z" fill="#FFFFFF" fill-opacity=".25" p-id="4113"></path><path d="M158.563852 306.507856s54.346206 24.113497 70.870558 0c0 0-77.266416-32.664704-77.266415-16.334417 0 16.334417 6.395857 16.334417 6.395857 16.334417z" fill="#E8C98B" p-id="4114"></path><path d="M204.961688 317.053382c-57.211749-12.444877-92.093739-66.258439-77.918801-120.191743C141.213696 142.911818 199.081959 109.272665 256.289579 121.717541c57.20762 12.440748 2.593027 44.494357-11.58604 98.440048-14.174937 53.933304 17.46164 109.34067-39.741851 96.895793z" fill="#FFE69C" p-id="4115"></path><path d="M278.173403 131.317521c3.447735 17.738285-33.110639 39.688173-50.109828 77.022803-23.118402 50.753956-1.341933 110.723892-55.605559 88.757488a109.225057 109.225057 0 0 1-26.190396-15.079194c14.195583 17.019835 34.419539 29.762001 58.694068 35.038893 57.203491 12.444877 25.566913-42.962489 39.741851-96.899922C256.095515 176.786327 293.615951 147.573486 278.173403 131.317521z" fill="#E8C98B" fill-opacity=".34" p-id="4116"></path><path d="M173.205369 285.908158c-40.897977-21.074536-53.929175-73.422295-29.105486-116.917428 24.836076-43.478617 78.116994-61.650449 119.010842-40.567655 40.910364 21.078665-9.463722 38.482498-34.291539 81.977631-24.823689 43.482746-14.703452 96.598503-55.613817 75.507452z" fill="#FFFFFF" fill-opacity=".36" p-id="4117"></path><path d="M156.821404 252.937906c-23.064725-11.941136-27.003813-47.335125-8.807207-79.046025 18.196606-31.702642 51.645825-47.73564 74.698163-35.786246 23.060596 11.949394-8.563595 27.259813-26.76433 58.966584-18.196606 31.715029-16.06603 67.810952-39.126626 55.865687z" fill="#FFFFFF" fill-opacity=".36" p-id="4118"></path><path d="M298.901101 119.582836c6.829405-6.305019 23.836852-1.230449 37.995273 11.334169 14.158421 12.560489 20.100086 27.86265 13.274811 34.159411-6.829405 6.305019-12.523328-8.187853-26.677621-20.752472-14.158421-12.564618-31.421868-18.43609-24.592463-24.741108z" fill="#FFFFFF" fill-opacity=".23" p-id="4119"></path><path d="M355.852721 273.6367c5.8756 12.213651-7.139082 29.559679-29.076583 38.73024-21.941631 9.166432-44.498486 6.697276-50.374086-5.520504-5.883858-12.221909 15.51687-9.955075 37.450242-19.121508 21.941631-9.182948 36.112439-26.318395 42.000427-14.088228z" fill="#FFFFFF" fill-opacity=".36" p-id="4120"></path><path d="M398.753274 240.864641c20.905246 44.742098-3.906056 97.907404-55.403236 118.754843-51.493051 20.822665-110.199506 1.428642-131.104752-43.313455-20.913504-44.758614 34.745732-26.632201 86.238783-47.458996 51.49718-20.839181 79.347443-72.745135 100.269205-27.982392z" fill="#FFFFFF" fill-opacity=".25" p-id="4121"></path><path d="M192.078739 316.350101a74.305906 90.892193 70.254 1 0 171.095392-61.416039 74.305906 90.892193 70.254 1 0-171.095392 61.416039Z" fill="#E8C98B" p-id="4122"></path><path d="M150.916901 219.761203c-7.944241-3.967992-5.871471-22.350404 4.616248-41.050751 10.491849-18.696218 25.434784-30.637354 33.374896-26.665234 7.940112 3.972121-6.205922 15.34758-16.69777 34.043799-10.48772 18.700347-13.353262 37.644307-21.293374 33.672186z" fill="#FFFFFF" fill-opacity=".23" p-id="4123"></path><path d="M369.073854 233.498464c11.660362 48.953702-20.983697 99.439271-72.914425 112.751242-51.926599 13.303714-103.469198-15.591192-115.133689-64.544894-11.664491-48.949573 37.24792-21.813631 89.174519-35.129731 51.930728-13.311972 87.213233-62.02619 98.873595-13.076617z" fill="#FFE69C" p-id="4124"></path><path d="M357.84291 266.794909c7.39921 31.050256-16.875319 63.983347-54.222336 73.562681-37.33463 9.558689-73.603972-7.849274-80.999052-38.903659-7.403339-31.054385 27.0162-14.71171 64.367346-24.282787 37.330501-9.575205 63.46309-41.43475 70.854042-10.376235z" fill="#FFFFFF" fill-opacity=".36" p-id="4125"></path><path d="M349.68396 280.367009c5.363601 21.879695-14.691065 46.04274-44.783388 53.958078-30.096452 7.911209-58.842713-3.418831-64.202186-25.302656s21.920985-11.268105 52.021566-19.183443c30.096452-7.90708 51.604535-31.364062 56.964008-9.471979z" fill="#FFFFFF" fill-opacity=".36" p-id="4126"></path><path d="M296.159429 346.245577a104.447777 104.447777 0 0 0 15.004871-5.103473c-53.809433 6.036632-83.682918-5.318182-90.173743-47.021318-3.199993-20.570795 13.956099-14.955323 67.794436-21.012601 28.907293-3.25367 56.472654-33.151929 76.432353-50.824149-14.50113-28.994003-47.90493 12.209522-95.017087 24.282787-51.926599 13.316101-100.83901-13.819841-89.174519 35.129731 11.664491 48.96196 63.207091 77.852737 115.133689 64.549023z" fill="#E8C98B" fill-opacity=".34" p-id="4127"></path><path d="M333.465156 302.494445c1.725932 7.969015-11.024493 17.878671-28.49852 22.127437-17.465769 4.240507-33.036316 1.230449-34.766377-6.738567-1.730061-7.973144 13.055972-5.161279 30.52587-9.414173 17.469898-4.244636 31.008966-13.943712 32.739027-5.974697z" fill="#FFFFFF" fill-opacity=".39" p-id="4128"></path><path d="M174.994364 210.847929a72.819457 72.394168 11.392 1 0 142.769648 28.766666 72.819457 72.394168 11.392 1 0-142.769648-28.766666Z" fill="#E8C98B" p-id="4129"></path><path d="M227.046546 232.198456a72.819457 72.390039 11.392 1 0 142.769648 28.766666 72.819457 72.390039 11.392 1 0-142.769648-28.766666Z" fill="#E8C98B" p-id="4130"></path><path d="M319.476024 164.217579c39.11011 13.935454 62.240899 56.307493 51.666471 94.645476-10.574429 38.333854-50.840666 58.120134-89.946647 44.184679-39.101852-13.931325-1.090062-32.821607 9.480238-71.15959 10.566171-38.337983-10.306042-81.60189 28.799938-67.670565z" fill="#FFE69C" p-id="4131"></path><path d="M321.119376 169.407762c29.188067 10.40101 45.600935 45.130226 36.65747 77.576092-8.947594 32.42935-39.861592 50.303892-69.049659 39.907012-29.196325-10.40101 0-27.449748 8.939336-59.895614 8.947594-32.437608-5.739343-67.9885 23.452853-57.58749z" fill="#FFFFFF" fill-opacity=".36" p-id="4132"></path><path d="M322.052535 182.364637c20.636859 7.217533 31.665481 34.353475 24.621367 60.601677-7.048243 26.244073-29.489485 41.678363-50.130474 34.456701-20.645117-7.225791 0.545031-21.937502 7.593274-48.185704 7.044114-26.248202-2.729284-54.098465 17.915833-46.872674z" fill="#FFFFFF" fill-opacity=".36" p-id="4133"></path><path d="M323.778467 205.631684c7.411597 2.79122 9.880753 17.267576 5.508117 32.326125-4.380894 15.058548-13.939583 25.009495-21.35118 22.214146-7.423984-2.799478 1.618577-12.267329 5.991213-27.325877 4.376765-15.062677 2.431995-30.009742 9.85185-27.214394z" fill="#FFFFFF" fill-opacity=".32" p-id="4134"></path><path d="M225.053516 288.051121c-41.211783-8.014434-67.075986-46.04274-57.765037-84.934012 9.30269-38.89953 50.258473-63.92967 91.470256-55.915235 41.207654 8.010305 2.555866 31.855416-6.755083 70.754945-9.30269 38.895401 14.253389 78.112865-26.950136 70.094302z" fill="#FFE69C" p-id="4135"></path><path d="M274.601798 153.733989c2.74993 12.663715-23.106015 28.977486-34.708571 56.010203-15.77287 36.752438 0.784514 79.396992-38.461854 64.507733a77.935317 77.935317 0 0 1-19.014153-10.40101c10.4423 11.982426 25.149882 20.793762 42.636296 24.191948 41.203525 8.018564 17.647446-31.198901 26.950136-70.094302 7.490049-31.264965 33.928186-52.801952 22.598146-64.214572z" fill="#E8C98B" fill-opacity=".34" p-id="4136"></path><path d="M196.332029 263.487561c-26.021106-12.630683-33.985992-47.178222-17.80022-77.167319 16.185772-29.972581 50.407118-44.044293 76.424095-31.409481 26.025235 12.638941-6.325664 26.08717-22.511436 56.072138-16.185772 29.980839-10.087204 65.147732-36.112439 52.504662z" fill="#FFFFFF" fill-opacity=".36" p-id="4137"></path><path d="M192.31449 241.42206c-15.851321-7.762564-18.923314-32.016448-6.866566-54.16453 12.060877-22.143953 34.683797-33.804315 50.526859-26.041751 15.859579 7.770822-5.545278 18.902669-17.602026 41.046622-12.056748 22.152211-10.198688 46.926351-26.058267 39.159659z" fill="#FFFFFF" fill-opacity=".36" p-id="4138"></path><path d="M190.419268 220.013073c-6.887211-3.286703-6.226567-17.643317 1.47819-32.061867 7.708887-14.414421 19.546797-23.436337 26.434008-20.141376 6.887211 3.290832-4.314829 11.883329-12.015458 26.301879-7.708887 14.41855-9.001271 29.196325-15.89674 25.901364z" fill="#FFFFFF" fill-opacity=".33" p-id="4139"></path><path d="M235.912848 247.793143c-24.592464-20.438666-27.941102-55.300011-7.490048-77.869253 20.455182-22.569242 56.968136-24.303432 81.552341-3.864766 24.592464 20.430408-9.950946 22.210017-30.401999 44.779259-20.451053 22.5775-19.071959 57.389297-43.660294 36.95476z" fill="#E8C98B" p-id="4140"></path><path d="M227.051964 233.25898c-18.572347-26.033493-12.923843-60.597548 12.59765-77.208609 25.533881-16.61519 61.282966-8.988884 79.847055 17.04048 18.572347 26.025235-15.281516 18.94396-40.811267 35.55915-25.521494 16.61519-33.061091 50.634214-51.633438 24.608979z" fill="#FFE69C" p-id="4141"></path><path d="M324.827239 185.007212c-5.11586 8.439724-27.957618 3.901927-48.532542 12.762812-27.974134 12.040232-41.178751 44.287905-55.056398 15.487967a59.36297 59.36297 0 0 1-5.058054-15.710934c-0.50787 12.09391 2.997671 24.670915 10.875848 35.711923 18.572347 26.025235 26.111944-7.993789 51.633438-24.60485 20.525375-13.36152 46.414352-11.404363 46.137708-23.646918z" fill="#E8C98B" fill-opacity=".34" p-id="4142"></path><path d="M224.058422 204.632461c-7.754306-20.616214 5.949923-43.879132 30.604322-51.967889 24.658528-8.080499 50.931504 2.081028 58.694068 22.697242 7.758435 20.620343-17.168479 11.098815-41.827008 19.183442-24.65027 8.080499-39.712947 30.711676-47.471382 10.087205z" fill="#FFFFFF" fill-opacity=".36" p-id="4143"></path><path d="M233.406531 190.333653c-4.690571-12.59765 6.321535-27.61078 24.588334-33.527671 18.270929-5.912762 36.884566-0.499612 41.575137 12.09391 4.686442 12.60178-12.977521 7.539597-31.240191 13.456487-18.270929 5.916891-30.23271 20.574924-34.92328 7.977274z" fill="#FFFFFF" fill-opacity=".36" p-id="4144"></path><path d="M243.576316 177.513035c-2.081028-5.429666 5.809536-13.014682 17.622672-16.941383 11.813136-3.926701 23.081241-2.70451 25.166397 2.721026 2.076899 5.429666-8.613143 4.306571-20.426278 8.233273-11.821394 3.93083-20.277634 11.41675-22.362791 5.987084z" fill="#FFFFFF" fill-opacity=".81" p-id="4145"></path><path d="M293.289758 912.330561a231.340925 107.957447 0 1 0 462.68185 0 231.340925 107.957447 0 1 0-462.68185 0Z" fill="#C9C3AD" p-id="4146"></path><path d="M878.277411 692.530257c0 195.315195-158.335662 283.692813-353.646728 283.692813s-379.205383-99.501207-349.24106-292.508278c0-0.016516 19.336217-103.894488 105.628677-243.121029 40.501591-71.299977 6.532115-172.766599 6.532115-172.766599l110.162345-2.279221c39.399142-24.200206 82.179953-38.437079 126.922052-38.437079 41.537976 0 81.387181 12.250813 118.412134 33.36251l121.744256-2.518705c-32.099028 103.555908 3.319735 182.411997 3.455992 182.626707 0 0.012387 110.030216 159.173853 110.030217 251.948881z" fill="#EBE5D6" p-id="4147"></path><path d="M386.799751 272.554896c79.595185 0 332.324451-88.612972 297.78517 72.902038-29.84871 139.598153 133.487199 330.251681 28.940326 442.325764-104.555131 112.074083-284.29565 136.274289-407.559387 54.057175-123.267866-82.217115-125.968247-233.409566-33.882767-351.813442 136.464224-175.450464-31.116321-217.471535 114.716658-217.471535z" fill="#FAFAFA" fill-opacity=".56" p-id="4148"></path><path d="M384.115886 278.826883c-21.503954-64.445798 149.867035-20.826794 166.494612 39.006884 32.185738 115.872785 158.149856 310.981529 92.362125 395.366381-65.762956 84.409626-229.79667 109.476927-315.321132 53.669047-85.528591-55.816139-82.807565-135.184227-34.477346-228.933705 25.447171-49.34183 127.215212-150.370775 90.941741-259.108607z" fill="#FFFFFF" fill-opacity=".67" p-id="4149"></path><path d="M497.92003 447.336458c42.1532 28.114521 68.488112 171.114989 32.734898 209.428198-35.753214 38.329725-120.051356 46.604287-162.200428 18.493896-42.149071-28.122779-38.684821-65.436763-11.586039-108.531381 35.749085-56.856653 98.902498-147.509362 141.051569-119.390713z" fill="#FFFFFF" fill-opacity=".57" p-id="4150"></path><path d="M260.46815 533.005436c76.808094 23.717111 168.777962 37.541081 267.659816 37.541081 99.212175 0 191.479333-13.91068 268.436071-37.772306-14.719969-24.105239-25.418268-39.584948-25.418268-39.584948-0.136258-0.218838-35.550892-79.074928-3.455993-182.626706l-121.740127 2.518704c-37.029082-21.111697-76.878287-33.362509-118.412134-33.362509-44.742098 0-87.518781 14.232744-126.922051 38.437079l-110.162345 2.28335s33.969476 101.462493-6.532115 172.766599a1028.634705 1028.634705 0 0 0-23.452854 39.799656z" fill="#B8C8D1" fill-opacity=".5" p-id="4151"></path><path d="M768.243065 440.585505c-0.136258-0.214709-35.555021-79.070799-3.455992-182.626707l-27.65207 0.573935c-15.467322 79.054283 2.469156 136.48487 2.564123 136.683062 0.004129 0.008258 93.031027 179.600132 84.017369 278.510889-18.976992 208.251426-183.679607 288.259513-376.25726 270.711163-84.847303-7.733661-165.619259-35.872956-225.320809-82.299695 63.92967 75.573516 180.991613 114.089047 302.496386 114.089047 195.315195 0 353.646728-88.377618 353.646728-283.692813-0.004129-92.779157-110.034345-251.940623-110.038475-251.948881z" fill="#D4CAAE" fill-opacity=".5" p-id="4152"></path><path d="M764.787073 310.558428c0 34.068572-107.523899 61.691739-240.15639 61.691739S284.284358 344.627 284.284358 310.558428c0-34.068572 107.709705-61.691739 240.342196-61.691739s240.160519 27.619038 240.160519 61.691739z" fill="#D5E2E8" p-id="4153"></path><path d="M734.306622 340.634235c-0.322064-33.990121-92.291932-61.514191-205.703819-61.514192-113.614209 0-205.724464 27.619038-205.724463 61.69174 0 1.114836 0.107355 2.217286 0.301418 3.315605 42.822102 16.920738 117.024782 28.122779 201.450925 28.122779 90.115936 0 168.596285-12.758682 209.675939-31.615932z" fill="#AFC1CC" p-id="4154"></path><path d="M524.630683 354.623366c-120.980387 0-221.179398-22.982144-237.860653-52.880403-1.60619 2.877929-2.485672 5.821923-2.485672 8.811336 0 34.068572 107.709705 61.691739 240.342196 61.691739s240.15639-27.619038 240.15639-61.691739c0-2.993542-0.875353-5.933407-2.481543-8.811336-16.648222 29.898259-116.69446 52.880403-237.670718 52.880403z" fill="#D5E2E8" p-id="4155"></path><path d="M542.088194 353.661304c-29.683549 81.143569 71.745911 157.377728 162.117847 194.328358 112.495243 45.993192 284.175909-11.870942 284.175909-11.870942s-42.211007-227.09216-176.65201-282.065978c-134.436874-54.957302-239.937552 18.431961-269.641746 99.608562z" fill="#85CC85" p-id="4156"></path><path d="M567.143108 374.471582c-24.485109 66.935599 68.343596 133.540876 150.242776 167.035514 101.949718 41.678363 254.23636-1.668125 254.23636-1.668126s-43.697455-190.917786-165.549066-240.742711c-121.843353-49.816668-214.436703 8.435595-238.93007 75.375323z" fill="#79BA79" fill-opacity=".5" p-id="4157"></path><path d="M797.373326 377.324737c86.284203 35.278376 153.929994 92.34148 189.84011 153.033995 0.792772 3.732637 1.168514 5.759988 1.168514 5.759988s-171.680665 57.864134-284.175909 11.870942c-87.052201-35.588053-184.331993-107.643641-164.809971-185.438571 66.886051-27.346522 162.489459-24.2704 257.977256 14.773646z" fill="#69A169" p-id="4158"></path><path d="M816.395737 408.771379c74.239841 30.35658 134.131326 74.859195 167.654867 119.882067 0.88774 2.66322 1.313029 4.112507 1.31303 4.112507s-140.390926 29.733098-237.183494-9.839463c-74.900485-30.629096-160.441464-87.5642-148.562263-141.068085 54.412271-14.971839 134.618551-6.684889 216.77786 26.912974z" fill="#87CF87" fill-opacity=".48" p-id="4159"></path><path d="M673.481977 375.082677s53.437821 36.690502 71.741783 95.058378c0 0 7.960757-27.148329-25.182914-89.707164 0.004129 0-63.63238-30.624967-46.558869-5.351214zM807.67111 393.493993s36.459277-13.113778 84.269239-0.668902c0 0-32.408705-22.95737-113.502725-16.454159l29.233486 17.123061z" fill="#69A169" p-id="4160"></path><path d="M622.455506 148.353871c83.748982 41.397589 115.418592 135.621904 70.763203 210.452196-44.667776 74.830292-148.764585 101.937331-232.509438 60.531483-83.748982-41.389331 14.62913-67.426953 59.301034-142.248986 44.659517-74.83855 18.704476-170.132282 102.445201-128.734693z" fill="#DE7AB6" p-id="4161"></path><path d="M565.049693 119.950319c75.685 8.097015 136.266031 75.532226 135.320485 150.622646-0.953804 75.086291-63.066704 129.395336-138.747574 121.294192-75.676741-8.092886-17.143705-59.763485-16.198159-134.849776 0.945546-75.086291-56.047364-145.164077 19.625248-137.067062z" fill="#FF9CD7" p-id="4162"></path><path d="M624.990726 160.076169c27.870908 3.356896 49.478088 48.846347 48.264155 101.594621-1.222191 52.740016-24.794786 92.791544-52.669823 89.42639-27.870908-3.365154-5.648504-41.438879-4.422184-94.191283 1.205675-52.748274-19.047185-100.194883 8.827852-96.829728z" fill="#DE7AB6" opacity=".78" p-id="4163"></path><path d="M426.727408 139.633374c52.797823-50.60944 139.862411-53.396531 194.468746-6.218309 54.602206 47.174093 56.06388 126.443085 3.270186 177.052524-52.789565 50.60944-54.527883-24.390141-109.146605-71.564234-54.598077-47.174093-141.381891-48.660541-88.592327-99.269981z" fill="#FF9CD7" p-id="4164"></path><path d="M499.592285 124.967083c23.494143-22.792209 68.401402-19.224733 100.28985 7.956628 31.896706 27.18549 38.713724 67.703597 15.21958 90.495806-23.502401 22.792209-30.133613-15.566418-62.02619-42.751908-31.900835-27.18549-76.989771-32.904188-53.48324-55.700526z" fill="#FFC7E9" fill-opacity=".36" p-id="4165"></path><path d="M574.44735 414.440528c-47.962736 59.090454-137.508867 73.23236-200.001637 31.58703-62.480383-41.649459-74.260486-123.309156-26.293621-182.403739 47.966865-59.094583 59.470325 18.130542 121.963094 59.775872 62.488641 41.64533 152.2949 31.942125 104.332164 91.040837z" fill="#DE7AB6" p-id="4166"></path><path d="M578.200633 392.160318c-47.966865 59.094583-137.508867 73.236489-200.001637 31.587029C315.714484 382.097888 303.938509 300.438191 351.905374 241.343608c47.966865-59.090454 59.470325 18.134671 121.958966 59.775872 62.488641 41.649459 152.299029 31.946254 104.336293 91.040838z" fill="#FF9CD7" p-id="4167"></path><path d="M537.348075 391.735029c-34.518636 42.524812-103.84081 49.461572-154.846637 15.479708-50.972794-33.985992-64.321927-96.012182-29.80742-138.545252 34.518636-42.537199 47.43835 16.132095 98.43179 50.118087 50.98931 33.981863 120.749161 30.406129 86.222267 72.947457z" fill="#DE7AB6" p-id="4168"></path><path d="M495.665583 395.579149c-18.398928 22.668339-62.100512 21.863179-97.610114-1.800254-35.497214-23.663433-49.374862-61.22103-30.967675-83.889369 18.398928-22.676597 31.706771 12.874295 67.208114 36.541858 35.505473 23.659304 79.768604 26.475298 61.369675 49.147765z" fill="#A13A3A" fill-opacity=".8" p-id="4169"></path><path d="M447.265171 412.553565c-6.573405 8.105273-26.078912 5.239731-43.557069-6.416503-17.469898-11.643846-26.314266-27.664457-19.736732-35.757343 6.569276-8.105273 15.021387 7.052372 32.495415 18.704477 17.482285 11.647975 37.384178 15.368225 30.798386 23.469369z" fill="#FFC7E9" fill-opacity=".8" p-id="4170"></path><path d="M621.196154 133.415065a133.078425 133.078425 0 0 0-17.358415-12.667844c46.872674 54.858205 54.478335 96.648052 6.986308 135.956354-23.428079 19.385765-28.927938-3.914314-75.841903-58.793164-25.182914-29.460582-82.766275-36.90934-119.48568-45.373839-25.719687 38.379273 50.295634 43.573584 99.823271 86.370912 54.618722 47.169964 56.352912 122.169545 109.146605 71.564234 52.793694-50.617698 51.332019-129.88669-3.270186-177.056653z" fill="#DE7AB6" fill-opacity=".34" p-id="4171"></path><path d="M676.995776 297.622198c26.041751 80.090668-22.887177 163.876811-109.29525 187.156245-86.403944 23.267047-177.572782-22.779822-203.622791-102.866361-26.050009-80.086539 60.424129-36.847405 146.828074-60.130968 86.408073-23.271176 140.03583-104.249584 166.089967-24.158916z" fill="#FF9CD7" p-id="4172"></path><path d="M679.6879 307.011597c11.652104 65.928117-26.991426 129.391207-92.857608 146.997363-72.067975 19.257765-149.404584-7.886435-172.729438-95.888311-3.344509-12.605909-5.161279-21.499825-3.959733-28.135166-38.507273 0.532644-61.142579 5.561795-46.063386 51.930728 26.050009 80.086539 117.218846 126.133408 203.622791 102.866361 83.034661-22.371049 131.455719-100.624301 111.987374-177.770975z" fill="#DE7AB6" p-id="4173"></path><path d="M666.512186 277.947401c22.49492 47.94622-7.254694 106.355386-66.427729 130.460624-59.177164 24.084594-125.394313 4.723603-147.889232-43.226746-22.499049-47.970994 40.291011-29.898259 99.468174-53.982852 59.177164-24.096981 92.353867-81.230278 114.848787-33.251026z" fill="#FFC7E9" fill-opacity=".25" p-id="4174"></path><path d="M359.886777 364.632119s69.421271 30.798386 90.524709 0c0 0-98.691918-41.723782-98.691918-20.859827 0 20.859826 8.167208 20.859826 8.167209 20.859827z" fill="#DE7AB6" p-id="4175"></path><path d="M419.15065 378.100993c-73.079586-15.892611-117.640007-84.636722-99.53011-153.533607 18.105768-68.905143 92.023545-111.880019 165.094873-95.987408 73.079586 15.892611 3.307348 56.836008-14.794291 125.74528-18.109897 68.901014 22.300856 139.672476-50.770472 123.775735z" fill="#FF9CD7" p-id="4176"></path><path d="M512.67716 140.847307c4.39741 22.660081-42.297716 50.69615-64.016379 98.38637-29.530776 64.833926-1.713545 141.435569-71.027462 113.374726a139.395831 139.395831 0 0 1-33.453347-19.266024c18.130542 21.743437 43.965842 38.020048 74.970678 44.758614 73.075457 15.900869 32.664704-54.874721 50.766343-123.775735 14.554808-55.399107 62.476254-92.717221 42.760167-113.477951z" fill="#DE7AB6" fill-opacity=".34" p-id="4177"></path><path d="M378.587124 338.317852c-52.244534-26.925362-68.892756-93.786638-37.177727-149.346777 31.715029-55.543623 99.78198-78.748735 152.022385-51.823373 52.26105 26.925362-12.089781 49.164282-43.80481 104.716163-31.706771 55.547752-18.778799 123.387607-71.039848 96.453987z" fill="#FFC7E9" fill-opacity=".36" p-id="4178"></path><path d="M357.657104 296.201813c-29.456453-15.252613-34.489733-60.465419-11.24746-100.971139 23.246402-40.493333 65.977665-60.973289 95.421732-45.712418 29.460582 15.260871-10.95017 34.815926-34.196572 75.321645-23.238144 40.509849-20.517117 86.622783-49.9777 71.361912z" fill="#FFC7E9" fill-opacity=".36" p-id="4179"></path><path d="M539.152458 125.854823c8.716368-8.055725 30.439161-1.569029 48.532542 14.476356 18.080994 16.045385 25.674268 35.588053 16.95377 43.639648-8.720497 8.055725-15.999966-10.462945-34.085089-26.512459-18.076865-16.045385-40.129979-23.547821-31.401223-31.603545z" fill="#FFFFFF" fill-opacity=".23" p-id="4180"></path><path d="M611.893464 322.63995c7.510694 15.60358-9.125142 37.75579-37.136437 49.473959-28.03194 11.714039-56.840137 8.555337-64.342572-7.052372-7.518952-15.611838 19.823442-12.717392 47.834736-24.427302 28.023682-11.722298 46.12945-33.61438 53.644273-17.994285z" fill="#FFC7E9" fill-opacity=".36" p-id="4181"></path><path d="M666.693863 280.779911c26.706524 57.149813-4.983731 125.063991-70.767333 151.696192-65.78773 26.603298-140.770796 1.829157-167.481448-55.328914-26.710653-57.174587 44.387002-34.014895 110." fill="#FFC7E9" fill-opacity=".25" p-id="4182"></path></svg>