<?xml version="1.0" standalone="no"?><!DOCTYPE svg PUBLIC "-//W3C//DTD SVG 1.1//EN" "http://www.w3.org/Graphics/SVG/1.1/DTD/svg11.dtd"><svg t="1721421789381" class="icon" viewBox="0 0 1024 1024" version="1.1" xmlns="http://www.w3.org/2000/svg" p-id="2684" xmlns:xlink="http://www.w3.org/1999/xlink" width="200" height="200"><path d="M448.713593 566.752754c-77.858334 86.639006 10.803471 232.900736 105.335957 324.459015 117.673849 113.978058 361.498039 127.718559 361.498039 127.718559s61.111517-305.292274-79.509358-441.516053c-140.622565-136.20519-309.440956-97.324185-387.324638-10.661521z" fill="#85CC85" p-id="2685"></path><path d="M469.620921 605.365067c-64.214157 71.460408 18.516132 201.374135 104.178382 284.346079 106.635483 103.308088 318.921242 125.462555 318.921242 125.462555s41.096452-260.785623-86.353414-384.247347c-127.460006-123.460035-272.518534-97.023385-336.74621-25.561287z" fill="#79BA79" opacity=".5" p-id="2686"></path><path d="M756.238213 724.431386c90.253682 87.428185 146.26173 192.754003 160.720435 286.708546-0.877053 5.059533-1.417818 7.788706-1.417819 7.788706s-243.8225-13.740501-361.498038-127.718559c-91.051311-88.198775-176.615547-227.138209-113.163531-314.674547 97.40699-0.662437 215.477963 51.137782 315.358953 147.895854z" fill="#69A169" p-id="2687"></path><path d="M764.251675 773.311474c77.653857 75.237314 130.266914 160.95364 149.616163 234.097179-0.224755 3.775216-0.420783 5.809844-0.420783 5.809844s-190.557145-33.223251-291.806946-131.297747c-78.338263-75.896371-156.815097-190.046798-115.110285-251.023124 75.60064 8.569436 171.790909 59.171523 257.721851 142.413848z" fill="#87CF87" opacity=".48" p-id="2688"></path><path d="M602.356766 659.483817s48.450856 72.709237 42.063069 154.91397c0 0 23.575665-29.976971 13.498847-124.866024 0.00507 0-64.251334-70.250446-55.561916-30.047946zM760.998635 749.825373s52.204103 1.882538 105.760119 41.43781c0 0-29.013733-44.976441-133.739639-77.516976l27.97952 36.079166z" fill="#69A169" p-id="2689"></path><path d="M496.576368 621.797564c-10.600684 84.692252-133.746399 101.337676-229.488847 89.339452-119.19982-14.920045-243.378059-148.544772-243.378059-148.544773S163.037571 386.537741 305.491977 404.362708c142.435817 17.830037 201.681695 132.700357 191.084391 217.434856z" fill="#85CC85" p-id="2690"></path><path d="M465.271142 627.615858c-8.757014 69.848252-120.032936 82.351754-206.812203 71.497585C150.434366 685.590938 36.701342 573.966898 36.701342 573.966898s124.326949-144.026005 253.431218-127.87065c129.10258 16.160425 183.871937 111.647699 175.138582 181.51961z" fill="#79BA79" opacity=".5" p-id="2691"></path><path d="M262.479189 518.063624c-91.426467-11.452389-176.350234 5.032495-235.143221 40.121385-2.375986 2.837326-3.623126 4.405545-3.623126 4.405545s124.178238 133.628107 243.378059 148.544772c92.229165 11.552093 209.850627-3.499764 227.841203-80.339094-46.218511-56.217594-131.279159-100.073637-232.452915-112.732608z" fill="#69A169" p-id="2692"></path><path d="M231.652203 536.022092c-78.661032-9.840234-151.140444-0.454581-200.777604 22.200094-1.973792 1.880848-3.013075 2.928581-3.013075 2.928581s109.46267 94.057626 212.028896 106.899106c79.358957 9.919658 179.899004 2.264454 193.634436-49.839947-40.886905-39.435289-114.821313-71.289729-201.872653-82.187834z" fill="#87CF87" opacity=".48" p-id="2693"></path><path d="M374.24687 573.571463s-86.055994-15.15325-158.758472 23.759864c0 0 17.970298-33.647414 108.906696-62.563134 0 0.00169 90.145529 30.61237 49.851776 38.80327zM287.825859 522.349186s-46.625774-19.927191-69.631946-61.875348c0 0-1.929855 22.042934 33.098199 64.923911 0 0.00169 53.520528 13.703324 36.533747-3.048563z" fill="#69A169" p-id="2694"></path><path d="M897.256212 616.704234c-30.664757 189.365772-137.185327 61.912526-329.145081 102.899134-158.540476 33.86203-231.587691-115.441503-214.195336-222.830677 17.383906-107.389174 161.210503-173.441932 321.239772-147.522389 160.032649 25.914474 239.48455 160.066447 222.100645 267.453932z" fill="#E08600" p-id="2695"></path><path d="M399.416102 500.547906s-43.528205-94.199577-50.438168-160.346968c-6.918413-66.149082-132.149453 10.015982-92.127771 90.177637 40.016612 80.153206-67.355663-4.285563-68.388187 91.494062-1.027454 95.767796 261.392293 139.015479 210.954126-21.324731z" fill="#E08600" p-id="2696"></path><path d="M556.671974 284.646011a156.946909 142.320905 0.613 1 0 3.045287-284.625519 156.946909 142.320905 0.613 1 0-3.045287 284.625519Z" fill="#FFBF00" p-id="2697"></path><path d="M373.508388 480.495663s-40.089277-86.758988-46.461855-147.689687c-6.364128-60.932389-121.722827 9.225113-84.856172 83.063197 36.859896 73.833015-62.042647-3.947585-62.994056 84.27485-0.942959 88.213984 240.777317 128.049778 194.312083-19.64836z" fill="#FFD040" p-id="2698"></path><path d="M908.72043 636.151496c-56.42883 183.344691-144.39947 42.456814-340.173307 56.646826-161.692122 11.729531-213.505861-146.202584-181.507781-250.174799 31.994701-103.973905 183.539029-149.617853 338.483418-101.932517 154.942698 47.680266 215.182232 191.486585 183.19767 295.46049z" fill="#FFBF00" p-id="2699"></path><path d="M894.486481 606.608827c-43.278101 140.644533-111.213397 74.853709-261.400743 85.739984-124.034598 9.000358-163.324556-154.440801-138.773824-234.200262 24.538903-79.764531 140.791554-114.772307 259.650016-78.194623 118.863532 36.579374 165.063454 146.886989 140.524551 226.654901z" fill="#E37900" opacity=".44" p-id="2700"></path><path d="M875.312981 578.009116c-34.575164 112.360833-63.495953 49.667578-209.255785 106.963322-92.474199 36.354619-130.070887-161.854351-110.463086-225.57675 19.602732-63.720709 112.484195-91.69009 207.439153-62.468499 94.963408 29.22159 131.88245 117.361219 112.279718 181.081927z" fill="#E37900" opacity=".44" p-id="2701"></path><path d="M566.273951 314.274847a156.946909 142.319215 0.613 1 0 3.045251-284.622139 156.946909 142.319215 0.613 1 0-3.045251 284.622139Z" fill="#E37900" opacity=".44" p-id="2702"></path><path d="M866.265306 296.821443s294.975491 151.939763 58.799747 184.564793c-236.179124 32.62165-11.151589-1.328254-11.151588-1.328254s-300.530162 46.669711-47.648159-183.236539z" fill="#FFBF00" p-id="2703"></path><path d="M831.553262 271.246637s288.619812 169.76304 57.295744 206.668563-10.911624-1.465135-10.911625-1.465135-294.365441 52.729659-46.384119-205.203428z" fill="#E37900" opacity=".44" p-id="2704"></path><path d="M798.911333 262.310495s293.354886 169.813737 58.265741 206.683772c-235.085765 36.858206-11.087373-1.476964-11.087373-1.476964S546.930041 520.194576 798.911333 262.310495z" fill="#E37900" opacity=".44" p-id="2705"></path><path d="M430.407007 169.640269s129.540261-211.150153 349.371383-105.58775c247.018083 118.630327 101.474557 404.14243-13.723602 431.687648-115.194779 27.536769-435.560878-151.595025-335.647781-326.099898z" fill="#FFBF00" p-id="2706"></path><path d="M393.913818 203.581724S529.870594-12.151413 757.97711 94.108915c256.327691 119.404297 103.311468 410.932411-16.69781 439.633514-119.999139 28.692654-452.285727-151.907655-347.365482-330.160705z" fill="#E37900" opacity=".29" p-id="2707"></path><path d="M810.003775 229.220746s54.150858 123.83857-68.623081 244.005008c0 0-36.0234 1.152505-22.921678-104.04995 13.108482-105.195696 91.544759-139.955058 91.544759-139.955058z" fill="#E37900" p-id="2708"></path><path d="M438.25655 554.004219s-174.86989-140.061521-113.841177-418.241189c41.517235-189.2441 455.363017-71.713892 306.448159 237.623981-121.775214 252.961429-192.606982 180.617208-192.606982 180.617208z" fill="#FFBF00" p-id="2709"></path><path d="M377.548916 226.038681S509.488822 24.91634 727.207581 121.682861c244.658996 108.729257 95.776245 380.277794-19.430364 407.831462-115.18971 27.536769-432.150679-137.359386-330.228301-303.475642z" fill="#E37900" opacity=".44" p-id="2710"></path><path d="M458.525099 585.115107s-174.873269-140.061521-113.846247-418.22767c41.512165-189.252549 455.354568-71.715581 306.451539 237.610462-121.776904 252.969878-192.605292 180.617208-192.605292 180.617208z" fill="#E37900" opacity=".29" p-id="2711"></path><path d="M477.166283 607.627831s-174.86989-140.058141-113.846246-418.232739C404.832202 0.147612 818.676294 117.6812 669.759746 427.015692c-121.770144 252.964808-192.593463 180.612138-192.593463 180.612139z" fill="#E37900" opacity=".44" p-id="2712"></path><path d="M552.237975 478.894109a152.370685 195.780597 29.955 1 0 195.514207-339.255603 152.370685 195.780597 29.955 1 0-195.514207 339.255603Z" fill="#FFBF00" p-id="2713"></path><path d="M404.343823 487.699667s-40.089277-86.762368-46.453405-147.694757c-6.364128-60.932389-121.722827 9.225113-84.859552 83.058128 36.861586 73.841464-62.047717-3.944205-62.994055 84.279919-0.949719 88.210605 240.772247 128.054848 194.307012-19.64329z" fill="#FFBF00" p-id="2714"></path><path d="M598.768007 360.09003a130.02188 132.598964 0.613 1 0 2.837264-265.18275 130.02188 132.598964 0.613 1 0-2.837264 265.18275Z" fill="#FFBF00" p-id="2715"></path><path d="M435.238405 488.027506s-40.089277-86.762368-46.461855-147.691377c-6.364128-60.935769-121.722827 9.225113-84.852792 83.054748 36.854826 73.841464-62.051097-3.944205-62.994055 84.278229-0.949719 88.217364 240.773937 128.056537 194.308702-19.6416z" fill="#E37900" p-id="2716"></path><path d="M309.694735 310.252695s-18.467126 156.171249 108.22736 260.478062c126.692796 104.318643 58.389103-186.190467-108.22736-260.478062z" fill="#E37900" p-id="2717"></path><path d="M347.460412 83.9814c-11.59772 18.122388-15.193807 23.03828-23.046729 51.78163-75.053116 274.723841 113.841177 418.241188 113.841177 418.241189s4.270354 2.732553 11.548713 5.970384c0.557664-9.654346 0.329529-20.954645-0.831426-34.044538-16.880318-191.25507-71.450269-347.384071-101.511735-441.948665z" fill="#FFBF00" p-id="2718"></path><path d="M624.271802 382.715958a130.02357 132.602343 0.613 1 0 2.837336-265.189509 130.02357 132.602343 0.613 1 0-2.837336 265.189509Z" fill="#E37900" opacity=".44" p-id="2719"></path><path d="M325.670962 133.461399c-7.11444 16.143526-9.361994 20.537242-13.250433 45.630429-37.187735 239.770142 103.259081 353.890151 103.259081 353.890151s3.149956 2.139402 8.425795 4.557635c-0.143641-8.319332-0.942959-18.022684-2.492589-29.209761-22.553281-163.551002-69.5728-295.065055-95.941854-374.868454z" fill="#FFE599" opacity=".64" p-id="2720"></path><path d="M521.024235 507.748935a152.368995 195.785667 29.955 1 0 195.519269-339.264387 152.368995 195.785667 29.955 1 0-195.519269 339.264387Z" fill="#E37900" opacity=".44" p-id="2721"></path><path d="M698.288481 707.633872s50.581808 5.765907 113.572484-111.149181c62.988986-116.926917 101.405271-107.328338 101.405271-107.328338s-330.432778 155.547679-320.764913 206.40663c0 0.00338 68.611252-5.786186 105.787158 12.070889z" fill="#E37900" p-id="2722"></path><path d="M719.006541 242.619889c-0.581322 54.061293-44.783793 97.413749-98.745383 96.830737-53.95483-0.583012-97.207583-44.876737-96.63133-98.929581 0.574563-54.061293 44.363011-58.796367 98.319531-58.215045 53.95483 0.584702 97.640195 6.255975 97.057182 60.313889z" fill="#FFBF00" p-id="2723"></path><path d="M739.790507 225.680425c-0.586392 54.057914-44.788863 97.413749-98.742004 96.830737-53.95483-0.586392-97.212652-44.871668-96.636399-98.929582 0.583012-54.061293 44.363011-58.796367 98.32967-58.215044 53.944691 0.583012 97.630055 6.252596 97.048733 60.313889z" fill="#FFD500" p-id="2724"></path><path d="M719.660529 242.75508c-0.642158 60.126311-49.811218 108.349032-109.824307 107.701804-60.008019-0.645538-108.125966-49.912612-107.480428-110.037233 0.642158-60.129691 49.351568-65.39877 109.357897-64.751542 60.014778 0.645538 108.597446 6.9539 107.946838 67.086971z" fill="#FFBF00" p-id="2725"></path><path d="M705.431649 289.169618c-0.694545 64.876594-53.753733 116.903259-118.496826 116.208714-64.754922-0.694545-116.675124-53.856817-115.980578-118.73341 0.699615-64.881664 53.246766-70.558006 118.003377-69.860082 64.749852 0.692855 117.171951 7.503115 116.474027 72.384778z" fill="#E37900" p-id="2726"></path><path d="M438.259929 553.999149c51.060047-39.237572 141.599321-77.038737 301.692807-81.429073 47.572113-85.621692 37.938046-179.400487-156.292921-259.345836-103.292879-42.51258-204.116828-79.102094-165.942197 106.37017 38.156042 185.408048 20.55583 234.365871 20.542311 234.404739z" fill="#E37900" p-id="2727"></path><path d="M443.545908 539.798998c45.807867-37.40911 127.032464-73.476448 270.608957-77.750181 42.717057-81.594683 34.134102-170.925685-140.010824-246.974146-92.61277-40.437395-183.003333-75.230554-148.882751 101.437379 34.103684 176.600338 18.293067 223.2616 18.284618 223.286948z" fill="#FFBF00" p-id="2728"></path><path d="M801.57967 473.705683c-442.906833-47.756311-471.053653 171.981866-471.053652 171.981866a917.830335 917.830335 0 0 0 20.817763 8.474802c9.909519-35.058472 74.468413-185.752786 450.235889-180.456668z" fill="#E37900" p-id="2729"></path><path d="M398.657341 230.246509s57.525569 100.627921 55.269565 343.475355l-12.993569-14.69022c0.00338-0.00338-7.901929-198.621303-42.275996-328.785135z" fill="#E37900" p-id="2730"></path><path d="M373.00649 646.143819s30.730662-223.699281 568.261235-163.846732c0 0-35.825683-20.986753-124.61085 93.934264s-218.070255 165.026276-443.650385 69.912468z" fill="#FFBF00" p-id="2731"></path><path d="M458.139804 537.880972c-28.996835-19.48275-59.21039-35.349134-87.500851-46.754206-73.162128-29.495352-133.413491-29.121886-126.246664 15.687255 0 0 4.092915 50.583498 37.299267 105.427211 43.75803 72.276625 58.404312 125.403409 128.541536 125.143166 142.069111-0.518796 138.055621 57.596545 168.858949 42.766064 24.557492-11.822475 30.76108-41.601729 13.44308-88.016267-22.928437-61.464705-76.207311-115.145772-134.395317-154.253223z" fill="#E08600" p-id="2732"></path><path d="M441.065148 514.666943c-27.536769-17.879044-56.008047-32.140031-82.493704-42.103627-68.519998-25.755624-123.769285-22.72058-115.046069 21.018861 0 0 6.17993 49.556045 39.26123 102.000113 43.612699 69.141878 59.592306 120.732551 123.906166 117.373048 130.290573-6.80857 129.398311 50.510833 156.940149 34.583613 21.95844-12.733326 26.208515-42.291205 8.092887-87.156113-23.96603-59.419937-75.418132-109.846275-130.660659-145.715895z" fill="#FFBF00" p-id="2733"></path><path d="M457.012647 536.157283c-20.028585-14.015953-41.111661-25.774213-61.035473-34.614031-51.497729-22.816904-95.125637-25.911094-92.13622 3.041803 0 0 0.478239 32.418863 21.7979 69.197645 28.126541 48.449166 36.116344 83.091926 86.8908 86.799546 102.855197 7.511564 97.09605 44.298795 120.1225 36.574304 18.347143-6.196829 24.307388-24.804216 14.053131-55.330401-13.574892-40.406977-49.495209-77.545704-89.692638-105.668866z" fill="#FFEECC" opacity=".45" p-id="2734"></path><path d="M907.158971 320.726637s-7.540292 103.030946-59.242498 153.641483l-37.826513-0.405574s57.317713-29.034012 97.069011-153.235909z" fill="#D67200" p-id="2735"></path><path d="M682.858089 389.030329c-26.429891 40.919013-209.783031 150.912309-229.662906-5.221762-15.212396-119.50738-48.896987-141.278242-22.472166-182.197256 26.429891-40.919013 102.490181-3.900268 169.376055 34.563335 123.032492 70.762483 109.192288 111.94005 82.759017 152.855683z" fill="#FFE599" opacity=".64" p-id="2736"></path><path d="M636.707174 348.35804c-12.464634 31.786844-142.579458 84.759848-162.799-4.069257-18.350523-80.643274-48.5438-87.252437-36.072407-119.034211 12.459564-31.786844 45.534105-17.857075 91.906395 2.921821 97.785525 43.817176 119.433025 88.399872 106.965012 120.181647z" fill="#FFF5D6" opacity=".64" p-id="2737"></path><path d="M804.072259 507.381824c13.519126 43.612699-76.465864 118.637087-151.314503 141.847736-74.840189 23.217408-168.52604-23.595944-182.056995-67.215403-13.527575-43.612699 30.473799-56.665415 105.319058-79.872684 74.852019-23.210649 214.507966-38.372348 228.05244 5.240351z" fill="#FFE599" opacity=".47" p-id="2738"></path><path d="M723.432365 505.725732c5.529322 17.865524-52.616437 55.19352-98.699756 69.478166-46.081629 14.298165-99.340225-0.263623-104.874617-18.113939-5.549601-17.868904 32.697695-19.775101 78.781014-34.056367 46.07656-14.299855 119.252207-35.170005 124.793359-17.30786z" fill="#FFEECC" opacity=".47" p-id="2739"></path><path d="M454.79382 551.20407c-10.249187-7.175276-21.052658-13.203116-31.247769-17.720194-26.372434-11.682214-48.712789-13.272402-47.183438 1.55301 0 0 0.245034 16.604866 11.160038 35.450527 14.406318 24.795766 18.495854 42.536239 44.503272 44.433986 52.662064 3.852951 49.723344 22.690162 61.508641 18.729058 9.394102-3.170235 12.447735-12.689389 7.195555-28.336087-6.95897-20.692712-25.35005-39.709052-45.936299-54.1103z" fill="#FFEECC" p-id="2740"></path><path d="M568.359545 316.768913c-6.592264 13.696564-66.123733 32.870064-72.139744-7.242871-5.449898-36.408695-18.632735-40.34952-12.032022-54.041015 6.585504-13.691494 20.804244-6.404686 40.694258 4.366677 41.943087 22.712131 50.066392 43.222334 43.477508 56.917209z" fill="#FFF5D6" opacity=".64" p-id="2741"></path><path d="M314.052963 215.263938s-9.983874 112.577139 44.619874 210.685433c54.600368 98.109984-44.619874-210.685433-44.619874-210.685433z" fill="#FFE599" p-id="2742"></path></svg>